<?xml version="1.0" encoding="utf-8"?>
<svg xmlns="http://www.w3.org/2000/svg" xmlns:xlink="http://www.w3.org/1999/xlink" width="600" height="400" viewBox="0 0 2400 1600">
<defs>
  <clipPath id="clip640">
    <rect x="0" y="0" width="2400" height="1600"/>
  </clipPath>
</defs>
<path clip-path="url(#clip640)" d="M0 1600 L2400 1600 L2400 0 L0 0  Z" fill="#ffffff" fill-rule="evenodd" fill-opacity="1"/>
<defs>
  <clipPath id="clip641">
    <rect x="480" y="0" width="1681" height="1600"/>
  </clipPath>
</defs>
<path clip-path="url(#clip640)" d="M219.866 1390.7 L2352.76 1390.7 L2352.76 47.2441 L219.866 47.2441  Z" fill="#ffffff" fill-rule="evenodd" fill-opacity="1"/>
<defs>
  <clipPath id="clip642">
    <rect x="219" y="47" width="2134" height="1344"/>
  </clipPath>
</defs>
<polyline clip-path="url(#clip640)" style="stroke:#000000; stroke-linecap:round; stroke-linejoin:round; stroke-width:4; stroke-opacity:1; fill:none" points="219.866,1390.7 2352.76,1390.7 "/>
<polyline clip-path="url(#clip640)" style="stroke:#000000; stroke-linecap:round; stroke-linejoin:round; stroke-width:4; stroke-opacity:1; fill:none" points="219.866,1390.7 219.866,1371.81 "/>
<polyline clip-path="url(#clip640)" style="stroke:#000000; stroke-linecap:round; stroke-linejoin:round; stroke-width:4; stroke-opacity:1; fill:none" points="524.565,1390.7 524.565,1371.81 "/>
<polyline clip-path="url(#clip640)" style="stroke:#000000; stroke-linecap:round; stroke-linejoin:round; stroke-width:4; stroke-opacity:1; fill:none" points="829.263,1390.7 829.263,1371.81 "/>
<polyline clip-path="url(#clip640)" style="stroke:#000000; stroke-linecap:round; stroke-linejoin:round; stroke-width:4; stroke-opacity:1; fill:none" points="1133.96,1390.7 1133.96,1371.81 "/>
<polyline clip-path="url(#clip640)" style="stroke:#000000; stroke-linecap:round; stroke-linejoin:round; stroke-width:4; stroke-opacity:1; fill:none" points="1438.66,1390.7 1438.66,1371.81 "/>
<polyline clip-path="url(#clip640)" style="stroke:#000000; stroke-linecap:round; stroke-linejoin:round; stroke-width:4; stroke-opacity:1; fill:none" points="1743.36,1390.7 1743.36,1371.81 "/>
<polyline clip-path="url(#clip640)" style="stroke:#000000; stroke-linecap:round; stroke-linejoin:round; stroke-width:4; stroke-opacity:1; fill:none" points="2048.06,1390.7 2048.06,1371.81 "/>
<polyline clip-path="url(#clip640)" style="stroke:#000000; stroke-linecap:round; stroke-linejoin:round; stroke-width:4; stroke-opacity:1; fill:none" points="2352.76,1390.7 2352.76,1371.81 "/>
<path clip-path="url(#clip640)" d="M219.866 1421.62 Q216.255 1421.62 214.426 1425.19 Q212.621 1428.73 212.621 1435.86 Q212.621 1442.97 214.426 1446.53 Q216.255 1450.07 219.866 1450.07 Q223.501 1450.07 225.306 1446.53 Q227.135 1442.97 227.135 1435.86 Q227.135 1428.73 225.306 1425.19 Q223.501 1421.62 219.866 1421.62 M219.866 1417.92 Q225.676 1417.92 228.732 1422.53 Q231.811 1427.11 231.811 1435.86 Q231.811 1444.59 228.732 1449.19 Q225.676 1453.78 219.866 1453.78 Q214.056 1453.78 210.977 1449.19 Q207.922 1444.59 207.922 1435.86 Q207.922 1427.11 210.977 1422.53 Q214.056 1417.92 219.866 1417.92 Z" fill="#000000" fill-rule="nonzero" fill-opacity="1" /><path clip-path="url(#clip640)" d="M514.947 1449.17 L522.586 1449.17 L522.586 1422.8 L514.275 1424.47 L514.275 1420.21 L522.539 1418.54 L527.215 1418.54 L527.215 1449.17 L534.854 1449.17 L534.854 1453.1 L514.947 1453.1 L514.947 1449.17 Z" fill="#000000" fill-rule="nonzero" fill-opacity="1" /><path clip-path="url(#clip640)" d="M823.916 1449.17 L840.235 1449.17 L840.235 1453.1 L818.291 1453.1 L818.291 1449.17 Q820.953 1446.41 825.536 1441.78 Q830.143 1437.13 831.323 1435.79 Q833.569 1433.27 834.448 1431.53 Q835.351 1429.77 835.351 1428.08 Q835.351 1425.33 833.407 1423.59 Q831.486 1421.85 828.384 1421.85 Q826.185 1421.85 823.731 1422.62 Q821.3 1423.38 818.523 1424.93 L818.523 1420.21 Q821.347 1419.08 823.8 1418.5 Q826.254 1417.92 828.291 1417.92 Q833.661 1417.92 836.856 1420.6 Q840.05 1423.29 840.05 1427.78 Q840.05 1429.91 839.24 1431.83 Q838.453 1433.73 836.347 1436.32 Q835.768 1436.99 832.666 1440.21 Q829.564 1443.41 823.916 1449.17 Z" fill="#000000" fill-rule="nonzero" fill-opacity="1" /><path clip-path="url(#clip640)" d="M1138.21 1434.47 Q1141.57 1435.19 1143.44 1437.46 Q1145.34 1439.72 1145.34 1443.06 Q1145.34 1448.17 1141.82 1450.97 Q1138.3 1453.78 1131.82 1453.78 Q1129.64 1453.78 1127.33 1453.34 Q1125.04 1452.92 1122.58 1452.06 L1122.58 1447.55 Q1124.53 1448.68 1126.84 1449.26 Q1129.16 1449.84 1131.68 1449.84 Q1136.08 1449.84 1138.37 1448.1 Q1140.69 1446.37 1140.69 1443.06 Q1140.69 1440 1138.53 1438.29 Q1136.4 1436.55 1132.58 1436.55 L1128.56 1436.55 L1128.56 1432.71 L1132.77 1432.71 Q1136.22 1432.71 1138.05 1431.35 Q1139.88 1429.96 1139.88 1427.36 Q1139.88 1424.7 1137.98 1423.29 Q1136.1 1421.85 1132.58 1421.85 Q1130.66 1421.85 1128.46 1422.27 Q1126.27 1422.69 1123.63 1423.57 L1123.63 1419.4 Q1126.29 1418.66 1128.6 1418.29 Q1130.94 1417.92 1133 1417.92 Q1138.33 1417.92 1141.43 1420.35 Q1144.53 1422.76 1144.53 1426.88 Q1144.53 1429.75 1142.89 1431.74 Q1141.24 1433.71 1138.21 1434.47 Z" fill="#000000" fill-rule="nonzero" fill-opacity="1" /><path clip-path="url(#clip640)" d="M1441.67 1422.62 L1429.86 1441.07 L1441.67 1441.07 L1441.67 1422.62 M1440.44 1418.54 L1446.32 1418.54 L1446.32 1441.07 L1451.25 1441.07 L1451.25 1444.96 L1446.32 1444.96 L1446.32 1453.1 L1441.67 1453.1 L1441.67 1444.96 L1426.07 1444.96 L1426.07 1440.44 L1440.44 1418.54 Z" fill="#000000" fill-rule="nonzero" fill-opacity="1" /><path clip-path="url(#clip640)" d="M1733.64 1418.54 L1751.99 1418.54 L1751.99 1422.48 L1737.92 1422.48 L1737.92 1430.95 Q1738.94 1430.6 1739.96 1430.44 Q1740.97 1430.26 1741.99 1430.26 Q1747.78 1430.26 1751.16 1433.43 Q1754.54 1436.6 1754.54 1442.02 Q1754.54 1447.59 1751.07 1450.7 Q1747.59 1453.78 1741.28 1453.78 Q1739.1 1453.78 1736.83 1453.41 Q1734.59 1453.03 1732.18 1452.29 L1732.18 1447.59 Q1734.26 1448.73 1736.48 1449.28 Q1738.71 1449.84 1741.18 1449.84 Q1745.19 1449.84 1747.53 1447.73 Q1749.86 1445.63 1749.86 1442.02 Q1749.86 1438.41 1747.53 1436.3 Q1745.19 1434.19 1741.18 1434.19 Q1739.31 1434.19 1737.43 1434.61 Q1735.58 1435.03 1733.64 1435.91 L1733.64 1418.54 Z" fill="#000000" fill-rule="nonzero" fill-opacity="1" /><path clip-path="url(#clip640)" d="M2048.46 1433.96 Q2045.31 1433.96 2043.46 1436.11 Q2041.63 1438.27 2041.63 1442.02 Q2041.63 1445.74 2043.46 1447.92 Q2045.31 1450.07 2048.46 1450.07 Q2051.61 1450.07 2053.44 1447.92 Q2055.29 1445.74 2055.29 1442.02 Q2055.29 1438.27 2053.44 1436.11 Q2051.61 1433.96 2048.46 1433.96 M2057.74 1419.31 L2057.74 1423.57 Q2055.99 1422.73 2054.18 1422.29 Q2052.4 1421.85 2050.64 1421.85 Q2046.01 1421.85 2043.56 1424.98 Q2041.12 1428.1 2040.78 1434.42 Q2042.14 1432.41 2044.2 1431.35 Q2046.26 1430.26 2048.74 1430.26 Q2053.95 1430.26 2056.96 1433.43 Q2059.99 1436.58 2059.99 1442.02 Q2059.99 1447.34 2056.84 1450.56 Q2053.69 1453.78 2048.46 1453.78 Q2042.47 1453.78 2039.3 1449.19 Q2036.12 1444.59 2036.12 1435.86 Q2036.12 1427.66 2040.01 1422.8 Q2043.9 1417.92 2050.45 1417.92 Q2052.21 1417.92 2053.99 1418.27 Q2055.8 1418.61 2057.74 1419.31 Z" fill="#000000" fill-rule="nonzero" fill-opacity="1" /><path clip-path="url(#clip640)" d="M2341.64 1418.54 L2363.87 1418.54 L2363.87 1420.53 L2351.32 1453.1 L2346.44 1453.1 L2358.24 1422.48 L2341.64 1422.48 L2341.64 1418.54 Z" fill="#000000" fill-rule="nonzero" fill-opacity="1" /><path clip-path="url(#clip640)" d="M1272.03 1466.85 Q1272.03 1468.18 1270.94 1468.18 Q1269.01 1468.24 1267.69 1468.63 Q1266.37 1468.98 1265.59 1469.69 Q1264.85 1470.4 1264.43 1471.17 Q1264.05 1471.91 1263.79 1473.04 L1257.93 1496.45 Q1256.25 1503.05 1250.84 1507.85 Q1245.43 1512.62 1239.28 1512.62 Q1235.77 1512.62 1232.84 1511.17 Q1229.94 1509.72 1228.14 1506.79 Q1226.33 1503.86 1226.33 1499.96 Q1226.33 1498.09 1226.82 1496.13 L1230.81 1479.83 L1232.29 1474.04 Q1233.39 1469.75 1233.39 1469.37 Q1233.39 1468.75 1233 1468.59 Q1232.65 1468.4 1231.62 1468.3 L1229.1 1468.18 Q1228.33 1468.18 1228.01 1468.14 Q1227.72 1468.11 1227.49 1467.95 Q1227.27 1467.79 1227.27 1467.43 Q1227.27 1466.98 1227.36 1466.69 Q1227.49 1466.37 1227.72 1466.27 Q1227.94 1466.18 1228.11 1466.15 Q1228.27 1466.11 1228.52 1466.11 L1237.03 1466.31 L1245.46 1466.11 Q1246.4 1466.11 1246.4 1466.85 Q1246.4 1467.79 1245.98 1467.98 Q1245.56 1468.18 1244.14 1468.18 Q1241.73 1468.18 1240.63 1468.5 Q1239.57 1468.79 1239.25 1469.3 Q1238.96 1469.79 1238.6 1471.2 L1232.2 1496.87 Q1231.87 1498.16 1231.68 1499.45 Q1231.52 1500.7 1231.52 1501.35 L1231.49 1501.99 Q1231.49 1506.08 1233.74 1508.34 Q1236.03 1510.59 1239.54 1510.59 Q1244.69 1510.59 1249.49 1506.5 Q1254.32 1502.41 1255.96 1496 L1261.89 1472.46 Q1262.08 1471.88 1262.08 1471.07 Q1262.08 1469.79 1261.12 1469.01 Q1260.18 1468.21 1257.61 1468.18 Q1256.41 1468.18 1256.41 1467.43 Q1256.41 1466.82 1256.64 1466.53 Q1256.9 1466.21 1257.09 1466.18 Q1257.32 1466.11 1257.61 1466.11 Q1258.7 1466.11 1261.02 1466.21 Q1263.34 1466.31 1264.47 1466.31 Q1265.59 1466.31 1267.85 1466.21 Q1270.1 1466.11 1271.2 1466.11 Q1271.58 1466.11 1271.78 1466.31 Q1272 1466.47 1272.03 1466.66 L1272.03 1466.85 Z" fill="#000000" fill-rule="nonzero" fill-opacity="1" /><path clip-path="url(#clip640)" d="M1319.58 1514.77 Q1319.58 1517.52 1318.5 1519.91 Q1317.44 1522.28 1315.36 1523.77 Q1313.31 1525.25 1310.72 1525.25 Q1306.71 1525.25 1302.87 1522.05 Q1302.11 1521.4 1301.57 1520.79 Q1301.03 1520.18 1298.73 1517.39 Q1298.34 1518.04 1297.94 1518.65 Q1297.53 1519.23 1296.38 1520.56 Q1295.23 1521.89 1294.04 1522.82 Q1292.87 1523.74 1291.04 1524.51 Q1289.24 1525.25 1287.36 1525.25 Q1285.38 1525.25 1283.69 1524.35 Q1282.02 1523.43 1280.92 1521.96 Q1279.83 1520.47 1279.23 1518.63 Q1278.64 1516.75 1278.64 1514.82 Q1278.64 1512.07 1279.7 1509.7 Q1280.78 1507.31 1282.83 1505.82 Q1284.91 1504.33 1287.5 1504.33 Q1291.54 1504.33 1295.35 1507.51 Q1296.11 1508.16 1296.65 1508.77 Q1297.19 1509.38 1299.49 1512.18 Q1299.79 1511.68 1300.1 1511.23 Q1300.42 1510.76 1301.21 1509.72 Q1302 1508.68 1302.92 1507.85 Q1303.87 1507.02 1305.06 1506.16 Q1306.26 1505.3 1307.77 1504.83 Q1309.28 1504.33 1310.86 1504.33 Q1312.84 1504.33 1314.51 1505.26 Q1316.2 1506.16 1317.28 1507.65 Q1318.39 1509.11 1318.97 1510.98 Q1319.58 1512.83 1319.58 1514.77 M1318.57 1514.77 Q1318.57 1513.17 1318.09 1511.61 Q1317.62 1510.06 1316.72 1508.75 Q1315.84 1507.42 1314.39 1506.61 Q1312.95 1505.8 1311.19 1505.8 Q1309.35 1505.8 1307.63 1506.59 Q1305.94 1507.35 1304.61 1508.66 Q1303.3 1509.97 1302.4 1511.19 Q1301.5 1512.4 1300.71 1513.8 Q1301.12 1514.3 1302.85 1516.6 Q1304.61 1518.9 1305.35 1519.71 Q1308.4 1523.02 1311.46 1523.02 Q1314.39 1523.02 1316.47 1520.63 Q1318.57 1518.22 1318.57 1514.77 M1297.51 1515.78 Q1297.13 1515.31 1295.35 1513.01 Q1293.59 1510.69 1292.84 1509.88 Q1289.78 1506.54 1286.76 1506.54 Q1283.83 1506.54 1281.73 1508.95 Q1279.65 1511.37 1279.65 1514.82 Q1279.65 1516.42 1280.13 1517.97 Q1280.6 1519.53 1281.48 1520.83 Q1282.38 1522.14 1283.83 1522.95 Q1285.27 1523.77 1287.03 1523.77 Q1288.51 1523.77 1289.93 1523.22 Q1291.38 1522.68 1292.46 1521.87 Q1293.54 1521.06 1294.56 1519.93 Q1295.57 1518.81 1296.22 1517.84 Q1296.9 1516.87 1297.51 1515.78 Z" fill="#000000" fill-rule="nonzero" fill-opacity="1" /><path clip-path="url(#clip640)" d="M1346.48 1483.47 Q1346.48 1484.37 1346.06 1484.6 Q1345.65 1484.79 1344.49 1484.79 L1338.3 1484.79 L1333.41 1504.25 Q1333.02 1505.95 1333.02 1507.4 Q1333.02 1509.01 1333.5 1509.72 Q1334.02 1510.43 1335.08 1510.43 Q1337.18 1510.43 1339.43 1508.53 Q1341.72 1506.63 1343.65 1501.99 Q1343.91 1501.38 1344.04 1501.25 Q1344.2 1501.09 1344.61 1501.09 Q1345.42 1501.09 1345.42 1501.73 Q1345.42 1501.96 1344.97 1502.99 Q1344.55 1504.02 1343.62 1505.53 Q1342.71 1507.05 1341.52 1508.46 Q1340.36 1509.88 1338.59 1510.91 Q1336.82 1511.91 1334.92 1511.91 Q1332.25 1511.91 1330.54 1510.2 Q1328.87 1508.5 1328.87 1505.82 Q1328.87 1504.95 1329.54 1502.18 Q1330.22 1499.38 1333.89 1484.79 L1328.06 1484.79 Q1327.26 1484.79 1326.93 1484.76 Q1326.64 1484.73 1326.42 1484.57 Q1326.23 1484.37 1326.23 1483.99 Q1326.23 1483.38 1326.48 1483.12 Q1326.74 1482.83 1327.06 1482.8 Q1327.42 1482.73 1328.22 1482.73 L1334.41 1482.73 L1336.98 1472.27 Q1337.24 1471.23 1337.88 1470.65 Q1338.56 1470.04 1338.95 1469.98 Q1339.33 1469.88 1339.62 1469.88 Q1340.49 1469.88 1341.01 1470.37 Q1341.52 1470.82 1341.52 1471.65 Q1341.52 1472.1 1338.82 1482.73 L1344.61 1482.73 Q1345.36 1482.73 1345.65 1482.76 Q1345.97 1482.8 1346.23 1482.96 Q1346.48 1483.12 1346.48 1483.47 Z" fill="#000000" fill-rule="nonzero" fill-opacity="1" /><path clip-path="url(#clip640)" d="M1226.33 1542.85 L1353.33 1542.85 L1353.33 1539.33 L1226.33 1539.33  Z" fill="#000000" fill-rule="evenodd" fill-opacity="1"/>
<path clip-path="url(#clip640)" d="M1298.74 1578.17 Q1299 1578.46 1299 1578.75 Q1299 1579.04 1298.36 1579.88 Q1297.75 1580.72 1296.43 1581.84 Q1295.11 1582.97 1293.4 1584.03 Q1291.69 1585.1 1289.18 1585.8 Q1286.67 1586.54 1284.03 1586.54 Q1279.1 1586.54 1276.2 1583.29 Q1273.33 1580.04 1273.33 1575.37 Q1273.33 1570.83 1275.88 1566.48 Q1278.42 1562.1 1282.55 1559.4 Q1286.67 1556.66 1291.02 1556.66 Q1294.46 1556.66 1296.62 1558.27 Q1298.78 1559.88 1298.78 1562.33 Q1298.78 1564.23 1297.68 1565.39 Q1296.59 1566.54 1295.11 1566.54 Q1294.07 1566.54 1293.37 1565.97 Q1292.66 1565.35 1292.66 1564.23 Q1292.66 1562.78 1293.85 1561.65 Q1294.3 1561.2 1294.82 1561.01 Q1295.36 1560.78 1295.69 1560.78 Q1296.01 1560.75 1296.75 1560.75 Q1296.07 1559.49 1294.46 1558.82 Q1292.88 1558.11 1291.08 1558.11 Q1288.41 1558.11 1285.86 1559.97 Q1283.32 1561.81 1281.77 1564.71 Q1280.23 1567.54 1279.23 1571.57 Q1278.23 1575.56 1278.23 1577.88 Q1278.23 1581.07 1279.71 1583.07 Q1281.19 1585.06 1284.16 1585.06 Q1284.74 1585.06 1285.35 1585.03 Q1285.99 1585 1287.6 1584.64 Q1289.24 1584.29 1290.69 1583.68 Q1292.14 1583.07 1293.98 1581.75 Q1295.85 1580.39 1297.33 1578.56 Q1297.84 1577.88 1298.2 1577.88 Q1298.49 1577.88 1298.74 1578.17 Z" fill="#000000" fill-rule="nonzero" fill-opacity="1" /><polyline clip-path="url(#clip640)" style="stroke:#000000; stroke-linecap:round; stroke-linejoin:round; stroke-width:4; stroke-opacity:1; fill:none" points="219.866,1390.7 219.866,47.2441 "/>
<polyline clip-path="url(#clip640)" style="stroke:#000000; stroke-linecap:round; stroke-linejoin:round; stroke-width:4; stroke-opacity:1; fill:none" points="219.866,1390.7 238.764,1390.7 "/>
<polyline clip-path="url(#clip640)" style="stroke:#000000; stroke-linecap:round; stroke-linejoin:round; stroke-width:4; stroke-opacity:1; fill:none" points="219.866,1256.36 238.764,1256.36 "/>
<polyline clip-path="url(#clip640)" style="stroke:#000000; stroke-linecap:round; stroke-linejoin:round; stroke-width:4; stroke-opacity:1; fill:none" points="219.866,1122.01 238.764,1122.01 "/>
<polyline clip-path="url(#clip640)" style="stroke:#000000; stroke-linecap:round; stroke-linejoin:round; stroke-width:4; stroke-opacity:1; fill:none" points="219.866,987.666 238.764,987.666 "/>
<polyline clip-path="url(#clip640)" style="stroke:#000000; stroke-linecap:round; stroke-linejoin:round; stroke-width:4; stroke-opacity:1; fill:none" points="219.866,853.32 238.764,853.32 "/>
<polyline clip-path="url(#clip640)" style="stroke:#000000; stroke-linecap:round; stroke-linejoin:round; stroke-width:4; stroke-opacity:1; fill:none" points="219.866,718.974 238.764,718.974 "/>
<polyline clip-path="url(#clip640)" style="stroke:#000000; stroke-linecap:round; stroke-linejoin:round; stroke-width:4; stroke-opacity:1; fill:none" points="219.866,584.628 238.764,584.628 "/>
<polyline clip-path="url(#clip640)" style="stroke:#000000; stroke-linecap:round; stroke-linejoin:round; stroke-width:4; stroke-opacity:1; fill:none" points="219.866,450.282 238.764,450.282 "/>
<polyline clip-path="url(#clip640)" style="stroke:#000000; stroke-linecap:round; stroke-linejoin:round; stroke-width:4; stroke-opacity:1; fill:none" points="219.866,315.936 238.764,315.936 "/>
<polyline clip-path="url(#clip640)" style="stroke:#000000; stroke-linecap:round; stroke-linejoin:round; stroke-width:4; stroke-opacity:1; fill:none" points="219.866,181.59 238.764,181.59 "/>
<polyline clip-path="url(#clip640)" style="stroke:#000000; stroke-linecap:round; stroke-linejoin:round; stroke-width:4; stroke-opacity:1; fill:none" points="219.866,47.2441 238.764,47.2441 "/>
<path clip-path="url(#clip640)" d="M126.691 1376.5 Q123.08 1376.5 121.251 1380.07 Q119.445 1383.61 119.445 1390.74 Q119.445 1397.85 121.251 1401.41 Q123.08 1404.95 126.691 1404.95 Q130.325 1404.95 132.13 1401.41 Q133.959 1397.85 133.959 1390.74 Q133.959 1383.61 132.13 1380.07 Q130.325 1376.5 126.691 1376.5 M126.691 1372.8 Q132.501 1372.8 135.556 1377.41 Q138.635 1381.99 138.635 1390.74 Q138.635 1399.47 135.556 1404.07 Q132.501 1408.66 126.691 1408.66 Q120.88 1408.66 117.802 1404.07 Q114.746 1399.47 114.746 1390.74 Q114.746 1381.99 117.802 1377.41 Q120.88 1372.8 126.691 1372.8 Z" fill="#000000" fill-rule="nonzero" fill-opacity="1" /><path clip-path="url(#clip640)" d="M146.853 1402.1 L151.737 1402.1 L151.737 1407.98 L146.853 1407.98 L146.853 1402.1 Z" fill="#000000" fill-rule="nonzero" fill-opacity="1" /><path clip-path="url(#clip640)" d="M171.922 1376.5 Q168.311 1376.5 166.482 1380.07 Q164.677 1383.61 164.677 1390.74 Q164.677 1397.85 166.482 1401.41 Q168.311 1404.95 171.922 1404.95 Q175.556 1404.95 177.362 1401.41 Q179.19 1397.85 179.19 1390.74 Q179.19 1383.61 177.362 1380.07 Q175.556 1376.5 171.922 1376.5 M171.922 1372.8 Q177.732 1372.8 180.788 1377.41 Q183.866 1381.99 183.866 1390.74 Q183.866 1399.47 180.788 1404.07 Q177.732 1408.66 171.922 1408.66 Q166.112 1408.66 163.033 1404.07 Q159.978 1399.47 159.978 1390.74 Q159.978 1381.99 163.033 1377.41 Q166.112 1372.8 171.922 1372.8 Z" fill="#000000" fill-rule="nonzero" fill-opacity="1" /><path clip-path="url(#clip640)" d="M127.917 1242.16 Q124.306 1242.16 122.478 1245.72 Q120.672 1249.26 120.672 1256.39 Q120.672 1263.5 122.478 1267.06 Q124.306 1270.61 127.917 1270.61 Q131.552 1270.61 133.357 1267.06 Q135.186 1263.5 135.186 1256.39 Q135.186 1249.26 133.357 1245.72 Q131.552 1242.16 127.917 1242.16 M127.917 1238.45 Q133.728 1238.45 136.783 1243.06 Q139.862 1247.64 139.862 1256.39 Q139.862 1265.12 136.783 1269.73 Q133.728 1274.31 127.917 1274.31 Q122.107 1274.31 119.029 1269.73 Q115.973 1265.12 115.973 1256.39 Q115.973 1247.64 119.029 1243.06 Q122.107 1238.45 127.917 1238.45 Z" fill="#000000" fill-rule="nonzero" fill-opacity="1" /><path clip-path="url(#clip640)" d="M148.079 1267.76 L152.964 1267.76 L152.964 1273.64 L148.079 1273.64 L148.079 1267.76 Z" fill="#000000" fill-rule="nonzero" fill-opacity="1" /><path clip-path="url(#clip640)" d="M163.959 1269.7 L171.598 1269.7 L171.598 1243.34 L163.288 1245 L163.288 1240.74 L171.552 1239.08 L176.227 1239.08 L176.227 1269.7 L183.866 1269.7 L183.866 1273.64 L163.959 1273.64 L163.959 1269.7 Z" fill="#000000" fill-rule="nonzero" fill-opacity="1" /><path clip-path="url(#clip640)" d="M128.288 1107.81 Q124.677 1107.81 122.848 1111.38 Q121.043 1114.92 121.043 1122.05 Q121.043 1129.15 122.848 1132.72 Q124.677 1136.26 128.288 1136.26 Q131.922 1136.26 133.728 1132.72 Q135.556 1129.15 135.556 1122.05 Q135.556 1114.92 133.728 1111.38 Q131.922 1107.81 128.288 1107.81 M128.288 1104.11 Q134.098 1104.11 137.154 1108.71 Q140.232 1113.3 140.232 1122.05 Q140.232 1130.77 137.154 1135.38 Q134.098 1139.96 128.288 1139.96 Q122.478 1139.96 119.399 1135.38 Q116.343 1130.77 116.343 1122.05 Q116.343 1113.3 119.399 1108.71 Q122.478 1104.11 128.288 1104.11 Z" fill="#000000" fill-rule="nonzero" fill-opacity="1" /><path clip-path="url(#clip640)" d="M148.45 1133.41 L153.334 1133.41 L153.334 1139.29 L148.45 1139.29 L148.45 1133.41 Z" fill="#000000" fill-rule="nonzero" fill-opacity="1" /><path clip-path="url(#clip640)" d="M167.547 1135.36 L183.866 1135.36 L183.866 1139.29 L161.922 1139.29 L161.922 1135.36 Q164.584 1132.6 169.167 1127.97 Q173.774 1123.32 174.954 1121.98 Q177.2 1119.45 178.079 1117.72 Q178.982 1115.96 178.982 1114.27 Q178.982 1111.51 177.038 1109.78 Q175.116 1108.04 172.014 1108.04 Q169.815 1108.04 167.362 1108.81 Q164.931 1109.57 162.153 1111.12 L162.153 1106.4 Q164.977 1105.26 167.431 1104.69 Q169.885 1104.11 171.922 1104.11 Q177.292 1104.11 180.487 1106.79 Q183.681 1109.48 183.681 1113.97 Q183.681 1116.1 182.871 1118.02 Q182.084 1119.92 179.977 1122.51 Q179.399 1123.18 176.297 1126.4 Q173.195 1129.59 167.547 1135.36 Z" fill="#000000" fill-rule="nonzero" fill-opacity="1" /><path clip-path="url(#clip640)" d="M127.339 973.465 Q123.728 973.465 121.899 977.03 Q120.093 980.571 120.093 987.701 Q120.093 994.807 121.899 998.372 Q123.728 1001.91 127.339 1001.91 Q130.973 1001.91 132.779 998.372 Q134.607 994.807 134.607 987.701 Q134.607 980.571 132.779 977.03 Q130.973 973.465 127.339 973.465 M127.339 969.761 Q133.149 969.761 136.204 974.368 Q139.283 978.951 139.283 987.701 Q139.283 996.428 136.204 1001.03 Q133.149 1005.62 127.339 1005.62 Q121.529 1005.62 118.45 1001.03 Q115.394 996.428 115.394 987.701 Q115.394 978.951 118.45 974.368 Q121.529 969.761 127.339 969.761 Z" fill="#000000" fill-rule="nonzero" fill-opacity="1" /><path clip-path="url(#clip640)" d="M147.501 999.067 L152.385 999.067 L152.385 1004.95 L147.501 1004.95 L147.501 999.067 Z" fill="#000000" fill-rule="nonzero" fill-opacity="1" /><path clip-path="url(#clip640)" d="M176.737 986.312 Q180.093 987.03 181.968 989.298 Q183.866 991.567 183.866 994.9 Q183.866 1000.02 180.348 1002.82 Q176.829 1005.62 170.348 1005.62 Q168.172 1005.62 165.857 1005.18 Q163.565 1004.76 161.112 1003.9 L161.112 999.391 Q163.056 1000.52 165.371 1001.1 Q167.686 1001.68 170.209 1001.68 Q174.607 1001.68 176.899 999.946 Q179.214 998.21 179.214 994.9 Q179.214 991.844 177.061 990.131 Q174.931 988.395 171.112 988.395 L167.084 988.395 L167.084 984.553 L171.297 984.553 Q174.746 984.553 176.575 983.187 Q178.403 981.798 178.403 979.206 Q178.403 976.544 176.505 975.132 Q174.63 973.696 171.112 973.696 Q169.19 973.696 166.991 974.113 Q164.792 974.53 162.153 975.409 L162.153 971.243 Q164.815 970.502 167.13 970.132 Q169.468 969.761 171.528 969.761 Q176.852 969.761 179.954 972.192 Q183.056 974.599 183.056 978.719 Q183.056 981.59 181.413 983.581 Q179.769 985.548 176.737 986.312 Z" fill="#000000" fill-rule="nonzero" fill-opacity="1" /><path clip-path="url(#clip640)" d="M126.205 839.119 Q122.593 839.119 120.765 842.684 Q118.959 846.225 118.959 853.355 Q118.959 860.461 120.765 864.026 Q122.593 867.568 126.205 867.568 Q129.839 867.568 131.644 864.026 Q133.473 860.461 133.473 853.355 Q133.473 846.225 131.644 842.684 Q129.839 839.119 126.205 839.119 M126.205 835.415 Q132.015 835.415 135.07 840.022 Q138.149 844.605 138.149 853.355 Q138.149 862.082 135.07 866.688 Q132.015 871.271 126.205 871.271 Q120.394 871.271 117.316 866.688 Q114.26 862.082 114.26 853.355 Q114.26 844.605 117.316 840.022 Q120.394 835.415 126.205 835.415 Z" fill="#000000" fill-rule="nonzero" fill-opacity="1" /><path clip-path="url(#clip640)" d="M146.366 864.721 L151.251 864.721 L151.251 870.6 L146.366 870.6 L146.366 864.721 Z" fill="#000000" fill-rule="nonzero" fill-opacity="1" /><path clip-path="url(#clip640)" d="M174.283 840.114 L162.477 858.563 L174.283 858.563 L174.283 840.114 M173.056 836.04 L178.936 836.04 L178.936 858.563 L183.866 858.563 L183.866 862.452 L178.936 862.452 L178.936 870.6 L174.283 870.6 L174.283 862.452 L158.681 862.452 L158.681 857.938 L173.056 836.04 Z" fill="#000000" fill-rule="nonzero" fill-opacity="1" /><path clip-path="url(#clip640)" d="M127.686 704.773 Q124.075 704.773 122.246 708.338 Q120.441 711.879 120.441 719.009 Q120.441 726.115 122.246 729.68 Q124.075 733.222 127.686 733.222 Q131.32 733.222 133.126 729.68 Q134.954 726.115 134.954 719.009 Q134.954 711.879 133.126 708.338 Q131.32 704.773 127.686 704.773 M127.686 701.069 Q133.496 701.069 136.552 705.676 Q139.63 710.259 139.63 719.009 Q139.63 727.736 136.552 732.342 Q133.496 736.925 127.686 736.925 Q121.876 736.925 118.797 732.342 Q115.742 727.736 115.742 719.009 Q115.742 710.259 118.797 705.676 Q121.876 701.069 127.686 701.069 Z" fill="#000000" fill-rule="nonzero" fill-opacity="1" /><path clip-path="url(#clip640)" d="M147.848 730.375 L152.732 730.375 L152.732 736.254 L147.848 736.254 L147.848 730.375 Z" fill="#000000" fill-rule="nonzero" fill-opacity="1" /><path clip-path="url(#clip640)" d="M162.964 701.694 L181.32 701.694 L181.32 705.629 L167.246 705.629 L167.246 714.101 Q168.264 713.754 169.283 713.592 Q170.302 713.407 171.32 713.407 Q177.107 713.407 180.487 716.578 Q183.866 719.75 183.866 725.166 Q183.866 730.745 180.394 733.847 Q176.922 736.925 170.602 736.925 Q168.427 736.925 166.158 736.555 Q163.913 736.185 161.505 735.444 L161.505 730.745 Q163.589 731.879 165.811 732.435 Q168.033 732.99 170.51 732.99 Q174.514 732.99 176.852 730.884 Q179.19 728.777 179.19 725.166 Q179.19 721.555 176.852 719.449 Q174.514 717.342 170.51 717.342 Q168.635 717.342 166.76 717.759 Q164.908 718.176 162.964 719.055 L162.964 701.694 Z" fill="#000000" fill-rule="nonzero" fill-opacity="1" /><path clip-path="url(#clip640)" d="M126.529 570.427 Q122.918 570.427 121.089 573.992 Q119.283 577.533 119.283 584.663 Q119.283 591.769 121.089 595.334 Q122.918 598.876 126.529 598.876 Q130.163 598.876 131.968 595.334 Q133.797 591.769 133.797 584.663 Q133.797 577.533 131.968 573.992 Q130.163 570.427 126.529 570.427 M126.529 566.723 Q132.339 566.723 135.394 571.33 Q138.473 575.913 138.473 584.663 Q138.473 593.39 135.394 597.996 Q132.339 602.579 126.529 602.579 Q120.718 602.579 117.64 597.996 Q114.584 593.39 114.584 584.663 Q114.584 575.913 117.64 571.33 Q120.718 566.723 126.529 566.723 Z" fill="#000000" fill-rule="nonzero" fill-opacity="1" /><path clip-path="url(#clip640)" d="M146.691 596.029 L151.575 596.029 L151.575 601.908 L146.691 601.908 L146.691 596.029 Z" fill="#000000" fill-rule="nonzero" fill-opacity="1" /><path clip-path="url(#clip640)" d="M172.339 582.765 Q169.19 582.765 167.339 584.917 Q165.51 587.07 165.51 590.82 Q165.51 594.547 167.339 596.723 Q169.19 598.876 172.339 598.876 Q175.487 598.876 177.315 596.723 Q179.167 594.547 179.167 590.82 Q179.167 587.07 177.315 584.917 Q175.487 582.765 172.339 582.765 M181.621 568.112 L181.621 572.371 Q179.862 571.538 178.056 571.098 Q176.274 570.658 174.514 570.658 Q169.885 570.658 167.431 573.783 Q165.001 576.908 164.653 583.228 Q166.019 581.214 168.079 580.149 Q170.139 579.061 172.616 579.061 Q177.825 579.061 180.834 582.232 Q183.866 585.38 183.866 590.82 Q183.866 596.144 180.718 599.362 Q177.57 602.579 172.339 602.579 Q166.343 602.579 163.172 597.996 Q160.001 593.39 160.001 584.663 Q160.001 576.468 163.89 571.607 Q167.778 566.723 174.329 566.723 Q176.089 566.723 177.871 567.07 Q179.676 567.418 181.621 568.112 Z" fill="#000000" fill-rule="nonzero" fill-opacity="1" /><path clip-path="url(#clip640)" d="M127.593 436.081 Q123.982 436.081 122.154 439.646 Q120.348 443.187 120.348 450.317 Q120.348 457.423 122.154 460.988 Q123.982 464.53 127.593 464.53 Q131.228 464.53 133.033 460.988 Q134.862 457.423 134.862 450.317 Q134.862 443.187 133.033 439.646 Q131.228 436.081 127.593 436.081 M127.593 432.377 Q133.404 432.377 136.459 436.984 Q139.538 441.567 139.538 450.317 Q139.538 459.044 136.459 463.65 Q133.404 468.233 127.593 468.233 Q121.783 468.233 118.705 463.65 Q115.649 459.044 115.649 450.317 Q115.649 441.567 118.705 436.984 Q121.783 432.377 127.593 432.377 Z" fill="#000000" fill-rule="nonzero" fill-opacity="1" /><path clip-path="url(#clip640)" d="M147.755 461.683 L152.64 461.683 L152.64 467.562 L147.755 467.562 L147.755 461.683 Z" fill="#000000" fill-rule="nonzero" fill-opacity="1" /><path clip-path="url(#clip640)" d="M161.644 433.002 L183.866 433.002 L183.866 434.993 L171.32 467.562 L166.436 467.562 L178.241 436.937 L161.644 436.937 L161.644 433.002 Z" fill="#000000" fill-rule="nonzero" fill-opacity="1" /><path clip-path="url(#clip640)" d="M126.783 301.735 Q123.172 301.735 121.343 305.3 Q119.538 308.841 119.538 315.971 Q119.538 323.077 121.343 326.642 Q123.172 330.184 126.783 330.184 Q130.417 330.184 132.223 326.642 Q134.052 323.077 134.052 315.971 Q134.052 308.841 132.223 305.3 Q130.417 301.735 126.783 301.735 M126.783 298.031 Q132.593 298.031 135.649 302.638 Q138.728 307.221 138.728 315.971 Q138.728 324.698 135.649 329.304 Q132.593 333.887 126.783 333.887 Q120.973 333.887 117.894 329.304 Q114.839 324.698 114.839 315.971 Q114.839 307.221 117.894 302.638 Q120.973 298.031 126.783 298.031 Z" fill="#000000" fill-rule="nonzero" fill-opacity="1" /><path clip-path="url(#clip640)" d="M146.945 327.337 L151.829 327.337 L151.829 333.216 L146.945 333.216 L146.945 327.337 Z" fill="#000000" fill-rule="nonzero" fill-opacity="1" /><path clip-path="url(#clip640)" d="M172.014 316.804 Q168.681 316.804 166.76 318.587 Q164.862 320.369 164.862 323.494 Q164.862 326.619 166.76 328.401 Q168.681 330.184 172.014 330.184 Q175.348 330.184 177.269 328.401 Q179.19 326.596 179.19 323.494 Q179.19 320.369 177.269 318.587 Q175.371 316.804 172.014 316.804 M167.339 314.813 Q164.329 314.073 162.64 312.013 Q160.973 309.952 160.973 306.989 Q160.973 302.846 163.913 300.439 Q166.876 298.031 172.014 298.031 Q177.176 298.031 180.116 300.439 Q183.056 302.846 183.056 306.989 Q183.056 309.952 181.366 312.013 Q179.7 314.073 176.714 314.813 Q180.093 315.6 181.968 317.892 Q183.866 320.184 183.866 323.494 Q183.866 328.517 180.788 331.202 Q177.732 333.887 172.014 333.887 Q166.297 333.887 163.218 331.202 Q160.163 328.517 160.163 323.494 Q160.163 320.184 162.061 317.892 Q163.959 315.6 167.339 314.813 M165.626 307.429 Q165.626 310.114 167.292 311.619 Q168.982 313.124 172.014 313.124 Q175.024 313.124 176.714 311.619 Q178.426 310.114 178.426 307.429 Q178.426 304.744 176.714 303.239 Q175.024 301.735 172.014 301.735 Q168.982 301.735 167.292 303.239 Q165.626 304.744 165.626 307.429 Z" fill="#000000" fill-rule="nonzero" fill-opacity="1" /><path clip-path="url(#clip640)" d="M126.876 167.389 Q123.265 167.389 121.436 170.954 Q119.63 174.495 119.63 181.625 Q119.63 188.731 121.436 192.296 Q123.265 195.838 126.876 195.838 Q130.51 195.838 132.316 192.296 Q134.144 188.731 134.144 181.625 Q134.144 174.495 132.316 170.954 Q130.51 167.389 126.876 167.389 M126.876 163.685 Q132.686 163.685 135.742 168.292 Q138.82 172.875 138.82 181.625 Q138.82 190.352 135.742 194.958 Q132.686 199.541 126.876 199.541 Q121.066 199.541 117.987 194.958 Q114.931 190.352 114.931 181.625 Q114.931 172.875 117.987 168.292 Q121.066 163.685 126.876 163.685 Z" fill="#000000" fill-rule="nonzero" fill-opacity="1" /><path clip-path="url(#clip640)" d="M147.038 192.991 L151.922 192.991 L151.922 198.87 L147.038 198.87 L147.038 192.991 Z" fill="#000000" fill-rule="nonzero" fill-opacity="1" /><path clip-path="url(#clip640)" d="M162.246 198.153 L162.246 193.893 Q164.005 194.727 165.811 195.166 Q167.616 195.606 169.352 195.606 Q173.982 195.606 176.413 192.504 Q178.866 189.379 179.214 183.037 Q177.871 185.028 175.811 186.092 Q173.751 187.157 171.251 187.157 Q166.065 187.157 163.033 184.032 Q160.024 180.884 160.024 175.444 Q160.024 170.12 163.172 166.903 Q166.32 163.685 171.552 163.685 Q177.547 163.685 180.695 168.292 Q183.866 172.875 183.866 181.625 Q183.866 189.796 179.977 194.68 Q176.112 199.541 169.561 199.541 Q167.802 199.541 165.996 199.194 Q164.19 198.847 162.246 198.153 M171.552 183.5 Q174.7 183.5 176.528 181.347 Q178.38 179.194 178.38 175.444 Q178.38 171.717 176.528 169.565 Q174.7 167.389 171.552 167.389 Q168.403 167.389 166.552 169.565 Q164.723 171.717 164.723 175.444 Q164.723 179.194 166.552 181.347 Q168.403 183.5 171.552 183.5 Z" fill="#000000" fill-rule="nonzero" fill-opacity="1" /><path clip-path="url(#clip640)" d="M117.501 60.5889 L125.14 60.5889 L125.14 34.2233 L116.83 35.89 L116.83 31.6308 L125.093 29.9641 L129.769 29.9641 L129.769 60.5889 L137.408 60.5889 L137.408 64.5241 L117.501 64.5241 L117.501 60.5889 Z" fill="#000000" fill-rule="nonzero" fill-opacity="1" /><path clip-path="url(#clip640)" d="M146.853 58.6445 L151.737 58.6445 L151.737 64.5241 L146.853 64.5241 L146.853 58.6445 Z" fill="#000000" fill-rule="nonzero" fill-opacity="1" /><path clip-path="url(#clip640)" d="M171.922 33.0428 Q168.311 33.0428 166.482 36.6076 Q164.677 40.1492 164.677 47.2788 Q164.677 54.3853 166.482 57.9501 Q168.311 61.4917 171.922 61.4917 Q175.556 61.4917 177.362 57.9501 Q179.19 54.3853 179.19 47.2788 Q179.19 40.1492 177.362 36.6076 Q175.556 33.0428 171.922 33.0428 M171.922 29.3391 Q177.732 29.3391 180.788 33.9456 Q183.866 38.5289 183.866 47.2788 Q183.866 56.0056 180.788 60.6121 Q177.732 65.1954 171.922 65.1954 Q166.112 65.1954 163.033 60.6121 Q159.978 56.0056 159.978 47.2788 Q159.978 38.5289 163.033 33.9456 Q166.112 29.3391 171.922 29.3391 Z" fill="#000000" fill-rule="nonzero" fill-opacity="1" /><path clip-path="url(#clip640)" d="M16.8605 717.938 L33.6719 722.092 Q34.7347 722.382 34.8635 722.575 Q34.9924 722.736 34.9924 723.252 Q34.9924 724.25 34.316 724.25 Q34.2516 724.25 33.4143 724.153 Q32.5447 724.057 30.9666 724.057 Q25.1374 724.057 21.6913 726.891 Q18.2453 729.693 18.2453 734.685 Q18.2453 739 20.4353 743.348 Q22.6253 747.664 26.2002 750.755 Q28.9055 753.074 32.3193 754.781 Q35.7331 756.456 38.8571 757.261 Q41.981 758.034 44.3321 758.388 Q46.6831 758.742 48.39 758.742 Q50.8699 758.742 52.9632 758.227 Q55.0566 757.68 56.5381 756.713 Q57.9874 755.747 59.1146 754.523 Q60.2096 753.267 60.8537 751.818 Q61.4978 750.337 61.8198 748.855 Q62.1097 747.374 62.1097 745.828 Q62.1097 739.612 57.2788 733.686 Q53.3175 728.984 46.8441 727.02 Q46.2 726.859 46.2 726.182 Q46.2 725.377 46.8441 725.377 Q46.9729 725.377 47.6171 725.538 Q48.229 725.699 49.485 726.182 Q50.7088 726.665 52.0937 727.406 Q53.4785 728.147 55.2176 729.532 Q56.9568 730.917 58.4704 732.623 Q60.9825 735.522 62.5606 739.193 Q64.1387 742.865 64.1387 746.891 Q64.1387 751.915 61.9165 755.973 Q59.6943 760.031 55.5397 762.414 Q51.3852 764.765 46.0712 764.765 Q40.4674 764.765 34.9602 762.188 Q29.453 759.612 25.3628 755.522 Q21.2727 751.432 18.7284 746.021 Q16.1841 740.611 16.1841 735.2 Q16.1841 733.139 16.7316 731.303 Q17.2791 729.467 17.9555 728.372 Q18.6318 727.245 19.6302 726.247 Q20.5963 725.248 21.0472 724.926 Q21.4981 724.572 22.0456 724.25 L16.9893 719.645 Q16.1841 718.839 16.1841 718.646 Q16.1841 718.26 16.4096 718.099 Q16.635 717.938 16.8605 717.938 Z" fill="#000000" fill-rule="nonzero" fill-opacity="1" /><path clip-path="url(#clip640)" d="M71.4621 683.463 Q71.5974 683.463 72.1159 683.643 L82.0804 687.295 Q82.6665 687.498 82.7792 687.701 Q82.8694 687.904 82.8694 688.738 L82.8694 710.11 Q82.8694 710.629 82.8469 710.831 Q82.8243 711.034 82.7116 711.192 Q82.5989 711.35 82.3509 711.35 Q81.9 711.35 81.6971 711.192 Q81.4942 711.012 81.4717 710.809 Q81.4491 710.606 81.4491 710.11 Q81.4491 708.983 81.3815 708.306 Q81.3139 707.63 81.2237 707.202 Q81.111 706.751 80.7954 706.525 Q80.4797 706.278 80.2092 706.165 Q79.9161 706.052 79.2624 705.894 L54.4638 699.717 Q53.7199 699.537 53.6072 699.537 Q53.1788 699.537 53.0661 699.807 Q52.9308 700.055 52.8632 700.777 L52.773 702.535 Q52.773 703.076 52.7505 703.302 Q52.7279 703.505 52.6152 703.662 Q52.5025 703.82 52.2545 703.82 Q51.8262 703.82 51.6233 703.662 Q51.3978 703.482 51.3753 703.347 Q51.3302 703.189 51.3302 702.941 L51.4655 696.809 L51.3302 689.978 Q51.3302 689.234 51.8938 689.234 Q52.525 689.234 52.6603 689.55 Q52.773 689.865 52.773 690.993 Q52.773 693.157 52.9985 694.149 Q53.2239 695.118 53.6072 695.389 Q53.9679 695.637 54.9373 695.885 L79.871 702.129 Q80.7052 702.355 80.9306 702.355 Q81.1786 702.355 81.2688 702.242 Q81.3364 702.107 81.3815 701.746 Q81.4491 701.34 81.4491 700.732 L81.4491 696.403 Q81.4491 695.096 81.2462 693.946 Q81.0433 692.796 80.7503 691.917 Q80.4572 691.015 79.9161 690.204 Q79.3751 689.392 78.9016 688.828 Q78.4057 688.242 77.6392 687.679 Q76.8501 687.092 76.3091 686.754 Q75.7455 686.394 74.8437 685.988 Q73.9194 685.582 73.4009 685.379 Q72.8598 685.154 71.9355 684.816 Q71.4621 684.613 71.3268 684.545 Q71.1916 684.477 71.0788 684.365 Q70.9661 684.229 70.9661 684.026 Q70.9661 683.756 71.1239 683.621 Q71.2817 683.463 71.4621 683.463 Z" fill="#000000" fill-rule="nonzero" fill-opacity="1" /><polyline clip-path="url(#clip642)" style="stroke:#009af9; stroke-linecap:round; stroke-linejoin:round; stroke-width:4; stroke-opacity:1; fill:none" points="257.954,-2052.04 296.041,534.159 334.128,543.403 372.216,531.522 410.303,514.796 448.39,497.016 486.477,479.418 524.565,462.463 562.652,446.324 600.739,431.049 638.827,416.629 676.914,403.03 715.001,390.207 753.089,378.111 791.176,366.694 829.263,355.908 867.351,345.709 905.438,336.057 943.525,326.911 981.613,318.238 1019.7,310.005 1057.79,302.182 1095.87,294.742 1133.96,287.659 1172.05,280.911 1210.14,274.476 1248.22,268.334 1286.31,262.468 1324.4,256.861 1362.49,251.497 1400.57,246.362 1438.66,241.444 1476.75,236.729 1514.83,232.207 1552.92,227.867 1591.01,223.698 1629.1,219.691 1667.18,215.838 1705.27,212.126 1743.36,208.543 1781.45,205.073 1819.53,201.699 1857.62,198.424 1895.71,195.27 1933.8,192.245 1971.88,189.336 2009.97,186.531 2048.06,183.821 2086.14,181.201 2124.23,178.667 2162.32,176.215 2200.41,173.842 2238.49,171.543 2276.58,169.317 2314.67,167.16 2352.76,165.069 "/>
<polyline clip-path="url(#clip642)" style="stroke:#e26f46; stroke-linecap:round; stroke-linejoin:round; stroke-width:4; stroke-opacity:1; fill:none" points="219.866,718.974 257.954,683.975 296.041,651.353 334.128,620.938 372.216,592.573 410.303,566.111 448.39,541.416 486.477,518.363 524.565,496.834 562.652,476.72 600.739,457.922 638.827,440.344 676.914,423.902 715.001,408.514 753.089,394.105 791.176,380.607 829.263,367.954 867.351,356.088 905.438,344.953 943.525,334.498 981.613,324.674 1019.7,315.437 1057.79,306.748 1095.87,298.566 1133.96,290.857 1172.05,283.589 1210.14,276.73 1248.22,270.252 1286.31,264.13 1324.4,258.338 1362.49,252.854 1400.57,247.657 1438.66,242.727 1476.75,238.047 1514.83,233.599 1552.92,229.368 1591.01,225.34 1629.1,221.5 1667.18,217.837 1705.27,214.339 1743.36,210.995 1781.45,207.795 1819.53,204.729 1857.62,201.789 1895.71,198.968 1933.8,196.257 1971.88,193.649 2009.97,191.139 2048.06,188.72 2086.14,186.386 2124.23,184.133 2162.32,181.955 2200.41,179.848 2238.49,177.809 2276.58,175.832 2314.67,173.914 2352.76,172.053 "/>
<path clip-path="url(#clip640)" d="M1637.84 1345.92 L2281.66 1345.92 L2281.66 1190.4 L1637.84 1190.4  Z" fill="#ffffff" fill-rule="evenodd" fill-opacity="1"/>
<polyline clip-path="url(#clip640)" style="stroke:#000000; stroke-linecap:round; stroke-linejoin:round; stroke-width:4; stroke-opacity:1; fill:none" points="1637.84,1345.92 2281.66,1345.92 2281.66,1190.4 1637.84,1190.4 1637.84,1345.92 "/>
<polyline clip-path="url(#clip640)" style="stroke:#009af9; stroke-linecap:round; stroke-linejoin:round; stroke-width:4; stroke-opacity:1; fill:none" points="1661.54,1242.24 1803.73,1242.24 "/>
<path clip-path="url(#clip640)" d="M1840.63 1259.52 L1827.43 1224.96 L1832.31 1224.96 L1843.26 1254.06 L1854.24 1224.96 L1859.1 1224.96 L1845.93 1259.52 L1840.63 1259.52 Z" fill="#000000" fill-rule="nonzero" fill-opacity="1" /><path clip-path="url(#clip640)" d="M1870.32 1236.58 Q1866.9 1236.58 1864.91 1239.27 Q1862.92 1241.93 1862.92 1246.58 Q1862.92 1251.24 1864.88 1253.92 Q1866.87 1256.58 1870.32 1256.58 Q1873.73 1256.58 1875.72 1253.9 Q1877.71 1251.21 1877.71 1246.58 Q1877.71 1241.98 1875.72 1239.29 Q1873.73 1236.58 1870.32 1236.58 M1870.32 1232.97 Q1875.88 1232.97 1879.05 1236.58 Q1882.22 1240.19 1882.22 1246.58 Q1882.22 1252.95 1879.05 1256.58 Q1875.88 1260.19 1870.32 1260.19 Q1864.75 1260.19 1861.57 1256.58 Q1858.43 1252.95 1858.43 1246.58 Q1858.43 1240.19 1861.57 1236.58 Q1864.75 1232.97 1870.32 1232.97 Z" fill="#000000" fill-rule="nonzero" fill-opacity="1" /><path clip-path="url(#clip640)" d="M1904.31 1237.58 Q1903.59 1237.16 1902.73 1236.98 Q1901.9 1236.77 1900.88 1236.77 Q1897.27 1236.77 1895.32 1239.13 Q1893.4 1241.47 1893.4 1245.86 L1893.4 1259.52 L1889.12 1259.52 L1889.12 1233.6 L1893.4 1233.6 L1893.4 1237.62 Q1894.75 1235.26 1896.9 1234.13 Q1899.05 1232.97 1902.13 1232.97 Q1902.57 1232.97 1903.1 1233.04 Q1903.63 1233.09 1904.28 1233.2 L1904.31 1237.58 Z" fill="#000000" fill-rule="nonzero" fill-opacity="1" /><path clip-path="url(#clip640)" d="M1912.99 1226.24 L1912.99 1233.6 L1921.76 1233.6 L1921.76 1236.91 L1912.99 1236.91 L1912.99 1250.98 Q1912.99 1254.15 1913.84 1255.05 Q1914.72 1255.96 1917.38 1255.96 L1921.76 1255.96 L1921.76 1259.52 L1917.38 1259.52 Q1912.45 1259.52 1910.58 1257.69 Q1908.7 1255.84 1908.7 1250.98 L1908.7 1236.91 L1905.58 1236.91 L1905.58 1233.6 L1908.7 1233.6 L1908.7 1226.24 L1912.99 1226.24 Z" fill="#000000" fill-rule="nonzero" fill-opacity="1" /><path clip-path="url(#clip640)" d="M1949.54 1245.49 L1949.54 1247.58 L1929.95 1247.58 Q1930.23 1251.98 1932.59 1254.29 Q1934.98 1256.58 1939.21 1256.58 Q1941.67 1256.58 1943.96 1255.98 Q1946.27 1255.38 1948.54 1254.18 L1948.54 1258.2 Q1946.25 1259.17 1943.84 1259.68 Q1941.43 1260.19 1938.96 1260.19 Q1932.75 1260.19 1929.12 1256.58 Q1925.51 1252.97 1925.51 1246.81 Q1925.51 1240.45 1928.93 1236.72 Q1932.38 1232.97 1938.22 1232.97 Q1943.45 1232.97 1946.48 1236.35 Q1949.54 1239.71 1949.54 1245.49 M1945.28 1244.24 Q1945.23 1240.75 1943.31 1238.67 Q1941.41 1236.58 1938.26 1236.58 Q1934.7 1236.58 1932.55 1238.6 Q1930.42 1240.61 1930.09 1244.27 L1945.28 1244.24 Z" fill="#000000" fill-rule="nonzero" fill-opacity="1" /><path clip-path="url(#clip640)" d="M1977.24 1233.6 L1967.87 1246.21 L1977.73 1259.52 L1972.71 1259.52 L1965.16 1249.34 L1957.62 1259.52 L1952.59 1259.52 L1962.66 1245.96 L1953.45 1233.6 L1958.47 1233.6 L1965.35 1242.83 L1972.22 1233.6 L1977.24 1233.6 Z" fill="#000000" fill-rule="nonzero" fill-opacity="1" /><path clip-path="url(#clip640)" d="M1983.93 1224.96 L1988.61 1224.96 L1988.61 1255.59 L2005.44 1255.59 L2005.44 1259.52 L1983.93 1259.52 L1983.93 1224.96 Z" fill="#000000" fill-rule="nonzero" fill-opacity="1" /><path clip-path="url(#clip640)" d="M2021.94 1246.49 Q2016.78 1246.49 2014.79 1247.67 Q2012.8 1248.85 2012.8 1251.7 Q2012.8 1253.97 2014.28 1255.31 Q2015.79 1256.63 2018.36 1256.63 Q2021.9 1256.63 2024.03 1254.13 Q2026.18 1251.61 2026.18 1247.44 L2026.18 1246.49 L2021.94 1246.49 M2030.44 1244.73 L2030.44 1259.52 L2026.18 1259.52 L2026.18 1255.59 Q2024.72 1257.95 2022.55 1259.08 Q2020.37 1260.19 2017.22 1260.19 Q2013.24 1260.19 2010.88 1257.97 Q2008.54 1255.73 2008.54 1251.98 Q2008.54 1247.6 2011.46 1245.38 Q2014.4 1243.16 2020.21 1243.16 L2026.18 1243.16 L2026.18 1242.74 Q2026.18 1239.8 2024.24 1238.2 Q2022.31 1236.58 2018.82 1236.58 Q2016.6 1236.58 2014.49 1237.11 Q2012.38 1237.65 2010.44 1238.71 L2010.44 1234.78 Q2012.78 1233.87 2014.98 1233.43 Q2017.18 1232.97 2019.26 1232.97 Q2024.88 1232.97 2027.66 1235.89 Q2030.44 1238.8 2030.44 1244.73 Z" fill="#000000" fill-rule="nonzero" fill-opacity="1" /><path clip-path="url(#clip640)" d="M2043.42 1226.24 L2043.42 1233.6 L2052.2 1233.6 L2052.2 1236.91 L2043.42 1236.91 L2043.42 1250.98 Q2043.42 1254.15 2044.28 1255.05 Q2045.16 1255.96 2047.82 1255.96 L2052.2 1255.96 L2052.2 1259.52 L2047.82 1259.52 Q2042.89 1259.52 2041.02 1257.69 Q2039.14 1255.84 2039.14 1250.98 L2039.14 1236.91 L2036.02 1236.91 L2036.02 1233.6 L2039.14 1233.6 L2039.14 1226.24 L2043.42 1226.24 Z" fill="#000000" fill-rule="nonzero" fill-opacity="1" /><path clip-path="url(#clip640)" d="M2062.01 1226.24 L2062.01 1233.6 L2070.79 1233.6 L2070.79 1236.91 L2062.01 1236.91 L2062.01 1250.98 Q2062.01 1254.15 2062.87 1255.05 Q2063.75 1255.96 2066.41 1255.96 L2070.79 1255.96 L2070.79 1259.52 L2066.41 1259.52 Q2061.48 1259.52 2059.61 1257.69 Q2057.73 1255.84 2057.73 1250.98 L2057.73 1236.91 L2054.61 1236.91 L2054.61 1233.6 L2057.73 1233.6 L2057.73 1226.24 L2062.01 1226.24 Z" fill="#000000" fill-rule="nonzero" fill-opacity="1" /><path clip-path="url(#clip640)" d="M2076.39 1233.6 L2080.65 1233.6 L2080.65 1259.52 L2076.39 1259.52 L2076.39 1233.6 M2076.39 1223.5 L2080.65 1223.5 L2080.65 1228.9 L2076.39 1228.9 L2076.39 1223.5 Z" fill="#000000" fill-rule="nonzero" fill-opacity="1" /><path clip-path="url(#clip640)" d="M2108.22 1234.59 L2108.22 1238.57 Q2106.41 1237.58 2104.58 1237.09 Q2102.78 1236.58 2100.92 1236.58 Q2096.78 1236.58 2094.49 1239.22 Q2092.2 1241.84 2092.2 1246.58 Q2092.2 1251.33 2094.49 1253.97 Q2096.78 1256.58 2100.92 1256.58 Q2102.78 1256.58 2104.58 1256.1 Q2106.41 1255.59 2108.22 1254.59 L2108.22 1258.53 Q2106.43 1259.36 2104.51 1259.78 Q2102.61 1260.19 2100.46 1260.19 Q2094.61 1260.19 2091.16 1256.51 Q2087.71 1252.83 2087.71 1246.58 Q2087.71 1240.24 2091.18 1236.61 Q2094.67 1232.97 2100.74 1232.97 Q2102.71 1232.97 2104.58 1233.39 Q2106.46 1233.78 2108.22 1234.59 Z" fill="#000000" fill-rule="nonzero" fill-opacity="1" /><path clip-path="url(#clip640)" d="M2137.8 1245.49 L2137.8 1247.58 L2118.22 1247.58 Q2118.49 1251.98 2120.86 1254.29 Q2123.24 1256.58 2127.48 1256.58 Q2129.93 1256.58 2132.22 1255.98 Q2134.54 1255.38 2136.8 1254.18 L2136.8 1258.2 Q2134.51 1259.17 2132.11 1259.68 Q2129.7 1260.19 2127.22 1260.19 Q2121.02 1260.19 2117.38 1256.58 Q2113.77 1252.97 2113.77 1246.81 Q2113.77 1240.45 2117.2 1236.72 Q2120.65 1232.97 2126.48 1232.97 Q2131.71 1232.97 2134.74 1236.35 Q2137.8 1239.71 2137.8 1245.49 M2133.54 1244.24 Q2133.49 1240.75 2131.57 1238.67 Q2129.67 1236.58 2126.53 1236.58 Q2122.96 1236.58 2120.81 1238.6 Q2118.68 1240.61 2118.36 1244.27 L2133.54 1244.24 Z" fill="#000000" fill-rule="nonzero" fill-opacity="1" /><polyline clip-path="url(#clip640)" style="stroke:#e26f46; stroke-linecap:round; stroke-linejoin:round; stroke-width:4; stroke-opacity:1; fill:none" points="1661.54,1294.08 1803.73,1294.08 "/>
<path clip-path="url(#clip640)" d="M1827.43 1276.8 L1832.15 1276.8 L1839.42 1306.02 L1846.67 1276.8 L1851.92 1276.8 L1859.19 1306.02 L1866.44 1276.8 L1871.18 1276.8 L1862.5 1311.36 L1856.62 1311.36 L1849.33 1281.36 L1841.97 1311.36 L1836.09 1311.36 L1827.43 1276.8 Z" fill="#000000" fill-rule="nonzero" fill-opacity="1" /><path clip-path="url(#clip640)" d="M1885.95 1298.33 Q1880.79 1298.33 1878.8 1299.51 Q1876.81 1300.69 1876.81 1303.54 Q1876.81 1305.81 1878.29 1307.15 Q1879.79 1308.47 1882.36 1308.47 Q1885.9 1308.47 1888.03 1305.97 Q1890.19 1303.45 1890.19 1299.28 L1890.19 1298.33 L1885.95 1298.33 M1894.44 1296.57 L1894.44 1311.36 L1890.19 1311.36 L1890.19 1307.43 Q1888.73 1309.79 1886.55 1310.92 Q1884.37 1312.03 1881.23 1312.03 Q1877.25 1312.03 1874.88 1309.81 Q1872.55 1307.57 1872.55 1303.82 Q1872.55 1299.44 1875.46 1297.22 Q1878.4 1295 1884.21 1295 L1890.19 1295 L1890.19 1294.58 Q1890.19 1291.64 1888.24 1290.04 Q1886.32 1288.42 1882.82 1288.42 Q1880.6 1288.42 1878.5 1288.95 Q1876.39 1289.49 1874.44 1290.55 L1874.44 1286.62 Q1876.78 1285.71 1878.98 1285.27 Q1881.18 1284.81 1883.26 1284.81 Q1888.89 1284.81 1891.67 1287.73 Q1894.44 1290.64 1894.44 1296.57 Z" fill="#000000" fill-rule="nonzero" fill-opacity="1" /><path clip-path="url(#clip640)" d="M1920.28 1298.1 Q1920.28 1293.47 1918.36 1290.92 Q1916.46 1288.38 1913.01 1288.38 Q1909.58 1288.38 1907.66 1290.92 Q1905.76 1293.47 1905.76 1298.1 Q1905.76 1302.7 1907.66 1305.25 Q1909.58 1307.8 1913.01 1307.8 Q1916.46 1307.8 1918.36 1305.25 Q1920.28 1302.7 1920.28 1298.1 M1924.54 1308.14 Q1924.54 1314.76 1921.6 1317.98 Q1918.66 1321.22 1912.59 1321.22 Q1910.35 1321.22 1908.36 1320.88 Q1906.37 1320.55 1904.49 1319.86 L1904.49 1315.71 Q1906.37 1316.73 1908.19 1317.22 Q1910.02 1317.7 1911.92 1317.7 Q1916.11 1317.7 1918.19 1315.51 Q1920.28 1313.33 1920.28 1308.91 L1920.28 1306.8 Q1918.96 1309.09 1916.9 1310.23 Q1914.84 1311.36 1911.97 1311.36 Q1907.2 1311.36 1904.28 1307.73 Q1901.37 1304.09 1901.37 1298.1 Q1901.37 1292.08 1904.28 1288.45 Q1907.2 1284.81 1911.97 1284.81 Q1914.84 1284.81 1916.9 1285.95 Q1918.96 1287.08 1920.28 1289.37 L1920.28 1285.44 L1924.54 1285.44 L1924.54 1308.14 Z" fill="#000000" fill-rule="nonzero" fill-opacity="1" /><path clip-path="url(#clip640)" d="M1954.86 1295.71 L1954.86 1311.36 L1950.6 1311.36 L1950.6 1295.85 Q1950.6 1292.17 1949.17 1290.34 Q1947.73 1288.52 1944.86 1288.52 Q1941.41 1288.52 1939.42 1290.71 Q1937.43 1292.91 1937.43 1296.71 L1937.43 1311.36 L1933.15 1311.36 L1933.15 1285.44 L1937.43 1285.44 L1937.43 1289.46 Q1938.96 1287.13 1941.02 1285.97 Q1943.1 1284.81 1945.81 1284.81 Q1950.28 1284.81 1952.57 1287.59 Q1954.86 1290.34 1954.86 1295.71 Z" fill="#000000" fill-rule="nonzero" fill-opacity="1" /><path clip-path="url(#clip640)" d="M1985.53 1297.33 L1985.53 1299.42 L1965.95 1299.42 Q1966.23 1303.82 1968.59 1306.13 Q1970.97 1308.42 1975.21 1308.42 Q1977.66 1308.42 1979.95 1307.82 Q1982.27 1307.22 1984.54 1306.02 L1984.54 1310.04 Q1982.24 1311.01 1979.84 1311.52 Q1977.43 1312.03 1974.95 1312.03 Q1968.75 1312.03 1965.12 1308.42 Q1961.5 1304.81 1961.5 1298.65 Q1961.5 1292.29 1964.93 1288.56 Q1968.38 1284.81 1974.21 1284.81 Q1979.44 1284.81 1982.48 1288.19 Q1985.53 1291.55 1985.53 1297.33 M1981.27 1296.08 Q1981.23 1292.59 1979.3 1290.51 Q1977.41 1288.42 1974.26 1288.42 Q1970.69 1288.42 1968.54 1290.44 Q1966.41 1292.45 1966.09 1296.11 L1981.27 1296.08 Z" fill="#000000" fill-rule="nonzero" fill-opacity="1" /><path clip-path="url(#clip640)" d="M2007.55 1289.42 Q2006.83 1289 2005.97 1288.82 Q2005.14 1288.61 2004.12 1288.61 Q2000.51 1288.61 1998.56 1290.97 Q1996.64 1293.31 1996.64 1297.7 L1996.64 1311.36 L1992.36 1311.36 L1992.36 1285.44 L1996.64 1285.44 L1996.64 1289.46 Q1997.99 1287.1 2000.14 1285.97 Q2002.29 1284.81 2005.37 1284.81 Q2005.81 1284.81 2006.34 1284.88 Q2006.87 1284.93 2007.52 1285.04 L2007.55 1289.42 Z" fill="#000000" fill-rule="nonzero" fill-opacity="1" /><path clip-path="url(#clip640)" d="M2016.04 1276.8 L2016.04 1289.65 L2012.11 1289.65 L2012.11 1276.8 L2016.04 1276.8 Z" fill="#000000" fill-rule="nonzero" fill-opacity="1" /><path clip-path="url(#clip640)" d="M2041.57 1286.2 L2041.57 1290.23 Q2039.77 1289.3 2037.82 1288.84 Q2035.88 1288.38 2033.8 1288.38 Q2030.62 1288.38 2029.03 1289.35 Q2027.45 1290.32 2027.45 1292.27 Q2027.45 1293.75 2028.59 1294.6 Q2029.72 1295.44 2033.15 1296.2 L2034.61 1296.52 Q2039.14 1297.5 2041.04 1299.28 Q2042.96 1301.04 2042.96 1304.21 Q2042.96 1307.82 2040.09 1309.93 Q2037.24 1312.03 2032.24 1312.03 Q2030.16 1312.03 2027.89 1311.62 Q2025.65 1311.22 2023.15 1310.41 L2023.15 1306.02 Q2025.51 1307.24 2027.8 1307.87 Q2030.09 1308.47 2032.34 1308.47 Q2035.35 1308.47 2036.97 1307.45 Q2038.59 1306.41 2038.59 1304.53 Q2038.59 1302.8 2037.41 1301.87 Q2036.25 1300.95 2032.29 1300.09 L2030.81 1299.74 Q2026.85 1298.91 2025.09 1297.2 Q2023.33 1295.46 2023.33 1292.45 Q2023.33 1288.79 2025.93 1286.8 Q2028.52 1284.81 2033.29 1284.81 Q2035.65 1284.81 2037.73 1285.16 Q2039.81 1285.51 2041.57 1286.2 Z" fill="#000000" fill-rule="nonzero" fill-opacity="1" /><path clip-path="url(#clip640)" d="M2065 1276.8 L2084.86 1276.8 L2084.86 1280.74 L2069.67 1280.74 L2069.67 1290.92 L2083.38 1290.92 L2083.38 1294.86 L2069.67 1294.86 L2069.67 1311.36 L2065 1311.36 L2065 1276.8 Z" fill="#000000" fill-rule="nonzero" fill-opacity="1" /><path clip-path="url(#clip640)" d="M2089.05 1301.13 L2089.05 1285.44 L2093.31 1285.44 L2093.31 1300.97 Q2093.31 1304.65 2094.74 1306.5 Q2096.18 1308.33 2099.05 1308.33 Q2102.5 1308.33 2104.49 1306.13 Q2106.5 1303.93 2106.5 1300.14 L2106.5 1285.44 L2110.76 1285.44 L2110.76 1311.36 L2106.5 1311.36 L2106.5 1307.38 Q2104.95 1309.74 2102.89 1310.9 Q2100.86 1312.03 2098.15 1312.03 Q2093.68 1312.03 2091.36 1309.26 Q2089.05 1306.48 2089.05 1301.13 M2099.77 1284.81 L2099.77 1284.81 Z" fill="#000000" fill-rule="nonzero" fill-opacity="1" /><path clip-path="url(#clip640)" d="M2141.09 1295.71 L2141.09 1311.36 L2136.83 1311.36 L2136.83 1295.85 Q2136.83 1292.17 2135.39 1290.34 Q2133.96 1288.52 2131.09 1288.52 Q2127.64 1288.52 2125.65 1290.71 Q2123.66 1292.91 2123.66 1296.71 L2123.66 1311.36 L2119.37 1311.36 L2119.37 1285.44 L2123.66 1285.44 L2123.66 1289.46 Q2125.18 1287.13 2127.24 1285.97 Q2129.33 1284.81 2132.04 1284.81 Q2136.5 1284.81 2138.79 1287.59 Q2141.09 1290.34 2141.09 1295.71 Z" fill="#000000" fill-rule="nonzero" fill-opacity="1" /><path clip-path="url(#clip640)" d="M2168.24 1286.43 L2168.24 1290.41 Q2166.43 1289.42 2164.6 1288.93 Q2162.8 1288.42 2160.95 1288.42 Q2156.8 1288.42 2154.51 1291.06 Q2152.22 1293.68 2152.22 1298.42 Q2152.22 1303.17 2154.51 1305.81 Q2156.8 1308.42 2160.95 1308.42 Q2162.8 1308.42 2164.6 1307.94 Q2166.43 1307.43 2168.24 1306.43 L2168.24 1310.37 Q2166.46 1311.2 2164.54 1311.62 Q2162.64 1312.03 2160.48 1312.03 Q2154.63 1312.03 2151.18 1308.35 Q2147.73 1304.67 2147.73 1298.42 Q2147.73 1292.08 2151.2 1288.45 Q2154.7 1284.81 2160.76 1284.81 Q2162.73 1284.81 2164.6 1285.23 Q2166.48 1285.62 2168.24 1286.43 Z" fill="#000000" fill-rule="nonzero" fill-opacity="1" /><path clip-path="url(#clip640)" d="M2179.86 1278.08 L2179.86 1285.44 L2188.63 1285.44 L2188.63 1288.75 L2179.86 1288.75 L2179.86 1302.82 Q2179.86 1305.99 2180.72 1306.89 Q2181.6 1307.8 2184.26 1307.8 L2188.63 1307.8 L2188.63 1311.36 L2184.26 1311.36 Q2179.33 1311.36 2177.45 1309.53 Q2175.58 1307.68 2175.58 1302.82 L2175.58 1288.75 L2172.45 1288.75 L2172.45 1285.44 L2175.58 1285.44 L2175.58 1278.08 L2179.86 1278.08 Z" fill="#000000" fill-rule="nonzero" fill-opacity="1" /><path clip-path="url(#clip640)" d="M2194.23 1285.44 L2198.49 1285.44 L2198.49 1311.36 L2194.23 1311.36 L2194.23 1285.44 M2194.23 1275.34 L2198.49 1275.34 L2198.49 1280.74 L2194.23 1280.74 L2194.23 1275.34 Z" fill="#000000" fill-rule="nonzero" fill-opacity="1" /><path clip-path="url(#clip640)" d="M2217.45 1288.42 Q2214.03 1288.42 2212.04 1291.11 Q2210.04 1293.77 2210.04 1298.42 Q2210.04 1303.08 2212.01 1305.76 Q2214 1308.42 2217.45 1308.42 Q2220.85 1308.42 2222.85 1305.74 Q2224.84 1303.05 2224.84 1298.42 Q2224.84 1293.82 2222.85 1291.13 Q2220.85 1288.42 2217.45 1288.42 M2217.45 1284.81 Q2223.01 1284.81 2226.18 1288.42 Q2229.35 1292.03 2229.35 1298.42 Q2229.35 1304.79 2226.18 1308.42 Q2223.01 1312.03 2217.45 1312.03 Q2211.87 1312.03 2208.7 1308.42 Q2205.55 1304.79 2205.55 1298.42 Q2205.55 1292.03 2208.7 1288.42 Q2211.87 1284.81 2217.45 1284.81 Z" fill="#000000" fill-rule="nonzero" fill-opacity="1" /><path clip-path="url(#clip640)" d="M2257.96 1295.71 L2257.96 1311.36 L2253.7 1311.36 L2253.7 1295.85 Q2253.7 1292.17 2252.27 1290.34 Q2250.83 1288.52 2247.96 1288.52 Q2244.51 1288.52 2242.52 1290.71 Q2240.53 1292.91 2240.53 1296.71 L2240.53 1311.36 L2236.25 1311.36 L2236.25 1285.44 L2240.53 1285.44 L2240.53 1289.46 Q2242.06 1287.13 2244.12 1285.97 Q2246.2 1284.81 2248.91 1284.81 Q2253.38 1284.81 2255.67 1287.59 Q2257.96 1290.34 2257.96 1295.71 Z" fill="#000000" fill-rule="nonzero" fill-opacity="1" /></svg>
