<?xml version="1.0" encoding="utf-8"?>
<svg xmlns="http://www.w3.org/2000/svg" xmlns:xlink="http://www.w3.org/1999/xlink" width="600" height="400" viewBox="0 0 2400 1600">
<defs>
  <clipPath id="clip750">
    <rect x="0" y="0" width="2400" height="1600"/>
  </clipPath>
</defs>
<path clip-path="url(#clip750)" d="M0 1600 L2400 1600 L2400 0 L0 0  Z" fill="#ffffff" fill-rule="evenodd" fill-opacity="1"/>
<defs>
  <clipPath id="clip751">
    <rect x="480" y="0" width="1681" height="1600"/>
  </clipPath>
</defs>
<path clip-path="url(#clip750)" d="M279.704 1390.7 L2352.76 1390.7 L2352.76 47.2441 L279.704 47.2441  Z" fill="#ffffff" fill-rule="evenodd" fill-opacity="1"/>
<defs>
  <clipPath id="clip752">
    <rect x="279" y="47" width="2074" height="1344"/>
  </clipPath>
</defs>
<polyline clip-path="url(#clip750)" style="stroke:#000000; stroke-linecap:round; stroke-linejoin:round; stroke-width:4; stroke-opacity:1; fill:none" points="279.704,1390.7 2352.76,1390.7 "/>
<polyline clip-path="url(#clip750)" style="stroke:#000000; stroke-linecap:round; stroke-linejoin:round; stroke-width:4; stroke-opacity:1; fill:none" points="279.704,1390.7 279.704,1371.81 "/>
<polyline clip-path="url(#clip750)" style="stroke:#000000; stroke-linecap:round; stroke-linejoin:round; stroke-width:4; stroke-opacity:1; fill:none" points="487.009,1390.7 487.009,1371.81 "/>
<polyline clip-path="url(#clip750)" style="stroke:#000000; stroke-linecap:round; stroke-linejoin:round; stroke-width:4; stroke-opacity:1; fill:none" points="694.314,1390.7 694.314,1371.81 "/>
<polyline clip-path="url(#clip750)" style="stroke:#000000; stroke-linecap:round; stroke-linejoin:round; stroke-width:4; stroke-opacity:1; fill:none" points="901.62,1390.7 901.62,1371.81 "/>
<polyline clip-path="url(#clip750)" style="stroke:#000000; stroke-linecap:round; stroke-linejoin:round; stroke-width:4; stroke-opacity:1; fill:none" points="1108.92,1390.7 1108.92,1371.81 "/>
<polyline clip-path="url(#clip750)" style="stroke:#000000; stroke-linecap:round; stroke-linejoin:round; stroke-width:4; stroke-opacity:1; fill:none" points="1316.23,1390.7 1316.23,1371.81 "/>
<polyline clip-path="url(#clip750)" style="stroke:#000000; stroke-linecap:round; stroke-linejoin:round; stroke-width:4; stroke-opacity:1; fill:none" points="1523.54,1390.7 1523.54,1371.81 "/>
<polyline clip-path="url(#clip750)" style="stroke:#000000; stroke-linecap:round; stroke-linejoin:round; stroke-width:4; stroke-opacity:1; fill:none" points="1730.84,1390.7 1730.84,1371.81 "/>
<polyline clip-path="url(#clip750)" style="stroke:#000000; stroke-linecap:round; stroke-linejoin:round; stroke-width:4; stroke-opacity:1; fill:none" points="1938.15,1390.7 1938.15,1371.81 "/>
<polyline clip-path="url(#clip750)" style="stroke:#000000; stroke-linecap:round; stroke-linejoin:round; stroke-width:4; stroke-opacity:1; fill:none" points="2145.45,1390.7 2145.45,1371.81 "/>
<polyline clip-path="url(#clip750)" style="stroke:#000000; stroke-linecap:round; stroke-linejoin:round; stroke-width:4; stroke-opacity:1; fill:none" points="2352.76,1390.7 2352.76,1371.81 "/>
<path clip-path="url(#clip750)" d="M279.704 1421.62 Q276.093 1421.62 274.264 1425.19 Q272.459 1428.73 272.459 1435.86 Q272.459 1442.97 274.264 1446.53 Q276.093 1450.07 279.704 1450.07 Q283.338 1450.07 285.144 1446.53 Q286.972 1442.97 286.972 1435.86 Q286.972 1428.73 285.144 1425.19 Q283.338 1421.62 279.704 1421.62 M279.704 1417.92 Q285.514 1417.92 288.57 1422.53 Q291.648 1427.11 291.648 1435.86 Q291.648 1444.59 288.57 1449.19 Q285.514 1453.78 279.704 1453.78 Q273.894 1453.78 270.815 1449.19 Q267.76 1444.59 267.76 1435.86 Q267.76 1427.11 270.815 1422.53 Q273.894 1417.92 279.704 1417.92 Z" fill="#000000" fill-rule="nonzero" fill-opacity="1" /><path clip-path="url(#clip750)" d="M477.391 1449.17 L485.03 1449.17 L485.03 1422.8 L476.72 1424.47 L476.72 1420.21 L484.984 1418.54 L489.66 1418.54 L489.66 1449.17 L497.298 1449.17 L497.298 1453.1 L477.391 1453.1 L477.391 1449.17 Z" fill="#000000" fill-rule="nonzero" fill-opacity="1" /><path clip-path="url(#clip750)" d="M688.967 1449.17 L705.286 1449.17 L705.286 1453.1 L683.342 1453.1 L683.342 1449.17 Q686.004 1446.41 690.587 1441.78 Q695.194 1437.13 696.374 1435.79 Q698.62 1433.27 699.499 1431.53 Q700.402 1429.77 700.402 1428.08 Q700.402 1425.33 698.458 1423.59 Q696.537 1421.85 693.435 1421.85 Q691.236 1421.85 688.782 1422.62 Q686.351 1423.38 683.574 1424.93 L683.574 1420.21 Q686.398 1419.08 688.851 1418.5 Q691.305 1417.92 693.342 1417.92 Q698.712 1417.92 701.907 1420.6 Q705.101 1423.29 705.101 1427.78 Q705.101 1429.91 704.291 1431.83 Q703.504 1433.73 701.398 1436.32 Q700.819 1436.99 697.717 1440.21 Q694.615 1443.41 688.967 1449.17 Z" fill="#000000" fill-rule="nonzero" fill-opacity="1" /><path clip-path="url(#clip750)" d="M905.867 1434.47 Q909.224 1435.19 911.099 1437.46 Q912.997 1439.72 912.997 1443.06 Q912.997 1448.17 909.478 1450.97 Q905.96 1453.78 899.478 1453.78 Q897.302 1453.78 894.988 1453.34 Q892.696 1452.92 890.242 1452.06 L890.242 1447.55 Q892.187 1448.68 894.501 1449.26 Q896.816 1449.84 899.339 1449.84 Q903.738 1449.84 906.029 1448.1 Q908.344 1446.37 908.344 1443.06 Q908.344 1440 906.191 1438.29 Q904.062 1436.55 900.242 1436.55 L896.214 1436.55 L896.214 1432.71 L900.427 1432.71 Q903.876 1432.71 905.705 1431.35 Q907.534 1429.96 907.534 1427.36 Q907.534 1424.7 905.636 1423.29 Q903.761 1421.85 900.242 1421.85 Q898.321 1421.85 896.122 1422.27 Q893.923 1422.69 891.284 1423.57 L891.284 1419.4 Q893.946 1418.66 896.261 1418.29 Q898.599 1417.92 900.659 1417.92 Q905.983 1417.92 909.085 1420.35 Q912.187 1422.76 912.187 1426.88 Q912.187 1429.75 910.543 1431.74 Q908.9 1433.71 905.867 1434.47 Z" fill="#000000" fill-rule="nonzero" fill-opacity="1" /><path clip-path="url(#clip750)" d="M1111.93 1422.62 L1100.13 1441.07 L1111.93 1441.07 L1111.93 1422.62 M1110.71 1418.54 L1116.59 1418.54 L1116.59 1441.07 L1121.52 1441.07 L1121.52 1444.96 L1116.59 1444.96 L1116.59 1453.1 L1111.93 1453.1 L1111.93 1444.96 L1096.33 1444.96 L1096.33 1440.44 L1110.71 1418.54 Z" fill="#000000" fill-rule="nonzero" fill-opacity="1" /><path clip-path="url(#clip750)" d="M1306.51 1418.54 L1324.86 1418.54 L1324.86 1422.48 L1310.79 1422.48 L1310.79 1430.95 Q1311.81 1430.6 1312.83 1430.44 Q1313.85 1430.26 1314.86 1430.26 Q1320.65 1430.26 1324.03 1433.43 Q1327.41 1436.6 1327.41 1442.02 Q1327.41 1447.59 1323.94 1450.7 Q1320.47 1453.78 1314.15 1453.78 Q1311.97 1453.78 1309.7 1453.41 Q1307.46 1453.03 1305.05 1452.29 L1305.05 1447.59 Q1307.13 1448.73 1309.35 1449.28 Q1311.58 1449.84 1314.05 1449.84 Q1318.06 1449.84 1320.4 1447.73 Q1322.73 1445.63 1322.73 1442.02 Q1322.73 1438.41 1320.4 1436.3 Q1318.06 1434.19 1314.05 1434.19 Q1312.18 1434.19 1310.3 1434.61 Q1308.45 1435.03 1306.51 1435.91 L1306.51 1418.54 Z" fill="#000000" fill-rule="nonzero" fill-opacity="1" /><path clip-path="url(#clip750)" d="M1523.94 1433.96 Q1520.79 1433.96 1518.94 1436.11 Q1517.11 1438.27 1517.11 1442.02 Q1517.11 1445.74 1518.94 1447.92 Q1520.79 1450.07 1523.94 1450.07 Q1527.09 1450.07 1528.92 1447.92 Q1530.77 1445.74 1530.77 1442.02 Q1530.77 1438.27 1528.92 1436.11 Q1527.09 1433.96 1523.94 1433.96 M1533.22 1419.31 L1533.22 1423.57 Q1531.46 1422.73 1529.66 1422.29 Q1527.88 1421.85 1526.12 1421.85 Q1521.49 1421.85 1519.03 1424.98 Q1516.6 1428.1 1516.26 1434.42 Q1517.62 1432.41 1519.68 1431.35 Q1521.74 1430.26 1524.22 1430.26 Q1529.43 1430.26 1532.44 1433.43 Q1535.47 1436.58 1535.47 1442.02 Q1535.47 1447.34 1532.32 1450.56 Q1529.17 1453.78 1523.94 1453.78 Q1517.94 1453.78 1514.77 1449.19 Q1511.6 1444.59 1511.6 1435.86 Q1511.6 1427.66 1515.49 1422.8 Q1519.38 1417.92 1525.93 1417.92 Q1527.69 1417.92 1529.47 1418.27 Q1531.28 1418.61 1533.22 1419.31 Z" fill="#000000" fill-rule="nonzero" fill-opacity="1" /><path clip-path="url(#clip750)" d="M1719.73 1418.54 L1741.95 1418.54 L1741.95 1420.53 L1729.41 1453.1 L1724.52 1453.1 L1736.33 1422.48 L1719.73 1422.48 L1719.73 1418.54 Z" fill="#000000" fill-rule="nonzero" fill-opacity="1" /><path clip-path="url(#clip750)" d="M1938.15 1436.69 Q1934.81 1436.69 1932.89 1438.47 Q1930.99 1440.26 1930.99 1443.38 Q1930.99 1446.51 1932.89 1448.29 Q1934.81 1450.07 1938.15 1450.07 Q1941.48 1450.07 1943.4 1448.29 Q1945.32 1446.48 1945.32 1443.38 Q1945.32 1440.26 1943.4 1438.47 Q1941.5 1436.69 1938.15 1436.69 M1933.47 1434.7 Q1930.46 1433.96 1928.77 1431.9 Q1927.1 1429.84 1927.1 1426.88 Q1927.1 1422.73 1930.04 1420.33 Q1933.01 1417.92 1938.15 1417.92 Q1943.31 1417.92 1946.25 1420.33 Q1949.19 1422.73 1949.19 1426.88 Q1949.19 1429.84 1947.5 1431.9 Q1945.83 1433.96 1942.84 1434.7 Q1946.22 1435.49 1948.1 1437.78 Q1950 1440.07 1950 1443.38 Q1950 1448.41 1946.92 1451.09 Q1943.86 1453.78 1938.15 1453.78 Q1932.43 1453.78 1929.35 1451.09 Q1926.29 1448.41 1926.29 1443.38 Q1926.29 1440.07 1928.19 1437.78 Q1930.09 1435.49 1933.47 1434.7 M1931.76 1427.32 Q1931.76 1430 1933.42 1431.51 Q1935.11 1433.01 1938.15 1433.01 Q1941.15 1433.01 1942.84 1431.51 Q1944.56 1430 1944.56 1427.32 Q1944.56 1424.63 1942.84 1423.13 Q1941.15 1421.62 1938.15 1421.62 Q1935.11 1421.62 1933.42 1423.13 Q1931.76 1424.63 1931.76 1427.32 Z" fill="#000000" fill-rule="nonzero" fill-opacity="1" /><path clip-path="url(#clip750)" d="M2135.75 1452.39 L2135.75 1448.13 Q2137.51 1448.96 2139.32 1449.4 Q2141.12 1449.84 2142.86 1449.84 Q2147.49 1449.84 2149.92 1446.74 Q2152.37 1443.61 2152.72 1437.27 Q2151.38 1439.26 2149.32 1440.33 Q2147.26 1441.39 2144.76 1441.39 Q2139.57 1441.39 2136.54 1438.27 Q2133.53 1435.12 2133.53 1429.68 Q2133.53 1424.35 2136.68 1421.14 Q2139.83 1417.92 2145.06 1417.92 Q2151.05 1417.92 2154.2 1422.53 Q2157.37 1427.11 2157.37 1435.86 Q2157.37 1444.03 2153.48 1448.91 Q2149.62 1453.78 2143.07 1453.78 Q2141.31 1453.78 2139.5 1453.43 Q2137.7 1453.08 2135.75 1452.39 M2145.06 1437.73 Q2148.21 1437.73 2150.03 1435.58 Q2151.89 1433.43 2151.89 1429.68 Q2151.89 1425.95 2150.03 1423.8 Q2148.21 1421.62 2145.06 1421.62 Q2141.91 1421.62 2140.06 1423.8 Q2138.23 1425.95 2138.23 1429.68 Q2138.23 1433.43 2140.06 1435.58 Q2141.91 1437.73 2145.06 1437.73 Z" fill="#000000" fill-rule="nonzero" fill-opacity="1" /><path clip-path="url(#clip750)" d="M2327.44 1449.17 L2335.08 1449.17 L2335.08 1422.8 L2326.77 1424.47 L2326.77 1420.21 L2335.04 1418.54 L2339.71 1418.54 L2339.71 1449.17 L2347.35 1449.17 L2347.35 1453.1 L2327.44 1453.1 L2327.44 1449.17 Z" fill="#000000" fill-rule="nonzero" fill-opacity="1" /><path clip-path="url(#clip750)" d="M2366.8 1421.62 Q2363.18 1421.62 2361.36 1425.19 Q2359.55 1428.73 2359.55 1435.86 Q2359.55 1442.97 2361.36 1446.53 Q2363.18 1450.07 2366.8 1450.07 Q2370.43 1450.07 2372.23 1446.53 Q2374.06 1442.97 2374.06 1435.86 Q2374.06 1428.73 2372.23 1425.19 Q2370.43 1421.62 2366.8 1421.62 M2366.8 1417.92 Q2372.61 1417.92 2375.66 1422.53 Q2378.74 1427.11 2378.74 1435.86 Q2378.74 1444.59 2375.66 1449.19 Q2372.61 1453.78 2366.8 1453.78 Q2360.99 1453.78 2357.91 1449.19 Q2354.85 1444.59 2354.85 1435.86 Q2354.85 1427.11 2357.91 1422.53 Q2360.99 1417.92 2366.8 1417.92 Z" fill="#000000" fill-rule="nonzero" fill-opacity="1" /><path clip-path="url(#clip750)" d="M1301.95 1466.85 Q1301.95 1468.18 1300.86 1468.18 Q1298.93 1468.24 1297.61 1468.63 Q1296.29 1468.98 1295.51 1469.69 Q1294.77 1470.4 1294.35 1471.17 Q1293.97 1471.91 1293.71 1473.04 L1287.85 1496.45 Q1286.17 1503.05 1280.76 1507.85 Q1275.35 1512.62 1269.2 1512.62 Q1265.69 1512.62 1262.76 1511.17 Q1259.86 1509.72 1258.06 1506.79 Q1256.25 1503.86 1256.25 1499.96 Q1256.25 1498.09 1256.74 1496.13 L1260.73 1479.83 L1262.21 1474.04 Q1263.31 1469.75 1263.31 1469.37 Q1263.31 1468.75 1262.92 1468.59 Q1262.57 1468.4 1261.53 1468.3 L1259.02 1468.18 Q1258.25 1468.18 1257.93 1468.14 Q1257.64 1468.11 1257.41 1467.95 Q1257.19 1467.79 1257.19 1467.43 Q1257.19 1466.98 1257.28 1466.69 Q1257.41 1466.37 1257.64 1466.27 Q1257.86 1466.18 1258.02 1466.15 Q1258.19 1466.11 1258.44 1466.11 L1266.95 1466.31 L1275.38 1466.11 Q1276.32 1466.11 1276.32 1466.85 Q1276.32 1467.79 1275.9 1467.98 Q1275.48 1468.18 1274.06 1468.18 Q1271.65 1468.18 1270.55 1468.5 Q1269.49 1468.79 1269.17 1469.3 Q1268.88 1469.79 1268.52 1471.2 L1262.11 1496.87 Q1261.79 1498.16 1261.6 1499.45 Q1261.44 1500.7 1261.44 1501.35 L1261.41 1501.99 Q1261.41 1506.08 1263.66 1508.34 Q1265.95 1510.59 1269.46 1510.59 Q1274.61 1510.59 1279.41 1506.5 Q1284.24 1502.41 1285.88 1496 L1291.81 1472.46 Q1292 1471.88 1292 1471.07 Q1292 1469.79 1291.04 1469.01 Q1290.1 1468.21 1287.53 1468.18 Q1286.33 1468.18 1286.33 1467.43 Q1286.33 1466.82 1286.56 1466.53 Q1286.82 1466.21 1287.01 1466.18 Q1287.24 1466.11 1287.53 1466.11 Q1288.62 1466.11 1290.94 1466.21 Q1293.26 1466.31 1294.38 1466.31 Q1295.51 1466.31 1297.77 1466.21 Q1300.02 1466.11 1301.12 1466.11 Q1301.5 1466.11 1301.7 1466.31 Q1301.92 1466.47 1301.95 1466.66 L1301.95 1466.85 Z" fill="#000000" fill-rule="nonzero" fill-opacity="1" /><path clip-path="url(#clip750)" d="M1349.5 1514.77 Q1349.5 1517.52 1348.42 1519.91 Q1347.36 1522.28 1345.28 1523.77 Q1343.23 1525.25 1340.64 1525.25 Q1336.63 1525.25 1332.79 1522.05 Q1332.03 1521.4 1331.49 1520.79 Q1330.95 1520.18 1328.65 1517.39 Q1328.26 1518.04 1327.86 1518.65 Q1327.45 1519.23 1326.3 1520.56 Q1325.15 1521.89 1323.96 1522.82 Q1322.78 1523.74 1320.96 1524.51 Q1319.15 1525.25 1317.28 1525.25 Q1315.3 1525.25 1313.61 1524.35 Q1311.94 1523.43 1310.84 1521.96 Q1309.75 1520.47 1309.14 1518.63 Q1308.56 1516.75 1308.56 1514.82 Q1308.56 1512.07 1309.62 1509.7 Q1310.7 1507.31 1312.75 1505.82 Q1314.83 1504.33 1317.42 1504.33 Q1321.45 1504.33 1325.26 1507.51 Q1326.03 1508.16 1326.57 1508.77 Q1327.11 1509.38 1329.41 1512.18 Q1329.71 1511.68 1330.02 1511.23 Q1330.34 1510.76 1331.13 1509.72 Q1331.91 1508.68 1332.84 1507.85 Q1333.79 1507.02 1334.98 1506.16 Q1336.18 1505.3 1337.69 1504.83 Q1339.2 1504.33 1340.77 1504.33 Q1342.76 1504.33 1344.43 1505.26 Q1346.12 1506.16 1347.2 1507.65 Q1348.3 1509.11 1348.89 1510.98 Q1349.5 1512.83 1349.5 1514.77 M1348.48 1514.77 Q1348.48 1513.17 1348.01 1511.61 Q1347.54 1510.06 1346.64 1508.75 Q1345.76 1507.42 1344.31 1506.61 Q1342.87 1505.8 1341.11 1505.8 Q1339.26 1505.8 1337.55 1506.59 Q1335.86 1507.35 1334.53 1508.66 Q1333.22 1509.97 1332.32 1511.19 Q1331.42 1512.4 1330.63 1513.8 Q1331.04 1514.3 1332.77 1516.6 Q1334.53 1518.9 1335.27 1519.71 Q1338.32 1523.02 1341.38 1523.02 Q1344.31 1523.02 1346.39 1520.63 Q1348.48 1518.22 1348.48 1514.77 M1327.43 1515.78 Q1327.04 1515.31 1325.26 1513.01 Q1323.51 1510.69 1322.76 1509.88 Q1319.7 1506.54 1316.67 1506.54 Q1313.74 1506.54 1311.65 1508.95 Q1309.57 1511.37 1309.57 1514.82 Q1309.57 1516.42 1310.05 1517.97 Q1310.52 1519.53 1311.4 1520.83 Q1312.3 1522.14 1313.74 1522.95 Q1315.19 1523.77 1316.95 1523.77 Q1318.43 1523.77 1319.85 1523.22 Q1321.3 1522.68 1322.38 1521.87 Q1323.46 1521.06 1324.47 1519.93 Q1325.49 1518.81 1326.14 1517.84 Q1326.82 1516.87 1327.43 1515.78 Z" fill="#000000" fill-rule="nonzero" fill-opacity="1" /><path clip-path="url(#clip750)" d="M1376.4 1483.47 Q1376.4 1484.37 1375.98 1484.6 Q1375.56 1484.79 1374.4 1484.79 L1368.22 1484.79 L1363.33 1504.25 Q1362.94 1505.95 1362.94 1507.4 Q1362.94 1509.01 1363.42 1509.72 Q1363.94 1510.43 1365 1510.43 Q1367.09 1510.43 1369.35 1508.53 Q1371.64 1506.63 1373.57 1501.99 Q1373.83 1501.38 1373.95 1501.25 Q1374.11 1501.09 1374.53 1501.09 Q1375.34 1501.09 1375.34 1501.73 Q1375.34 1501.96 1374.89 1502.99 Q1374.47 1504.02 1373.54 1505.53 Q1372.63 1507.05 1371.44 1508.46 Q1370.28 1509.88 1368.51 1510.91 Q1366.74 1511.91 1364.84 1511.91 Q1362.17 1511.91 1360.46 1510.2 Q1358.79 1508.5 1358.79 1505.82 Q1358.79 1504.95 1359.46 1502.18 Q1360.14 1499.38 1363.81 1484.79 L1357.98 1484.79 Q1357.17 1484.79 1356.85 1484.76 Q1356.56 1484.73 1356.34 1484.57 Q1356.14 1484.37 1356.14 1483.99 Q1356.14 1483.38 1356.4 1483.12 Q1356.66 1482.83 1356.98 1482.8 Q1357.34 1482.73 1358.14 1482.73 L1364.32 1482.73 L1366.9 1472.27 Q1367.16 1471.23 1367.8 1470.65 Q1368.48 1470.04 1368.87 1469.98 Q1369.25 1469.88 1369.54 1469.88 Q1370.41 1469.88 1370.93 1470.37 Q1371.44 1470.82 1371.44 1471.65 Q1371.44 1472.1 1368.74 1482.73 L1374.53 1482.73 Q1375.27 1482.73 1375.56 1482.76 Q1375.89 1482.8 1376.14 1482.96 Q1376.4 1483.12 1376.4 1483.47 Z" fill="#000000" fill-rule="nonzero" fill-opacity="1" /><path clip-path="url(#clip750)" d="M1256.25 1542.85 L1383.25 1542.85 L1383.25 1539.33 L1256.25 1539.33  Z" fill="#000000" fill-rule="evenodd" fill-opacity="1"/>
<path clip-path="url(#clip750)" d="M1328.66 1578.17 Q1328.92 1578.46 1328.92 1578.75 Q1328.92 1579.04 1328.28 1579.88 Q1327.67 1580.72 1326.34 1581.84 Q1325.02 1582.97 1323.32 1584.03 Q1321.61 1585.1 1319.1 1585.8 Q1316.59 1586.54 1313.95 1586.54 Q1309.02 1586.54 1306.12 1583.29 Q1303.25 1580.04 1303.25 1575.37 Q1303.25 1570.83 1305.8 1566.48 Q1308.34 1562.1 1312.46 1559.4 Q1316.59 1556.66 1320.93 1556.66 Q1324.38 1556.66 1326.54 1558.27 Q1328.7 1559.88 1328.7 1562.33 Q1328.7 1564.23 1327.6 1565.39 Q1326.51 1566.54 1325.02 1566.54 Q1323.99 1566.54 1323.29 1565.97 Q1322.58 1565.35 1322.58 1564.23 Q1322.58 1562.78 1323.77 1561.65 Q1324.22 1561.2 1324.73 1561.01 Q1325.28 1560.78 1325.6 1560.78 Q1325.93 1560.75 1326.67 1560.75 Q1325.99 1559.49 1324.38 1558.82 Q1322.8 1558.11 1321 1558.11 Q1318.33 1558.11 1315.78 1559.97 Q1313.24 1561.81 1311.69 1564.71 Q1310.15 1567.54 1309.15 1571.57 Q1308.15 1575.56 1308.15 1577.88 Q1308.15 1581.07 1309.63 1583.07 Q1311.11 1585.06 1314.07 1585.06 Q1314.65 1585.06 1315.27 1585.03 Q1315.91 1585 1317.52 1584.64 Q1319.16 1584.29 1320.61 1583.68 Q1322.06 1583.07 1323.9 1581.75 Q1325.77 1580.39 1327.25 1578.56 Q1327.76 1577.88 1328.12 1577.88 Q1328.41 1577.88 1328.66 1578.17 Z" fill="#000000" fill-rule="nonzero" fill-opacity="1" /><polyline clip-path="url(#clip750)" style="stroke:#000000; stroke-linecap:round; stroke-linejoin:round; stroke-width:4; stroke-opacity:1; fill:none" points="279.704,1390.7 279.704,47.2441 "/>
<polyline clip-path="url(#clip750)" style="stroke:#000000; stroke-linecap:round; stroke-linejoin:round; stroke-width:4; stroke-opacity:1; fill:none" points="279.704,1390.7 298.602,1390.7 "/>
<polyline clip-path="url(#clip750)" style="stroke:#000000; stroke-linecap:round; stroke-linejoin:round; stroke-width:4; stroke-opacity:1; fill:none" points="279.704,1166.79 298.602,1166.79 "/>
<polyline clip-path="url(#clip750)" style="stroke:#000000; stroke-linecap:round; stroke-linejoin:round; stroke-width:4; stroke-opacity:1; fill:none" points="279.704,942.884 298.602,942.884 "/>
<polyline clip-path="url(#clip750)" style="stroke:#000000; stroke-linecap:round; stroke-linejoin:round; stroke-width:4; stroke-opacity:1; fill:none" points="279.704,718.974 298.602,718.974 "/>
<polyline clip-path="url(#clip750)" style="stroke:#000000; stroke-linecap:round; stroke-linejoin:round; stroke-width:4; stroke-opacity:1; fill:none" points="279.704,495.064 298.602,495.064 "/>
<polyline clip-path="url(#clip750)" style="stroke:#000000; stroke-linecap:round; stroke-linejoin:round; stroke-width:4; stroke-opacity:1; fill:none" points="279.704,271.154 298.602,271.154 "/>
<polyline clip-path="url(#clip750)" style="stroke:#000000; stroke-linecap:round; stroke-linejoin:round; stroke-width:4; stroke-opacity:1; fill:none" points="279.704,47.2441 298.602,47.2441 "/>
<path clip-path="url(#clip750)" d="M126.205 1376.5 Q122.593 1376.5 120.765 1380.07 Q118.959 1383.61 118.959 1390.74 Q118.959 1397.85 120.765 1401.41 Q122.593 1404.95 126.205 1404.95 Q129.839 1404.95 131.644 1401.41 Q133.473 1397.85 133.473 1390.74 Q133.473 1383.61 131.644 1380.07 Q129.839 1376.5 126.205 1376.5 M126.205 1372.8 Q132.015 1372.8 135.07 1377.41 Q138.149 1381.99 138.149 1390.74 Q138.149 1399.47 135.07 1404.07 Q132.015 1408.66 126.205 1408.66 Q120.394 1408.66 117.316 1404.07 Q114.26 1399.47 114.26 1390.74 Q114.26 1381.99 117.316 1377.41 Q120.394 1372.8 126.205 1372.8 Z" fill="#000000" fill-rule="nonzero" fill-opacity="1" /><path clip-path="url(#clip750)" d="M146.366 1402.1 L151.251 1402.1 L151.251 1407.98 L146.366 1407.98 L146.366 1402.1 Z" fill="#000000" fill-rule="nonzero" fill-opacity="1" /><path clip-path="url(#clip750)" d="M171.436 1376.5 Q167.825 1376.5 165.996 1380.07 Q164.19 1383.61 164.19 1390.74 Q164.19 1397.85 165.996 1401.41 Q167.825 1404.95 171.436 1404.95 Q175.07 1404.95 176.876 1401.41 Q178.704 1397.85 178.704 1390.74 Q178.704 1383.61 176.876 1380.07 Q175.07 1376.5 171.436 1376.5 M171.436 1372.8 Q177.246 1372.8 180.301 1377.41 Q183.38 1381.99 183.38 1390.74 Q183.38 1399.47 180.301 1404.07 Q177.246 1408.66 171.436 1408.66 Q165.626 1408.66 162.547 1404.07 Q159.491 1399.47 159.491 1390.74 Q159.491 1381.99 162.547 1377.41 Q165.626 1372.8 171.436 1372.8 Z" fill="#000000" fill-rule="nonzero" fill-opacity="1" /><path clip-path="url(#clip750)" d="M201.598 1376.5 Q197.987 1376.5 196.158 1380.07 Q194.352 1383.61 194.352 1390.74 Q194.352 1397.85 196.158 1401.41 Q197.987 1404.95 201.598 1404.95 Q205.232 1404.95 207.037 1401.41 Q208.866 1397.85 208.866 1390.74 Q208.866 1383.61 207.037 1380.07 Q205.232 1376.5 201.598 1376.5 M201.598 1372.8 Q207.408 1372.8 210.463 1377.41 Q213.542 1381.99 213.542 1390.74 Q213.542 1399.47 210.463 1404.07 Q207.408 1408.66 201.598 1408.66 Q195.787 1408.66 192.709 1404.07 Q189.653 1399.47 189.653 1390.74 Q189.653 1381.99 192.709 1377.41 Q195.787 1372.8 201.598 1372.8 Z" fill="#000000" fill-rule="nonzero" fill-opacity="1" /><path clip-path="url(#clip750)" d="M231.76 1376.5 Q228.148 1376.5 226.32 1380.07 Q224.514 1383.61 224.514 1390.74 Q224.514 1397.85 226.32 1401.41 Q228.148 1404.95 231.76 1404.95 Q235.394 1404.95 237.199 1401.41 Q239.028 1397.85 239.028 1390.74 Q239.028 1383.61 237.199 1380.07 Q235.394 1376.5 231.76 1376.5 M231.76 1372.8 Q237.57 1372.8 240.625 1377.41 Q243.704 1381.99 243.704 1390.74 Q243.704 1399.47 240.625 1404.07 Q237.57 1408.66 231.76 1408.66 Q225.949 1408.66 222.871 1404.07 Q219.815 1399.47 219.815 1390.74 Q219.815 1381.99 222.871 1377.41 Q225.949 1372.8 231.76 1372.8 Z" fill="#000000" fill-rule="nonzero" fill-opacity="1" /><path clip-path="url(#clip750)" d="M127.2 1152.59 Q123.589 1152.59 121.76 1156.16 Q119.955 1159.7 119.955 1166.83 Q119.955 1173.94 121.76 1177.5 Q123.589 1181.04 127.2 1181.04 Q130.834 1181.04 132.64 1177.5 Q134.468 1173.94 134.468 1166.83 Q134.468 1159.7 132.64 1156.16 Q130.834 1152.59 127.2 1152.59 M127.2 1148.89 Q133.01 1148.89 136.066 1153.5 Q139.144 1158.08 139.144 1166.83 Q139.144 1175.56 136.066 1180.16 Q133.01 1184.75 127.2 1184.75 Q121.39 1184.75 118.311 1180.16 Q115.256 1175.56 115.256 1166.83 Q115.256 1158.08 118.311 1153.5 Q121.39 1148.89 127.2 1148.89 Z" fill="#000000" fill-rule="nonzero" fill-opacity="1" /><path clip-path="url(#clip750)" d="M147.362 1178.19 L152.246 1178.19 L152.246 1184.07 L147.362 1184.07 L147.362 1178.19 Z" fill="#000000" fill-rule="nonzero" fill-opacity="1" /><path clip-path="url(#clip750)" d="M172.431 1152.59 Q168.82 1152.59 166.991 1156.16 Q165.186 1159.7 165.186 1166.83 Q165.186 1173.94 166.991 1177.5 Q168.82 1181.04 172.431 1181.04 Q176.065 1181.04 177.871 1177.5 Q179.7 1173.94 179.7 1166.83 Q179.7 1159.7 177.871 1156.16 Q176.065 1152.59 172.431 1152.59 M172.431 1148.89 Q178.241 1148.89 181.297 1153.5 Q184.376 1158.08 184.376 1166.83 Q184.376 1175.56 181.297 1180.16 Q178.241 1184.75 172.431 1184.75 Q166.621 1184.75 163.542 1180.16 Q160.487 1175.56 160.487 1166.83 Q160.487 1158.08 163.542 1153.5 Q166.621 1148.89 172.431 1148.89 Z" fill="#000000" fill-rule="nonzero" fill-opacity="1" /><path clip-path="url(#clip750)" d="M202.593 1152.59 Q198.982 1152.59 197.153 1156.16 Q195.348 1159.7 195.348 1166.83 Q195.348 1173.94 197.153 1177.5 Q198.982 1181.04 202.593 1181.04 Q206.227 1181.04 208.033 1177.5 Q209.861 1173.94 209.861 1166.83 Q209.861 1159.7 208.033 1156.16 Q206.227 1152.59 202.593 1152.59 M202.593 1148.89 Q208.403 1148.89 211.459 1153.5 Q214.537 1158.08 214.537 1166.83 Q214.537 1175.56 211.459 1180.16 Q208.403 1184.75 202.593 1184.75 Q196.783 1184.75 193.704 1180.16 Q190.649 1175.56 190.649 1166.83 Q190.649 1158.08 193.704 1153.5 Q196.783 1148.89 202.593 1148.89 Z" fill="#000000" fill-rule="nonzero" fill-opacity="1" /><path clip-path="url(#clip750)" d="M222.801 1149.51 L241.158 1149.51 L241.158 1153.45 L227.084 1153.45 L227.084 1161.92 Q228.102 1161.57 229.121 1161.41 Q230.139 1161.23 231.158 1161.23 Q236.945 1161.23 240.324 1164.4 Q243.704 1167.57 243.704 1172.99 Q243.704 1178.56 240.232 1181.67 Q236.76 1184.75 230.44 1184.75 Q228.264 1184.75 225.996 1184.38 Q223.75 1184 221.343 1183.26 L221.343 1178.56 Q223.426 1179.7 225.648 1180.25 Q227.871 1180.81 230.347 1180.81 Q234.352 1180.81 236.69 1178.7 Q239.028 1176.6 239.028 1172.99 Q239.028 1169.38 236.69 1167.27 Q234.352 1165.16 230.347 1165.16 Q228.473 1165.16 226.598 1165.58 Q224.746 1166 222.801 1166.88 L222.801 1149.51 Z" fill="#000000" fill-rule="nonzero" fill-opacity="1" /><path clip-path="url(#clip750)" d="M126.205 928.683 Q122.593 928.683 120.765 932.248 Q118.959 935.789 118.959 942.919 Q118.959 950.025 120.765 953.59 Q122.593 957.132 126.205 957.132 Q129.839 957.132 131.644 953.59 Q133.473 950.025 133.473 942.919 Q133.473 935.789 131.644 932.248 Q129.839 928.683 126.205 928.683 M126.205 924.979 Q132.015 924.979 135.07 929.586 Q138.149 934.169 138.149 942.919 Q138.149 951.646 135.07 956.252 Q132.015 960.835 126.205 960.835 Q120.394 960.835 117.316 956.252 Q114.26 951.646 114.26 942.919 Q114.26 934.169 117.316 929.586 Q120.394 924.979 126.205 924.979 Z" fill="#000000" fill-rule="nonzero" fill-opacity="1" /><path clip-path="url(#clip750)" d="M146.366 954.285 L151.251 954.285 L151.251 960.164 L146.366 960.164 L146.366 954.285 Z" fill="#000000" fill-rule="nonzero" fill-opacity="1" /><path clip-path="url(#clip750)" d="M171.436 928.683 Q167.825 928.683 165.996 932.248 Q164.19 935.789 164.19 942.919 Q164.19 950.025 165.996 953.59 Q167.825 957.132 171.436 957.132 Q175.07 957.132 176.876 953.59 Q178.704 950.025 178.704 942.919 Q178.704 935.789 176.876 932.248 Q175.07 928.683 171.436 928.683 M171.436 924.979 Q177.246 924.979 180.301 929.586 Q183.38 934.169 183.38 942.919 Q183.38 951.646 180.301 956.252 Q177.246 960.835 171.436 960.835 Q165.626 960.835 162.547 956.252 Q159.491 951.646 159.491 942.919 Q159.491 934.169 162.547 929.586 Q165.626 924.979 171.436 924.979 Z" fill="#000000" fill-rule="nonzero" fill-opacity="1" /><path clip-path="url(#clip750)" d="M192.408 956.229 L200.047 956.229 L200.047 929.863 L191.737 931.53 L191.737 927.271 L200 925.604 L204.676 925.604 L204.676 956.229 L212.315 956.229 L212.315 960.164 L192.408 960.164 L192.408 956.229 Z" fill="#000000" fill-rule="nonzero" fill-opacity="1" /><path clip-path="url(#clip750)" d="M231.76 928.683 Q228.148 928.683 226.32 932.248 Q224.514 935.789 224.514 942.919 Q224.514 950.025 226.32 953.59 Q228.148 957.132 231.76 957.132 Q235.394 957.132 237.199 953.59 Q239.028 950.025 239.028 942.919 Q239.028 935.789 237.199 932.248 Q235.394 928.683 231.76 928.683 M231.76 924.979 Q237.57 924.979 240.625 929.586 Q243.704 934.169 243.704 942.919 Q243.704 951.646 240.625 956.252 Q237.57 960.835 231.76 960.835 Q225.949 960.835 222.871 956.252 Q219.815 951.646 219.815 942.919 Q219.815 934.169 222.871 929.586 Q225.949 924.979 231.76 924.979 Z" fill="#000000" fill-rule="nonzero" fill-opacity="1" /><path clip-path="url(#clip750)" d="M127.2 704.773 Q123.589 704.773 121.76 708.338 Q119.955 711.879 119.955 719.009 Q119.955 726.115 121.76 729.68 Q123.589 733.222 127.2 733.222 Q130.834 733.222 132.64 729.68 Q134.468 726.115 134.468 719.009 Q134.468 711.879 132.64 708.338 Q130.834 704.773 127.2 704.773 M127.2 701.069 Q133.01 701.069 136.066 705.676 Q139.144 710.259 139.144 719.009 Q139.144 727.736 136.066 732.342 Q133.01 736.925 127.2 736.925 Q121.39 736.925 118.311 732.342 Q115.256 727.736 115.256 719.009 Q115.256 710.259 118.311 705.676 Q121.39 701.069 127.2 701.069 Z" fill="#000000" fill-rule="nonzero" fill-opacity="1" /><path clip-path="url(#clip750)" d="M147.362 730.375 L152.246 730.375 L152.246 736.254 L147.362 736.254 L147.362 730.375 Z" fill="#000000" fill-rule="nonzero" fill-opacity="1" /><path clip-path="url(#clip750)" d="M172.431 704.773 Q168.82 704.773 166.991 708.338 Q165.186 711.879 165.186 719.009 Q165.186 726.115 166.991 729.68 Q168.82 733.222 172.431 733.222 Q176.065 733.222 177.871 729.68 Q179.7 726.115 179.7 719.009 Q179.7 711.879 177.871 708.338 Q176.065 704.773 172.431 704.773 M172.431 701.069 Q178.241 701.069 181.297 705.676 Q184.376 710.259 184.376 719.009 Q184.376 727.736 181.297 732.342 Q178.241 736.925 172.431 736.925 Q166.621 736.925 163.542 732.342 Q160.487 727.736 160.487 719.009 Q160.487 710.259 163.542 705.676 Q166.621 701.069 172.431 701.069 Z" fill="#000000" fill-rule="nonzero" fill-opacity="1" /><path clip-path="url(#clip750)" d="M193.403 732.319 L201.042 732.319 L201.042 705.953 L192.732 707.62 L192.732 703.361 L200.996 701.694 L205.672 701.694 L205.672 732.319 L213.311 732.319 L213.311 736.254 L193.403 736.254 L193.403 732.319 Z" fill="#000000" fill-rule="nonzero" fill-opacity="1" /><path clip-path="url(#clip750)" d="M222.801 701.694 L241.158 701.694 L241.158 705.629 L227.084 705.629 L227.084 714.101 Q228.102 713.754 229.121 713.592 Q230.139 713.407 231.158 713.407 Q236.945 713.407 240.324 716.578 Q243.704 719.75 243.704 725.166 Q243.704 730.745 240.232 733.847 Q236.76 736.925 230.44 736.925 Q228.264 736.925 225.996 736.555 Q223.75 736.185 221.343 735.444 L221.343 730.745 Q223.426 731.879 225.648 732.435 Q227.871 732.99 230.347 732.99 Q234.352 732.99 236.69 730.884 Q239.028 728.777 239.028 725.166 Q239.028 721.555 236.69 719.449 Q234.352 717.342 230.347 717.342 Q228.473 717.342 226.598 717.759 Q224.746 718.176 222.801 719.055 L222.801 701.694 Z" fill="#000000" fill-rule="nonzero" fill-opacity="1" /><path clip-path="url(#clip750)" d="M126.205 480.863 Q122.593 480.863 120.765 484.428 Q118.959 487.969 118.959 495.099 Q118.959 502.205 120.765 505.77 Q122.593 509.312 126.205 509.312 Q129.839 509.312 131.644 505.77 Q133.473 502.205 133.473 495.099 Q133.473 487.969 131.644 484.428 Q129.839 480.863 126.205 480.863 M126.205 477.159 Q132.015 477.159 135.07 481.766 Q138.149 486.349 138.149 495.099 Q138.149 503.826 135.07 508.432 Q132.015 513.015 126.205 513.015 Q120.394 513.015 117.316 508.432 Q114.26 503.826 114.26 495.099 Q114.26 486.349 117.316 481.766 Q120.394 477.159 126.205 477.159 Z" fill="#000000" fill-rule="nonzero" fill-opacity="1" /><path clip-path="url(#clip750)" d="M146.366 506.465 L151.251 506.465 L151.251 512.344 L146.366 512.344 L146.366 506.465 Z" fill="#000000" fill-rule="nonzero" fill-opacity="1" /><path clip-path="url(#clip750)" d="M171.436 480.863 Q167.825 480.863 165.996 484.428 Q164.19 487.969 164.19 495.099 Q164.19 502.205 165.996 505.77 Q167.825 509.312 171.436 509.312 Q175.07 509.312 176.876 505.77 Q178.704 502.205 178.704 495.099 Q178.704 487.969 176.876 484.428 Q175.07 480.863 171.436 480.863 M171.436 477.159 Q177.246 477.159 180.301 481.766 Q183.38 486.349 183.38 495.099 Q183.38 503.826 180.301 508.432 Q177.246 513.015 171.436 513.015 Q165.626 513.015 162.547 508.432 Q159.491 503.826 159.491 495.099 Q159.491 486.349 162.547 481.766 Q165.626 477.159 171.436 477.159 Z" fill="#000000" fill-rule="nonzero" fill-opacity="1" /><path clip-path="url(#clip750)" d="M195.625 508.409 L211.945 508.409 L211.945 512.344 L190 512.344 L190 508.409 Q192.663 505.654 197.246 501.025 Q201.852 496.372 203.033 495.029 Q205.278 492.506 206.158 490.77 Q207.061 489.011 207.061 487.321 Q207.061 484.567 205.116 482.83 Q203.195 481.094 200.093 481.094 Q197.894 481.094 195.44 481.858 Q193.01 482.622 190.232 484.173 L190.232 479.451 Q193.056 478.317 195.51 477.738 Q197.963 477.159 200 477.159 Q205.371 477.159 208.565 479.844 Q211.76 482.529 211.76 487.02 Q211.76 489.15 210.949 491.071 Q210.162 492.969 208.056 495.562 Q207.477 496.233 204.375 499.451 Q201.274 502.645 195.625 508.409 Z" fill="#000000" fill-rule="nonzero" fill-opacity="1" /><path clip-path="url(#clip750)" d="M231.76 480.863 Q228.148 480.863 226.32 484.428 Q224.514 487.969 224.514 495.099 Q224.514 502.205 226.32 505.77 Q228.148 509.312 231.76 509.312 Q235.394 509.312 237.199 505.77 Q239.028 502.205 239.028 495.099 Q239.028 487.969 237.199 484.428 Q235.394 480.863 231.76 480.863 M231.76 477.159 Q237.57 477.159 240.625 481.766 Q243.704 486.349 243.704 495.099 Q243.704 503.826 240.625 508.432 Q237.57 513.015 231.76 513.015 Q225.949 513.015 222.871 508.432 Q219.815 503.826 219.815 495.099 Q219.815 486.349 222.871 481.766 Q225.949 477.159 231.76 477.159 Z" fill="#000000" fill-rule="nonzero" fill-opacity="1" /><path clip-path="url(#clip750)" d="M127.2 256.953 Q123.589 256.953 121.76 260.518 Q119.955 264.059 119.955 271.189 Q119.955 278.295 121.76 281.86 Q123.589 285.402 127.2 285.402 Q130.834 285.402 132.64 281.86 Q134.468 278.295 134.468 271.189 Q134.468 264.059 132.64 260.518 Q130.834 256.953 127.2 256.953 M127.2 253.249 Q133.01 253.249 136.066 257.856 Q139.144 262.439 139.144 271.189 Q139.144 279.916 136.066 284.522 Q133.01 289.105 127.2 289.105 Q121.39 289.105 118.311 284.522 Q115.256 279.916 115.256 271.189 Q115.256 262.439 118.311 257.856 Q121.39 253.249 127.2 253.249 Z" fill="#000000" fill-rule="nonzero" fill-opacity="1" /><path clip-path="url(#clip750)" d="M147.362 282.555 L152.246 282.555 L152.246 288.434 L147.362 288.434 L147.362 282.555 Z" fill="#000000" fill-rule="nonzero" fill-opacity="1" /><path clip-path="url(#clip750)" d="M172.431 256.953 Q168.82 256.953 166.991 260.518 Q165.186 264.059 165.186 271.189 Q165.186 278.295 166.991 281.86 Q168.82 285.402 172.431 285.402 Q176.065 285.402 177.871 281.86 Q179.7 278.295 179.7 271.189 Q179.7 264.059 177.871 260.518 Q176.065 256.953 172.431 256.953 M172.431 253.249 Q178.241 253.249 181.297 257.856 Q184.376 262.439 184.376 271.189 Q184.376 279.916 181.297 284.522 Q178.241 289.105 172.431 289.105 Q166.621 289.105 163.542 284.522 Q160.487 279.916 160.487 271.189 Q160.487 262.439 163.542 257.856 Q166.621 253.249 172.431 253.249 Z" fill="#000000" fill-rule="nonzero" fill-opacity="1" /><path clip-path="url(#clip750)" d="M196.621 284.499 L212.94 284.499 L212.94 288.434 L190.996 288.434 L190.996 284.499 Q193.658 281.744 198.241 277.115 Q202.848 272.462 204.028 271.119 Q206.274 268.596 207.153 266.86 Q208.056 265.101 208.056 263.411 Q208.056 260.656 206.112 258.92 Q204.19 257.184 201.088 257.184 Q198.889 257.184 196.436 257.948 Q194.005 258.712 191.227 260.263 L191.227 255.541 Q194.051 254.407 196.505 253.828 Q198.959 253.249 200.996 253.249 Q206.366 253.249 209.561 255.934 Q212.755 258.619 212.755 263.11 Q212.755 265.24 211.945 267.161 Q211.158 269.059 209.051 271.652 Q208.473 272.323 205.371 275.541 Q202.269 278.735 196.621 284.499 Z" fill="#000000" fill-rule="nonzero" fill-opacity="1" /><path clip-path="url(#clip750)" d="M222.801 253.874 L241.158 253.874 L241.158 257.809 L227.084 257.809 L227.084 266.281 Q228.102 265.934 229.121 265.772 Q230.139 265.587 231.158 265.587 Q236.945 265.587 240.324 268.758 Q243.704 271.93 243.704 277.346 Q243.704 282.925 240.232 286.027 Q236.76 289.105 230.44 289.105 Q228.264 289.105 225.996 288.735 Q223.75 288.365 221.343 287.624 L221.343 282.925 Q223.426 284.059 225.648 284.615 Q227.871 285.17 230.347 285.17 Q234.352 285.17 236.69 283.064 Q239.028 280.957 239.028 277.346 Q239.028 273.735 236.69 271.629 Q234.352 269.522 230.347 269.522 Q228.473 269.522 226.598 269.939 Q224.746 270.356 222.801 271.235 L222.801 253.874 Z" fill="#000000" fill-rule="nonzero" fill-opacity="1" /><path clip-path="url(#clip750)" d="M126.205 33.0428 Q122.593 33.0428 120.765 36.6076 Q118.959 40.1492 118.959 47.2788 Q118.959 54.3853 120.765 57.9501 Q122.593 61.4917 126.205 61.4917 Q129.839 61.4917 131.644 57.9501 Q133.473 54.3853 133.473 47.2788 Q133.473 40.1492 131.644 36.6076 Q129.839 33.0428 126.205 33.0428 M126.205 29.3391 Q132.015 29.3391 135.07 33.9456 Q138.149 38.5289 138.149 47.2788 Q138.149 56.0056 135.07 60.6121 Q132.015 65.1954 126.205 65.1954 Q120.394 65.1954 117.316 60.6121 Q114.26 56.0056 114.26 47.2788 Q114.26 38.5289 117.316 33.9456 Q120.394 29.3391 126.205 29.3391 Z" fill="#000000" fill-rule="nonzero" fill-opacity="1" /><path clip-path="url(#clip750)" d="M146.366 58.6445 L151.251 58.6445 L151.251 64.5241 L146.366 64.5241 L146.366 58.6445 Z" fill="#000000" fill-rule="nonzero" fill-opacity="1" /><path clip-path="url(#clip750)" d="M171.436 33.0428 Q167.825 33.0428 165.996 36.6076 Q164.19 40.1492 164.19 47.2788 Q164.19 54.3853 165.996 57.9501 Q167.825 61.4917 171.436 61.4917 Q175.07 61.4917 176.876 57.9501 Q178.704 54.3853 178.704 47.2788 Q178.704 40.1492 176.876 36.6076 Q175.07 33.0428 171.436 33.0428 M171.436 29.3391 Q177.246 29.3391 180.301 33.9456 Q183.38 38.5289 183.38 47.2788 Q183.38 56.0056 180.301 60.6121 Q177.246 65.1954 171.436 65.1954 Q165.626 65.1954 162.547 60.6121 Q159.491 56.0056 159.491 47.2788 Q159.491 38.5289 162.547 33.9456 Q165.626 29.3391 171.436 29.3391 Z" fill="#000000" fill-rule="nonzero" fill-opacity="1" /><path clip-path="url(#clip750)" d="M205.764 45.8899 Q209.121 46.6075 210.996 48.876 Q212.894 51.1445 212.894 54.4779 Q212.894 59.5936 209.375 62.3945 Q205.857 65.1954 199.375 65.1954 Q197.2 65.1954 194.885 64.7556 Q192.593 64.3389 190.139 63.4824 L190.139 58.9686 Q192.084 60.1028 194.399 60.6815 Q196.713 61.2602 199.237 61.2602 Q203.635 61.2602 205.926 59.5241 Q208.241 57.788 208.241 54.4779 Q208.241 51.4223 206.088 49.7094 Q203.959 47.9733 200.139 47.9733 L196.112 47.9733 L196.112 44.1307 L200.325 44.1307 Q203.774 44.1307 205.602 42.765 Q207.431 41.3761 207.431 38.7835 Q207.431 36.1215 205.533 34.7094 Q203.658 33.2743 200.139 33.2743 Q198.218 33.2743 196.019 33.6909 Q193.82 34.1076 191.181 34.9872 L191.181 30.8206 Q193.843 30.0798 196.158 29.7095 Q198.496 29.3391 200.556 29.3391 Q205.88 29.3391 208.982 31.7696 Q212.084 34.177 212.084 38.2974 Q212.084 41.1677 210.44 43.1585 Q208.797 45.1261 205.764 45.8899 Z" fill="#000000" fill-rule="nonzero" fill-opacity="1" /><path clip-path="url(#clip750)" d="M231.76 33.0428 Q228.148 33.0428 226.32 36.6076 Q224.514 40.1492 224.514 47.2788 Q224.514 54.3853 226.32 57.9501 Q228.148 61.4917 231.76 61.4917 Q235.394 61.4917 237.199 57.9501 Q239.028 54.3853 239.028 47.2788 Q239.028 40.1492 237.199 36.6076 Q235.394 33.0428 231.76 33.0428 M231.76 29.3391 Q237.57 29.3391 240.625 33.9456 Q243.704 38.5289 243.704 47.2788 Q243.704 56.0056 240.625 60.6121 Q237.57 65.1954 231.76 65.1954 Q225.949 65.1954 222.871 60.6121 Q219.815 56.0056 219.815 47.2788 Q219.815 38.5289 222.871 33.9456 Q225.949 29.3391 231.76 29.3391 Z" fill="#000000" fill-rule="nonzero" fill-opacity="1" /><path clip-path="url(#clip750)" d="M16.8605 721.298 L33.6719 725.453 Q34.7347 725.743 34.8635 725.936 Q34.9924 726.097 34.9924 726.612 Q34.9924 727.61 34.316 727.61 Q34.2516 727.61 33.4143 727.514 Q32.5447 727.417 30.9666 727.417 Q25.1374 727.417 21.6913 730.251 Q18.2453 733.053 18.2453 738.045 Q18.2453 742.361 20.4353 746.709 Q22.6253 751.024 26.2002 754.116 Q28.9055 756.435 32.3193 758.142 Q35.7331 759.816 38.8571 760.621 Q41.981 761.394 44.3321 761.749 Q46.6831 762.103 48.39 762.103 Q50.8699 762.103 52.9632 761.588 Q55.0566 761.04 56.5381 760.074 Q57.9874 759.108 59.1146 757.884 Q60.2096 756.628 60.8537 755.179 Q61.4978 753.697 61.8198 752.216 Q62.1097 750.734 62.1097 749.188 Q62.1097 742.973 57.2788 737.047 Q53.3175 732.345 46.8441 730.38 Q46.2 730.219 46.2 729.543 Q46.2 728.738 46.8441 728.738 Q46.9729 728.738 47.6171 728.899 Q48.229 729.06 49.485 729.543 Q50.7088 730.026 52.0937 730.767 Q53.4785 731.507 55.2176 732.892 Q56.9568 734.277 58.4704 735.984 Q60.9825 738.883 62.5606 742.554 Q64.1387 746.225 64.1387 750.251 Q64.1387 755.275 61.9165 759.333 Q59.6943 763.391 55.5397 765.774 Q51.3852 768.125 46.0712 768.125 Q40.4674 768.125 34.9602 765.549 Q29.453 762.972 25.3628 758.882 Q21.2727 754.792 18.7284 749.382 Q16.1841 743.971 16.1841 738.56 Q16.1841 736.499 16.7316 734.664 Q17.2791 732.828 17.9555 731.733 Q18.6318 730.606 19.6302 729.607 Q20.5963 728.609 21.0472 728.287 Q21.4981 727.933 22.0456 727.61 L16.9893 723.005 Q16.1841 722.2 16.1841 722.007 Q16.1841 721.62 16.4096 721.459 Q16.635 721.298 16.8605 721.298 Z" fill="#000000" fill-rule="nonzero" fill-opacity="1" /><path clip-path="url(#clip750)" d="M63.0081 679.429 Q66.7278 679.429 70.38 681.03 Q74.0096 682.608 76.76 685.178 Q79.4878 687.725 81.1786 691.174 Q82.8694 694.624 82.8694 698.141 L82.8694 713.425 Q82.8694 713.966 82.8469 714.192 Q82.8243 714.395 82.7116 714.553 Q82.5763 714.71 82.3058 714.71 Q81.8775 714.71 81.6971 714.53 Q81.4942 714.35 81.4717 714.147 Q81.4491 713.944 81.4491 713.425 Q81.4491 712.298 81.3815 711.622 Q81.3139 710.946 81.2237 710.517 Q81.111 710.066 80.7954 709.841 Q80.4797 709.593 80.2092 709.48 Q79.9161 709.367 79.2624 709.21 L54.4638 703.033 Q53.7199 702.852 53.6072 702.852 Q53.2239 702.852 53.0886 703.078 Q52.9308 703.281 52.8632 703.867 Q52.773 704.994 52.773 705.851 Q52.773 706.414 52.7505 706.64 Q52.7279 706.843 52.6152 707.023 Q52.48 707.181 52.2094 707.181 Q51.7811 707.181 51.6007 707 Q51.3978 706.797 51.3753 706.572 Q51.3302 706.347 51.3302 705.806 L51.3302 690.295 Q51.3302 686.936 52.9083 684.434 Q54.4638 681.931 57.1015 680.691 Q59.7166 679.429 63.0081 679.429 M61.3172 683.464 Q57.0113 683.464 54.8922 685.809 Q52.773 688.131 52.773 691.806 L52.773 696.743 Q52.773 698.208 53.0436 698.569 Q53.2915 698.93 54.5315 699.245 L79.871 705.58 Q80.7052 705.806 80.9306 705.806 Q81.1786 705.806 81.2688 705.693 Q81.3364 705.558 81.3815 705.197 Q81.4491 704.791 81.4491 704.182 L81.4491 698.975 Q81.4491 696.968 80.9081 695.142 Q80.3445 693.294 79.4652 691.963 Q78.5635 690.633 77.797 689.777 Q77.0079 688.92 76.2189 688.311 Q74.4379 686.936 72.1159 685.922 Q69.7938 684.885 67.6747 684.411 Q65.533 683.915 63.9549 683.69 Q62.3543 683.464 61.3172 683.464 Z" fill="#000000" fill-rule="nonzero" fill-opacity="1" /><polyline clip-path="url(#clip752)" style="stroke:#009af9; stroke-linecap:round; stroke-linejoin:round; stroke-width:4; stroke-opacity:1; fill:none" points="292.66,-4237.4 305.617,808.908 318.574,878.338 331.53,908.509 344.487,925.27 357.443,936.232 370.4,944.136 383.357,950.227 396.313,955.145 409.27,959.254 422.226,962.776 435.183,965.852 448.139,968.583 461.096,971.043 474.053,973.289 487.009,975.362 499.966,977.297 512.922,979.117 525.879,980.838 538.835,982.474 551.792,984.033 564.749,985.521 577.705,986.943 590.662,988.303 603.618,989.605 616.575,990.851 629.531,992.045 642.488,993.189 655.445,994.286 668.401,995.338 681.358,996.346 694.314,997.313 707.271,998.241 720.227,999.132 733.184,999.988 746.141,1000.81 759.097,1001.6 772.054,1002.35 785.01,1003.08 797.967,1003.78 810.923,1004.45 823.88,1005.1 836.837,1005.73 849.793,1006.33 862.75,1006.91 875.706,1007.46 888.663,1008 901.62,1008.52 914.576,1009.01 927.533,1009.49 940.489,1009.96 953.446,1010.4 966.402,1010.83 979.359,1011.25 992.316,1011.65 1005.27,1012.03 1018.23,1012.4 1031.19,1012.76 1044.14,1013.11 1057.1,1013.45 1070.05,1013.77 1083.01,1014.08 1095.97,1014.39 1108.92,1014.68 1121.88,1014.96 1134.84,1015.24 1147.79,1015.5 1160.75,1015.76 1173.71,1016 1186.66,1016.24 1199.62,1016.48 1212.58,1016.7 1225.53,1016.92 1238.49,1017.13 1251.45,1017.33 1264.4,1017.53 1277.36,1017.72 1290.32,1017.91 1303.27,1018.09 1316.23,1018.26 1329.19,1018.43 1342.14,1018.59 1355.1,1018.75 1368.06,1018.9 1381.01,1019.05 1393.97,1019.2 1406.93,1019.34 1419.88,1019.48 1432.84,1019.61 1445.8,1019.74 1458.75,1019.86 1471.71,1019.98 1484.67,1020.1 1497.62,1020.22 1510.58,1020.33 1523.54,1020.44 1536.49,1020.54 1549.45,1020.64 1562.4,1020.74 1575.36,1020.84 1588.32,1020.93 1601.27,1021.03 1614.23,1021.11 1627.19,1021.2 1640.14,1021.29 1653.1,1021.37 1666.06,1021.45 1679.01,1021.53 1691.97,1021.6 1704.93,1021.68 1717.88,1021.75 1730.84,1021.82 1743.8,1021.89 1756.75,1021.95 1769.71,1022.02 1782.67,1022.08 1795.62,1022.14 1808.58,1022.2 1821.54,1022.26 1834.49,1022.32 1847.45,1022.37 1860.41,1022.43 1873.36,1022.48 1886.32,1022.53 1899.28,1022.58 1912.23,1022.63 1925.19,1022.68 1938.15,1022.72 1951.1,1022.77 1964.06,1022.81 1977.02,1022.86 1989.97,1022.9 2002.93,1022.94 2015.88,1022.98 2028.84,1023.02 2041.8,1023.06 2054.75,1023.1 2067.71,1023.13 2080.67,1023.17 2093.62,1023.2 2106.58,1023.24 2119.54,1023.27 2132.49,1023.3 2145.45,1023.34 2158.41,1023.37 2171.36,1023.4 2184.32,1023.43 2197.28,1023.46 2210.23,1023.49 2223.19,1023.51 2236.15,1023.54 2249.1,1023.57 2262.06,1023.59 2275.02,1023.62 2287.97,1023.64 2300.93,1023.67 2313.89,1023.69 2326.84,1023.72 2339.8,1023.74 2352.76,1023.76 "/>
<polyline clip-path="url(#clip752)" style="stroke:#e26f46; stroke-linecap:round; stroke-linejoin:round; stroke-width:4; stroke-opacity:1; fill:none" points="292.66,-4435.41 305.617,763.283 318.574,837.139 331.53,869.265 344.487,887.637 357.443,900.173 370.4,909.636 383.357,917.284 396.313,923.766 409.27,929.446 422.226,934.546 435.183,939.204 448.139,943.519 461.096,947.561 474.053,951.385 487.009,955.03 499.966,958.529 512.922,961.903 525.879,965.169 538.835,968.336 551.792,971.412 564.749,974.401 577.705,977.309 590.662,980.137 603.618,982.888 616.575,985.564 629.531,988.167 642.488,990.699 655.445,993.162 668.401,995.557 681.358,997.884 694.314,1000.14 707.271,1002.34 720.227,1004.48 733.184,1006.57 746.141,1008.6 759.097,1010.58 772.054,1012.5 785.01,1014.37 797.967,1016.2 810.923,1017.97 823.88,1019.7 836.837,1021.38 849.793,1023.01 862.75,1024.61 875.706,1026.16 888.663,1027.67 901.62,1029.14 914.576,1030.57 927.533,1031.97 940.489,1033.32 953.446,1034.65 966.402,1035.93 979.359,1037.19 992.316,1038.41 1005.27,1039.6 1018.23,1040.76 1031.19,1041.89 1044.14,1043 1057.1,1044.07 1070.05,1045.12 1083.01,1046.14 1095.97,1047.13 1108.92,1048.1 1121.88,1049.05 1134.84,1049.97 1147.79,1050.87 1160.75,1051.75 1173.71,1052.6 1186.66,1053.44 1199.62,1054.25 1212.58,1055.04 1225.53,1055.82 1238.49,1056.57 1251.45,1057.31 1264.4,1058.03 1277.36,1058.73 1290.32,1059.42 1303.27,1060.09 1316.23,1060.74 1329.19,1061.38 1342.14,1062 1355.1,1062.61 1368.06,1063.21 1381.01,1063.79 1393.97,1064.36 1406.93,1064.91 1419.88,1065.45 1432.84,1065.98 1445.8,1066.5 1458.75,1067.01 1471.71,1067.5 1484.67,1067.98 1497.62,1068.46 1510.58,1068.92 1523.54,1069.37 1536.49,1069.81 1549.45,1070.24 1562.4,1070.66 1575.36,1071.07 1588.32,1071.48 1601.27,1071.87 1614.23,1072.25 1627.19,1072.63 1640.14,1073 1653.1,1073.36 1666.06,1073.71 1679.01,1074.06 1691.97,1074.4 1704.93,1074.73 1717.88,1075.05 1730.84,1075.37 1743.8,1075.68 1756.75,1075.98 1769.71,1076.28 1782.67,1076.57 1795.62,1076.86 1808.58,1077.14 1821.54,1077.41 1834.49,1077.68 1847.45,1077.94 1860.41,1078.2 1873.36,1078.45 1886.32,1078.7 1899.28,1078.94 1912.23,1079.18 1925.19,1079.41 1938.15,1079.64 1951.1,1079.86 1964.06,1080.08 1977.02,1080.3 1989.97,1080.51 2002.93,1080.71 2015.88,1080.92 2028.84,1081.12 2041.8,1081.31 2054.75,1081.5 2067.71,1081.69 2080.67,1081.88 2093.62,1082.06 2106.58,1082.23 2119.54,1082.41 2132.49,1082.58 2145.45,1082.75 2158.41,1082.91 2171.36,1083.07 2184.32,1083.23 2197.28,1083.39 2210.23,1083.54 2223.19,1083.69 2236.15,1083.84 2249.1,1083.98 2262.06,1084.13 2275.02,1084.27 2287.97,1084.4 2300.93,1084.54 2313.89,1084.67 2326.84,1084.8 2339.8,1084.93 2352.76,1085.05 "/>
<polyline clip-path="url(#clip752)" style="stroke:#3da44d; stroke-linecap:round; stroke-linejoin:round; stroke-width:4; stroke-opacity:1; fill:none" points="292.66,-4488.33 305.617,749.45 318.574,824.727 331.53,857.409 344.487,876.283 357.443,889.352 370.4,899.379 383.357,907.617 396.313,914.713 409.27,921.03 422.226,926.784 435.183,932.113 448.139,937.11 461.096,941.843 474.053,946.363 487.009,950.709 499.966,954.91 512.922,958.987 525.879,962.955 538.835,966.825 551.792,970.602 564.749,974.291 577.705,977.895 590.662,981.418 603.618,984.86 616.575,988.224 629.531,991.511 642.488,994.722 655.445,997.856 668.401,1000.91 681.358,1003.89 694.314,1006.81 707.271,1009.67 720.227,1012.46 733.184,1015.19 746.141,1017.86 759.097,1020.47 772.054,1023.01 785.01,1025.5 797.967,1027.93 810.923,1030.31 823.88,1032.63 836.837,1034.9 849.793,1037.11 862.75,1039.28 875.706,1041.4 888.663,1043.47 901.62,1045.49 914.576,1047.46 927.533,1049.4 940.489,1051.28 953.446,1053.13 966.402,1054.93 979.359,1056.69 992.316,1058.42 1005.27,1060.11 1018.23,1061.75 1031.19,1063.37 1044.14,1064.94 1057.1,1066.48 1070.05,1067.99 1083.01,1069.47 1095.97,1070.91 1108.92,1072.32 1121.88,1073.7 1134.84,1075.05 1147.79,1076.37 1160.75,1077.66 1173.71,1078.93 1186.66,1080.16 1199.62,1081.37 1212.58,1082.56 1225.53,1083.72 1238.49,1084.86 1251.45,1085.97 1264.4,1087.06 1277.36,1088.12 1290.32,1089.17 1303.27,1090.19 1316.23,1091.19 1329.19,1092.17 1342.14,1093.13 1355.1,1094.08 1368.06,1095 1381.01,1095.9 1393.97,1096.79 1406.93,1097.65 1419.88,1098.5 1432.84,1099.33 1445.8,1100.15 1458.75,1100.95 1471.71,1101.73 1484.67,1102.5 1497.62,1103.25 1510.58,1103.99 1523.54,1104.71 1536.49,1105.42 1549.45,1106.11 1562.4,1106.79 1575.36,1107.46 1588.32,1108.12 1601.27,1108.76 1614.23,1109.39 1627.19,1110.01 1640.14,1110.61 1653.1,1111.21 1666.06,1111.79 1679.01,1112.36 1691.97,1112.92 1704.93,1113.47 1717.88,1114.01 1730.84,1114.54 1743.8,1115.06 1756.75,1115.57 1769.71,1116.08 1782.67,1116.56 1795.62,1117.05 1808.58,1117.52 1821.54,1117.99 1834.49,1118.45 1847.45,1118.9 1860.41,1119.34 1873.36,1119.77 1886.32,1120.2 1899.28,1120.62 1912.23,1121.03 1925.19,1121.43 1938.15,1121.83 1951.1,1122.22 1964.06,1122.6 1977.02,1122.98 1989.97,1123.35 2002.93,1123.71 2015.88,1124.07 2028.84,1124.42 2041.8,1124.77 2054.75,1125.1 2067.71,1125.44 2080.67,1125.77 2093.62,1126.09 2106.58,1126.41 2119.54,1126.72 2132.49,1127.02 2145.45,1127.32 2158.41,1127.62 2171.36,1127.91 2184.32,1128.2 2197.28,1128.48 2210.23,1128.76 2223.19,1129.03 2236.15,1129.3 2249.1,1129.57 2262.06,1129.83 2275.02,1130.08 2287.97,1130.34 2300.93,1130.59 2313.89,1130.83 2326.84,1131.07 2339.8,1131.31 2352.76,1131.54 "/>
<polyline clip-path="url(#clip752)" style="stroke:#c271d2; stroke-linecap:round; stroke-linejoin:round; stroke-width:4; stroke-opacity:1; fill:none" points="292.66,-4520.08 305.617,740.134 318.574,816.478 331.53,849.567 344.487,868.825 357.443,882.31 370.4,892.78 383.357,901.488 396.313,909.08 409.27,915.917 422.226,922.215 435.183,928.107 448.139,933.684 461.096,939.008 474.053,944.127 487.009,949.078 499.966,953.888 512.922,958.577 525.879,963.158 538.835,967.641 551.792,972.032 564.749,976.336 577.705,980.555 590.662,984.691 603.618,988.746 616.575,992.722 629.531,996.617 642.488,1000.43 655.445,1004.15 668.401,1007.8 681.358,1011.39 694.314,1014.92 707.271,1018.37 720.227,1021.76 733.184,1025.08 746.141,1028.33 759.097,1031.52 772.054,1034.64 785.01,1037.7 797.967,1040.69 810.923,1043.63 823.88,1046.51 836.837,1049.33 849.793,1052.09 862.75,1054.8 875.706,1057.45 888.663,1060.05 901.62,1062.62 914.576,1065.09 927.533,1067.54 940.489,1069.93 953.446,1072.29 966.402,1074.59 979.359,1076.85 992.316,1079.06 1005.27,1081.23 1018.23,1083.36 1031.19,1085.45 1044.14,1087.49 1057.1,1089.5 1070.05,1091.47 1083.01,1093.4 1095.97,1095.29 1108.92,1097.14 1121.88,1098.96 1134.84,1100.75 1147.79,1102.5 1160.75,1104.21 1173.71,1105.9 1186.66,1107.55 1199.62,1109.17 1212.58,1110.77 1225.53,1112.33 1238.49,1113.86 1251.45,1115.37 1264.4,1116.85 1277.36,1118.3 1290.32,1119.72 1303.27,1121.12 1316.23,1122.49 1329.19,1123.83 1342.14,1125.16 1355.1,1126.45 1368.06,1127.73 1381.01,1128.98 1393.97,1130.21 1406.93,1131.41 1419.88,1132.6 1432.84,1133.76 1445.8,1134.91 1458.75,1136.03 1471.71,1137.14 1484.67,1138.23 1497.62,1139.29 1510.58,1140.34 1523.54,1141.37 1536.49,1142.38 1549.45,1143.37 1562.4,1144.35 1575.36,1145.31 1588.32,1146.25 1601.27,1147.18 1614.23,1148.09 1627.19,1148.99 1640.14,1149.87 1653.1,1150.73 1666.06,1151.59 1679.01,1152.43 1691.97,1153.25 1704.93,1154.06 1717.88,1154.86 1730.84,1155.64 1743.8,1156.42 1756.75,1157.17 1769.71,1157.92 1782.67,1158.66 1795.62,1159.38 1808.58,1160.09 1821.54,1160.79 1834.49,1161.48 1847.45,1162.16 1860.41,1162.83 1873.36,1163.49 1886.32,1164.13 1899.28,1164.77 1912.23,1165.4 1925.19,1166.02 1938.15,1166.63 1951.1,1167.22 1964.06,1167.81 1977.02,1168.4 1989.97,1168.97 2002.93,1169.53 2015.88,1170.09 2028.84,1170.63 2041.8,1171.17 2054.75,1171.7 2067.71,1172.22 2080.67,1172.74 2093.62,1173.25 2106.58,1173.75 2119.54,1174.24 2132.49,1174.72 2145.45,1175.2 2158.41,1175.67 2171.36,1176.14 2184.32,1176.59 2197.28,1177.04 2210.23,1177.49 2223.19,1177.92 2236.15,1178.35 2249.1,1178.78 2262.06,1179.2 2275.02,1179.61 2287.97,1180.02 2300.93,1180.42 2313.89,1180.82 2326.84,1181.21 2339.8,1181.59 2352.76,1181.97 "/>
<polyline clip-path="url(#clip752)" style="stroke:#ac8d18; stroke-linecap:round; stroke-linejoin:round; stroke-width:4; stroke-opacity:1; fill:none" points="292.66,-4539.3 305.617,733.538 318.574,810.851 331.53,844.277 344.487,863.946 357.443,877.913 370.4,888.906 383.357,898.174 396.313,906.363 409.27,913.834 422.226,920.8 435.183,927.392 448.139,933.695 461.096,939.767 474.053,945.65 487.009,951.376 499.966,956.968 512.922,962.445 525.879,967.82 538.835,973.101 551.792,978.294 564.749,983.404 577.705,988.433 590.662,993.384 603.618,998.256 616.575,1003.05 629.531,1007.75 642.488,1012.35 655.445,1016.89 668.401,1021.39 681.358,1025.82 694.314,1030.19 707.271,1034.48 720.227,1038.7 733.184,1042.85 746.141,1046.93 759.097,1050.94 772.054,1054.89 785.01,1058.77 797.967,1062.58 810.923,1066.33 823.88,1070.02 836.837,1073.65 849.793,1077.21 862.75,1080.72 875.706,1084.16 888.663,1087.54 901.62,1090.88 914.576,1094.16 927.533,1097.38 940.489,1100.55 953.446,1103.67 966.402,1106.73 979.359,1109.75 992.316,1112.72 1005.27,1115.63 1018.23,1118.5 1031.19,1121.33 1044.14,1124.1 1057.1,1126.84 1070.05,1129.53 1083.01,1132.17 1095.97,1134.77 1108.92,1137.34 1121.88,1139.86 1134.84,1142.34 1147.79,1144.78 1160.75,1147.19 1173.71,1149.55 1186.66,1151.88 1199.62,1154.18 1212.58,1156.43 1225.53,1158.66 1238.49,1160.85 1251.45,1163 1264.4,1165.12 1277.36,1167.21 1290.32,1169.27 1303.27,1171.3 1316.23,1173.3 1329.19,1175.26 1342.14,1177.2 1355.1,1179.11 1368.06,1180.99 1381.01,1182.85 1393.97,1184.67 1406.93,1186.48 1419.88,1188.25 1432.84,1190 1445.8,1191.72 1458.75,1193.42 1471.71,1195.1 1484.67,1196.75 1497.62,1198.37 1510.58,1199.98 1523.54,1201.56 1536.49,1203.12 1549.45,1204.65 1562.4,1206.17 1575.36,1207.66 1588.32,1209.13 1601.27,1210.59 1614.23,1212.02 1627.19,1213.43 1640.14,1214.83 1653.1,1216.21 1666.06,1217.56 1679.01,1218.9 1691.97,1220.23 1704.93,1221.53 1717.88,1222.82 1730.84,1224.09 1743.8,1225.35 1756.75,1226.58 1769.71,1227.81 1782.67,1229.01 1795.62,1230.21 1808.58,1231.38 1821.54,1232.54 1834.49,1233.69 1847.45,1234.82 1860.41,1235.94 1873.36,1237.04 1886.32,1238.13 1899.28,1239.2 1912.23,1240.27 1925.19,1241.31 1938.15,1242.35 1951.1,1243.37 1964.06,1244.38 1977.02,1245.38 1989.97,1246.37 2002.93,1247.35 2015.88,1248.31 2028.84,1249.27 2041.8,1250.21 2054.75,1251.14 2067.71,1252.06 2080.67,1252.97 2093.62,1253.87 2106.58,1254.76 2119.54,1255.64 2132.49,1256.51 2145.45,1257.37 2158.41,1258.21 2171.36,1259.05 2184.32,1259.88 2197.28,1260.71 2210.23,1261.52 2223.19,1262.32 2236.15,1263.11 2249.1,1263.9 2262.06,1264.68 2275.02,1265.44 2287.97,1266.2 2300.93,1266.95 2313.89,1267.7 2326.84,1268.43 2339.8,1269.16 2352.76,1269.88 "/>
<path clip-path="url(#clip750)" d="M1778.76 403.066 L2283.65 403.066 L2283.65 92.0261 L1778.76 92.0261  Z" fill="#ffffff" fill-rule="evenodd" fill-opacity="1"/>
<polyline clip-path="url(#clip750)" style="stroke:#000000; stroke-linecap:round; stroke-linejoin:round; stroke-width:4; stroke-opacity:1; fill:none" points="1778.76,403.066 2283.65,403.066 2283.65,92.0261 1778.76,92.0261 1778.76,403.066 "/>
<polyline clip-path="url(#clip750)" style="stroke:#009af9; stroke-linecap:round; stroke-linejoin:round; stroke-width:4; stroke-opacity:1; fill:none" points="1801.79,143.866 1940,143.866 "/>
<path clip-path="url(#clip750)" d="M1978.86 131.193 L1972.52 148.392 L1985.23 148.392 L1978.86 131.193 M1976.22 126.586 L1981.52 126.586 L1994.7 161.146 L1989.83 161.146 L1986.69 152.28 L1971.11 152.28 L1967.96 161.146 L1963.03 161.146 L1976.22 126.586 Z" fill="#000000" fill-rule="nonzero" fill-opacity="1" /><path clip-path="url(#clip750)" d="M2016.13 144.942 Q2017.64 145.452 2019.05 147.118 Q2020.48 148.785 2021.92 151.702 L2026.66 161.146 L2021.64 161.146 L2017.22 152.28 Q2015.51 148.808 2013.89 147.674 Q2012.29 146.54 2009.51 146.54 L2004.42 146.54 L2004.42 161.146 L1999.74 161.146 L1999.74 126.586 L2010.3 126.586 Q2016.22 126.586 2019.14 129.063 Q2022.06 131.54 2022.06 136.54 Q2022.06 139.804 2020.53 141.956 Q2019.02 144.109 2016.13 144.942 M2004.42 130.429 L2004.42 142.697 L2010.3 142.697 Q2013.68 142.697 2015.39 141.146 Q2017.13 139.572 2017.13 136.54 Q2017.13 133.507 2015.39 131.98 Q2013.68 130.429 2010.3 130.429 L2004.42 130.429 Z" fill="#000000" fill-rule="nonzero" fill-opacity="1" /><path clip-path="url(#clip750)" d="M2048.12 139.618 L2077.8 139.618 L2077.8 143.507 L2048.12 143.507 L2048.12 139.618 M2048.12 149.063 L2077.8 149.063 L2077.8 152.998 L2048.12 152.998 L2048.12 149.063 Z" fill="#000000" fill-rule="nonzero" fill-opacity="1" /><path clip-path="url(#clip750)" d="M2115.81 130.66 L2104 149.109 L2115.81 149.109 L2115.81 130.66 M2114.58 126.586 L2120.46 126.586 L2120.46 149.109 L2125.39 149.109 L2125.39 152.998 L2120.46 152.998 L2120.46 161.146 L2115.81 161.146 L2115.81 152.998 L2100.2 152.998 L2100.2 148.484 L2114.58 126.586 Z" fill="#000000" fill-rule="nonzero" fill-opacity="1" /><path clip-path="url(#clip750)" d="M2133.12 155.267 L2138.01 155.267 L2138.01 161.146 L2133.12 161.146 L2133.12 155.267 Z" fill="#000000" fill-rule="nonzero" fill-opacity="1" /><path clip-path="url(#clip750)" d="M2158.19 129.665 Q2154.58 129.665 2152.75 133.23 Q2150.94 136.771 2150.94 143.901 Q2150.94 151.007 2152.75 154.572 Q2154.58 158.114 2158.19 158.114 Q2161.82 158.114 2163.63 154.572 Q2165.46 151.007 2165.46 143.901 Q2165.46 136.771 2163.63 133.23 Q2161.82 129.665 2158.19 129.665 M2158.19 125.961 Q2164 125.961 2167.06 130.568 Q2170.13 135.151 2170.13 143.901 Q2170.13 152.628 2167.06 157.234 Q2164 161.817 2158.19 161.817 Q2152.38 161.817 2149.3 157.234 Q2146.25 152.628 2146.25 143.901 Q2146.25 135.151 2149.3 130.568 Q2152.38 125.961 2158.19 125.961 Z" fill="#000000" fill-rule="nonzero" fill-opacity="1" /><polyline clip-path="url(#clip750)" style="stroke:#e26f46; stroke-linecap:round; stroke-linejoin:round; stroke-width:4; stroke-opacity:1; fill:none" points="1801.79,195.706 1940,195.706 "/>
<path clip-path="url(#clip750)" d="M1978.86 183.033 L1972.52 200.232 L1985.23 200.232 L1978.86 183.033 M1976.22 178.426 L1981.52 178.426 L1994.7 212.986 L1989.83 212.986 L1986.69 204.12 L1971.11 204.12 L1967.96 212.986 L1963.03 212.986 L1976.22 178.426 Z" fill="#000000" fill-rule="nonzero" fill-opacity="1" /><path clip-path="url(#clip750)" d="M2016.13 196.782 Q2017.64 197.292 2019.05 198.958 Q2020.48 200.625 2021.92 203.542 L2026.66 212.986 L2021.64 212.986 L2017.22 204.12 Q2015.51 200.648 2013.89 199.514 Q2012.29 198.38 2009.51 198.38 L2004.42 198.38 L2004.42 212.986 L1999.74 212.986 L1999.74 178.426 L2010.3 178.426 Q2016.22 178.426 2019.14 180.903 Q2022.06 183.38 2022.06 188.38 Q2022.06 191.644 2020.53 193.796 Q2019.02 195.949 2016.13 196.782 M2004.42 182.269 L2004.42 194.537 L2010.3 194.537 Q2013.68 194.537 2015.39 192.986 Q2017.13 191.412 2017.13 188.38 Q2017.13 185.347 2015.39 183.82 Q2013.68 182.269 2010.3 182.269 L2004.42 182.269 Z" fill="#000000" fill-rule="nonzero" fill-opacity="1" /><path clip-path="url(#clip750)" d="M2048.12 191.458 L2077.8 191.458 L2077.8 195.347 L2048.12 195.347 L2048.12 191.458 M2048.12 200.903 L2077.8 200.903 L2077.8 204.838 L2048.12 204.838 L2048.12 200.903 Z" fill="#000000" fill-rule="nonzero" fill-opacity="1" /><path clip-path="url(#clip750)" d="M2112.96 196.574 Q2109.63 196.574 2107.7 198.357 Q2105.81 200.139 2105.81 203.264 Q2105.81 206.389 2107.7 208.171 Q2109.63 209.954 2112.96 209.954 Q2116.29 209.954 2118.21 208.171 Q2120.13 206.366 2120.13 203.264 Q2120.13 200.139 2118.21 198.357 Q2116.32 196.574 2112.96 196.574 M2108.28 194.583 Q2105.27 193.843 2103.58 191.783 Q2101.92 189.722 2101.92 186.759 Q2101.92 182.616 2104.86 180.208 Q2107.82 177.801 2112.96 177.801 Q2118.12 177.801 2121.06 180.208 Q2124 182.616 2124 186.759 Q2124 189.722 2122.31 191.783 Q2120.64 193.843 2117.66 194.583 Q2121.04 195.37 2122.91 197.662 Q2124.81 199.954 2124.81 203.264 Q2124.81 208.287 2121.73 210.972 Q2118.68 213.657 2112.96 213.657 Q2107.24 213.657 2104.16 210.972 Q2101.11 208.287 2101.11 203.264 Q2101.11 199.954 2103.01 197.662 Q2104.9 195.37 2108.28 194.583 M2106.57 187.199 Q2106.57 189.884 2108.24 191.389 Q2109.93 192.894 2112.96 192.894 Q2115.97 192.894 2117.66 191.389 Q2119.37 189.884 2119.37 187.199 Q2119.37 184.514 2117.66 183.009 Q2115.97 181.505 2112.96 181.505 Q2109.93 181.505 2108.24 183.009 Q2106.57 184.514 2106.57 187.199 Z" fill="#000000" fill-rule="nonzero" fill-opacity="1" /><path clip-path="url(#clip750)" d="M2133.12 207.107 L2138.01 207.107 L2138.01 212.986 L2133.12 212.986 L2133.12 207.107 Z" fill="#000000" fill-rule="nonzero" fill-opacity="1" /><path clip-path="url(#clip750)" d="M2158.19 181.505 Q2154.58 181.505 2152.75 185.07 Q2150.94 188.611 2150.94 195.741 Q2150.94 202.847 2152.75 206.412 Q2154.58 209.954 2158.19 209.954 Q2161.82 209.954 2163.63 206.412 Q2165.46 202.847 2165.46 195.741 Q2165.46 188.611 2163.63 185.07 Q2161.82 181.505 2158.19 181.505 M2158.19 177.801 Q2164 177.801 2167.06 182.408 Q2170.13 186.991 2170.13 195.741 Q2170.13 204.468 2167.06 209.074 Q2164 213.657 2158.19 213.657 Q2152.38 213.657 2149.3 209.074 Q2146.25 204.468 2146.25 195.741 Q2146.25 186.991 2149.3 182.408 Q2152.38 177.801 2158.19 177.801 Z" fill="#000000" fill-rule="nonzero" fill-opacity="1" /><polyline clip-path="url(#clip750)" style="stroke:#3da44d; stroke-linecap:round; stroke-linejoin:round; stroke-width:4; stroke-opacity:1; fill:none" points="1801.79,247.546 1940,247.546 "/>
<path clip-path="url(#clip750)" d="M1978.86 234.873 L1972.52 252.072 L1985.23 252.072 L1978.86 234.873 M1976.22 230.266 L1981.52 230.266 L1994.7 264.826 L1989.83 264.826 L1986.69 255.96 L1971.11 255.96 L1967.96 264.826 L1963.03 264.826 L1976.22 230.266 Z" fill="#000000" fill-rule="nonzero" fill-opacity="1" /><path clip-path="url(#clip750)" d="M2016.13 248.622 Q2017.64 249.132 2019.05 250.798 Q2020.48 252.465 2021.92 255.382 L2026.66 264.826 L2021.64 264.826 L2017.22 255.96 Q2015.51 252.488 2013.89 251.354 Q2012.29 250.22 2009.51 250.22 L2004.42 250.22 L2004.42 264.826 L1999.74 264.826 L1999.74 230.266 L2010.3 230.266 Q2016.22 230.266 2019.14 232.743 Q2022.06 235.22 2022.06 240.22 Q2022.06 243.484 2020.53 245.636 Q2019.02 247.789 2016.13 248.622 M2004.42 234.109 L2004.42 246.377 L2010.3 246.377 Q2013.68 246.377 2015.39 244.826 Q2017.13 243.252 2017.13 240.22 Q2017.13 237.187 2015.39 235.66 Q2013.68 234.109 2010.3 234.109 L2004.42 234.109 Z" fill="#000000" fill-rule="nonzero" fill-opacity="1" /><path clip-path="url(#clip750)" d="M2048.12 243.298 L2077.8 243.298 L2077.8 247.187 L2048.12 247.187 L2048.12 243.298 M2048.12 252.743 L2077.8 252.743 L2077.8 256.678 L2048.12 256.678 L2048.12 252.743 Z" fill="#000000" fill-rule="nonzero" fill-opacity="1" /><path clip-path="url(#clip750)" d="M2103.77 260.891 L2111.41 260.891 L2111.41 234.525 L2103.1 236.192 L2103.1 231.933 L2111.36 230.266 L2116.04 230.266 L2116.04 260.891 L2123.68 260.891 L2123.68 264.826 L2103.77 264.826 L2103.77 260.891 Z" fill="#000000" fill-rule="nonzero" fill-opacity="1" /><path clip-path="url(#clip750)" d="M2137.15 260.891 L2153.47 260.891 L2153.47 264.826 L2131.52 264.826 L2131.52 260.891 Q2134.19 258.136 2138.77 253.507 Q2143.38 248.854 2144.56 247.511 Q2146.8 244.988 2147.68 243.252 Q2148.58 241.493 2148.58 239.803 Q2148.58 237.048 2146.64 235.312 Q2144.72 233.576 2141.62 233.576 Q2139.42 233.576 2136.96 234.34 Q2134.53 235.104 2131.76 236.655 L2131.76 231.933 Q2134.58 230.799 2137.03 230.22 Q2139.49 229.641 2141.52 229.641 Q2146.89 229.641 2150.09 232.326 Q2153.28 235.011 2153.28 239.502 Q2153.28 241.632 2152.47 243.553 Q2151.69 245.451 2149.58 248.044 Q2149 248.715 2145.9 251.933 Q2142.8 255.127 2137.15 260.891 Z" fill="#000000" fill-rule="nonzero" fill-opacity="1" /><path clip-path="url(#clip750)" d="M2163.28 258.947 L2168.17 258.947 L2168.17 264.826 L2163.28 264.826 L2163.28 258.947 Z" fill="#000000" fill-rule="nonzero" fill-opacity="1" /><path clip-path="url(#clip750)" d="M2188.35 233.345 Q2184.74 233.345 2182.91 236.91 Q2181.11 240.451 2181.11 247.581 Q2181.11 254.687 2182.91 258.252 Q2184.74 261.794 2188.35 261.794 Q2191.99 261.794 2193.79 258.252 Q2195.62 254.687 2195.62 247.581 Q2195.62 240.451 2193.79 236.91 Q2191.99 233.345 2188.35 233.345 M2188.35 229.641 Q2194.16 229.641 2197.22 234.248 Q2200.3 238.831 2200.3 247.581 Q2200.3 256.308 2197.22 260.914 Q2194.16 265.497 2188.35 265.497 Q2182.54 265.497 2179.46 260.914 Q2176.41 256.308 2176.41 247.581 Q2176.41 238.831 2179.46 234.248 Q2182.54 229.641 2188.35 229.641 Z" fill="#000000" fill-rule="nonzero" fill-opacity="1" /><polyline clip-path="url(#clip750)" style="stroke:#c271d2; stroke-linecap:round; stroke-linejoin:round; stroke-width:4; stroke-opacity:1; fill:none" points="1801.79,299.386 1940,299.386 "/>
<path clip-path="url(#clip750)" d="M1978.86 286.713 L1972.52 303.912 L1985.23 303.912 L1978.86 286.713 M1976.22 282.106 L1981.52 282.106 L1994.7 316.666 L1989.83 316.666 L1986.69 307.8 L1971.11 307.8 L1967.96 316.666 L1963.03 316.666 L1976.22 282.106 Z" fill="#000000" fill-rule="nonzero" fill-opacity="1" /><path clip-path="url(#clip750)" d="M2016.13 300.462 Q2017.64 300.972 2019.05 302.638 Q2020.48 304.305 2021.92 307.222 L2026.66 316.666 L2021.64 316.666 L2017.22 307.8 Q2015.51 304.328 2013.89 303.194 Q2012.29 302.06 2009.51 302.06 L2004.42 302.06 L2004.42 316.666 L1999.74 316.666 L1999.74 282.106 L2010.3 282.106 Q2016.22 282.106 2019.14 284.583 Q2022.06 287.06 2022.06 292.06 Q2022.06 295.324 2020.53 297.476 Q2019.02 299.629 2016.13 300.462 M2004.42 285.949 L2004.42 298.217 L2010.3 298.217 Q2013.68 298.217 2015.39 296.666 Q2017.13 295.092 2017.13 292.06 Q2017.13 289.027 2015.39 287.5 Q2013.68 285.949 2010.3 285.949 L2004.42 285.949 Z" fill="#000000" fill-rule="nonzero" fill-opacity="1" /><path clip-path="url(#clip750)" d="M2048.12 295.138 L2077.8 295.138 L2077.8 299.027 L2048.12 299.027 L2048.12 295.138 M2048.12 304.583 L2077.8 304.583 L2077.8 308.518 L2048.12 308.518 L2048.12 304.583 Z" fill="#000000" fill-rule="nonzero" fill-opacity="1" /><path clip-path="url(#clip750)" d="M2106.99 312.731 L2123.31 312.731 L2123.31 316.666 L2101.36 316.666 L2101.36 312.731 Q2104.02 309.976 2108.61 305.347 Q2113.21 300.694 2114.39 299.351 Q2116.64 296.828 2117.52 295.092 Q2118.42 293.333 2118.42 291.643 Q2118.42 288.888 2116.48 287.152 Q2114.56 285.416 2111.45 285.416 Q2109.26 285.416 2106.8 286.18 Q2104.37 286.944 2101.59 288.495 L2101.59 283.773 Q2104.42 282.639 2106.87 282.06 Q2109.32 281.481 2111.36 281.481 Q2116.73 281.481 2119.93 284.166 Q2123.12 286.851 2123.12 291.342 Q2123.12 293.472 2122.31 295.393 Q2121.52 297.291 2119.42 299.884 Q2118.84 300.555 2115.74 303.773 Q2112.63 306.967 2106.99 312.731 Z" fill="#000000" fill-rule="nonzero" fill-opacity="1" /><path clip-path="url(#clip750)" d="M2143.12 285.185 Q2139.51 285.185 2137.68 288.75 Q2135.88 292.291 2135.88 299.421 Q2135.88 306.527 2137.68 310.092 Q2139.51 313.634 2143.12 313.634 Q2146.76 313.634 2148.56 310.092 Q2150.39 306.527 2150.39 299.421 Q2150.39 292.291 2148.56 288.75 Q2146.76 285.185 2143.12 285.185 M2143.12 281.481 Q2148.93 281.481 2151.99 286.088 Q2155.07 290.671 2155.07 299.421 Q2155.07 308.148 2151.99 312.754 Q2148.93 317.337 2143.12 317.337 Q2137.31 317.337 2134.23 312.754 Q2131.18 308.148 2131.18 299.421 Q2131.18 290.671 2134.23 286.088 Q2137.31 281.481 2143.12 281.481 Z" fill="#000000" fill-rule="nonzero" fill-opacity="1" /><path clip-path="url(#clip750)" d="M2163.28 310.787 L2168.17 310.787 L2168.17 316.666 L2163.28 316.666 L2163.28 310.787 Z" fill="#000000" fill-rule="nonzero" fill-opacity="1" /><path clip-path="url(#clip750)" d="M2188.35 285.185 Q2184.74 285.185 2182.91 288.75 Q2181.11 292.291 2181.11 299.421 Q2181.11 306.527 2182.91 310.092 Q2184.74 313.634 2188.35 313.634 Q2191.99 313.634 2193.79 310.092 Q2195.62 306.527 2195.62 299.421 Q2195.62 292.291 2193.79 288.75 Q2191.99 285.185 2188.35 285.185 M2188.35 281.481 Q2194.16 281.481 2197.22 286.088 Q2200.3 290.671 2200.3 299.421 Q2200.3 308.148 2197.22 312.754 Q2194.16 317.337 2188.35 317.337 Q2182.54 317.337 2179.46 312.754 Q2176.41 308.148 2176.41 299.421 Q2176.41 290.671 2179.46 286.088 Q2182.54 281.481 2188.35 281.481 Z" fill="#000000" fill-rule="nonzero" fill-opacity="1" /><polyline clip-path="url(#clip750)" style="stroke:#ac8d18; stroke-linecap:round; stroke-linejoin:round; stroke-width:4; stroke-opacity:1; fill:none" points="1801.79,351.226 1940,351.226 "/>
<path clip-path="url(#clip750)" d="M1978.86 338.553 L1972.52 355.752 L1985.23 355.752 L1978.86 338.553 M1976.22 333.946 L1981.52 333.946 L1994.7 368.506 L1989.83 368.506 L1986.69 359.64 L1971.11 359.64 L1967.96 368.506 L1963.03 368.506 L1976.22 333.946 Z" fill="#000000" fill-rule="nonzero" fill-opacity="1" /><path clip-path="url(#clip750)" d="M2016.13 352.302 Q2017.64 352.812 2019.05 354.478 Q2020.48 356.145 2021.92 359.062 L2026.66 368.506 L2021.64 368.506 L2017.22 359.64 Q2015.51 356.168 2013.89 355.034 Q2012.29 353.9 2009.51 353.9 L2004.42 353.9 L2004.42 368.506 L1999.74 368.506 L1999.74 333.946 L2010.3 333.946 Q2016.22 333.946 2019.14 336.423 Q2022.06 338.9 2022.06 343.9 Q2022.06 347.164 2020.53 349.316 Q2019.02 351.469 2016.13 352.302 M2004.42 337.789 L2004.42 350.057 L2010.3 350.057 Q2013.68 350.057 2015.39 348.506 Q2017.13 346.932 2017.13 343.9 Q2017.13 340.867 2015.39 339.34 Q2013.68 337.789 2010.3 337.789 L2004.42 337.789 Z" fill="#000000" fill-rule="nonzero" fill-opacity="1" /><path clip-path="url(#clip750)" d="M2048.12 346.978 L2077.8 346.978 L2077.8 350.867 L2048.12 350.867 L2048.12 346.978 M2048.12 356.423 L2077.8 356.423 L2077.8 360.358 L2048.12 360.358 L2048.12 356.423 Z" fill="#000000" fill-rule="nonzero" fill-opacity="1" /><path clip-path="url(#clip750)" d="M2103.77 364.571 L2111.41 364.571 L2111.41 338.205 L2103.1 339.872 L2103.1 335.613 L2111.36 333.946 L2116.04 333.946 L2116.04 364.571 L2123.68 364.571 L2123.68 368.506 L2103.77 368.506 L2103.77 364.571 Z" fill="#000000" fill-rule="nonzero" fill-opacity="1" /><path clip-path="url(#clip750)" d="M2143.12 337.025 Q2139.51 337.025 2137.68 340.59 Q2135.88 344.131 2135.88 351.261 Q2135.88 358.367 2137.68 361.932 Q2139.51 365.474 2143.12 365.474 Q2146.76 365.474 2148.56 361.932 Q2150.39 358.367 2150.39 351.261 Q2150.39 344.131 2148.56 340.59 Q2146.76 337.025 2143.12 337.025 M2143.12 333.321 Q2148.93 333.321 2151.99 337.928 Q2155.07 342.511 2155.07 351.261 Q2155.07 359.988 2151.99 364.594 Q2148.93 369.177 2143.12 369.177 Q2137.31 369.177 2134.23 364.594 Q2131.18 359.988 2131.18 351.261 Q2131.18 342.511 2134.23 337.928 Q2137.31 333.321 2143.12 333.321 Z" fill="#000000" fill-rule="nonzero" fill-opacity="1" /><path clip-path="url(#clip750)" d="M2173.28 337.025 Q2169.67 337.025 2167.84 340.59 Q2166.04 344.131 2166.04 351.261 Q2166.04 358.367 2167.84 361.932 Q2169.67 365.474 2173.28 365.474 Q2176.92 365.474 2178.72 361.932 Q2180.55 358.367 2180.55 351.261 Q2180.55 344.131 2178.72 340.59 Q2176.92 337.025 2173.28 337.025 M2173.28 333.321 Q2179.09 333.321 2182.15 337.928 Q2185.23 342.511 2185.23 351.261 Q2185.23 359.988 2182.15 364.594 Q2179.09 369.177 2173.28 369.177 Q2167.47 369.177 2164.39 364.594 Q2161.34 359.988 2161.34 351.261 Q2161.34 342.511 2164.39 337.928 Q2167.47 333.321 2173.28 333.321 Z" fill="#000000" fill-rule="nonzero" fill-opacity="1" /><path clip-path="url(#clip750)" d="M2203.44 337.025 Q2199.83 337.025 2198 340.59 Q2196.2 344.131 2196.2 351.261 Q2196.2 358.367 2198 361.932 Q2199.83 365.474 2203.44 365.474 Q2207.08 365.474 2208.88 361.932 Q2210.71 358.367 2210.71 351.261 Q2210.71 344.131 2208.88 340.59 Q2207.08 337.025 2203.44 337.025 M2203.44 333.321 Q2209.25 333.321 2212.31 337.928 Q2215.39 342.511 2215.39 351.261 Q2215.39 359.988 2212.31 364.594 Q2209.25 369.177 2203.44 369.177 Q2197.63 369.177 2194.56 364.594 Q2191.5 359.988 2191.5 351.261 Q2191.5 342.511 2194.56 337.928 Q2197.63 333.321 2203.44 333.321 Z" fill="#000000" fill-rule="nonzero" fill-opacity="1" /><path clip-path="url(#clip750)" d="M2223.61 362.627 L2228.49 362.627 L2228.49 368.506 L2223.61 368.506 L2223.61 362.627 Z" fill="#000000" fill-rule="nonzero" fill-opacity="1" /><path clip-path="url(#clip750)" d="M2248.68 337.025 Q2245.06 337.025 2243.24 340.59 Q2241.43 344.131 2241.43 351.261 Q2241.43 358.367 2243.24 361.932 Q2245.06 365.474 2248.68 365.474 Q2252.31 365.474 2254.12 361.932 Q2255.94 358.367 2255.94 351.261 Q2255.94 344.131 2254.12 340.59 Q2252.31 337.025 2248.68 337.025 M2248.68 333.321 Q2254.49 333.321 2257.54 337.928 Q2260.62 342.511 2260.62 351.261 Q2260.62 359.988 2257.54 364.594 Q2254.49 369.177 2248.68 369.177 Q2242.87 369.177 2239.79 364.594 Q2236.73 359.988 2236.73 351.261 Q2236.73 342.511 2239.79 337.928 Q2242.87 333.321 2248.68 333.321 Z" fill="#000000" fill-rule="nonzero" fill-opacity="1" /></svg>
