<?xml version="1.0" encoding="utf-8"?>
<svg xmlns="http://www.w3.org/2000/svg" xmlns:xlink="http://www.w3.org/1999/xlink" width="600" height="400" viewBox="0 0 2400 1600">
<defs>
  <clipPath id="clip660">
    <rect x="0" y="0" width="2400" height="1600"/>
  </clipPath>
</defs>
<path clip-path="url(#clip660)" d="M0 1600 L2400 1600 L2400 0 L0 0  Z" fill="#ffffff" fill-rule="evenodd" fill-opacity="1"/>
<defs>
  <clipPath id="clip661">
    <rect x="480" y="0" width="1681" height="1600"/>
  </clipPath>
</defs>
<path clip-path="url(#clip660)" d="M219.866 1390.7 L2352.76 1390.7 L2352.76 47.2441 L219.866 47.2441  Z" fill="#ffffff" fill-rule="evenodd" fill-opacity="1"/>
<defs>
  <clipPath id="clip662">
    <rect x="219" y="47" width="2134" height="1344"/>
  </clipPath>
</defs>
<polyline clip-path="url(#clip660)" style="stroke:#000000; stroke-linecap:round; stroke-linejoin:round; stroke-width:4; stroke-opacity:1; fill:none" points="219.866,1390.7 2352.76,1390.7 "/>
<polyline clip-path="url(#clip660)" style="stroke:#000000; stroke-linecap:round; stroke-linejoin:round; stroke-width:4; stroke-opacity:1; fill:none" points="219.866,1390.7 219.866,1371.81 "/>
<polyline clip-path="url(#clip660)" style="stroke:#000000; stroke-linecap:round; stroke-linejoin:round; stroke-width:4; stroke-opacity:1; fill:none" points="433.155,1390.7 433.155,1371.81 "/>
<polyline clip-path="url(#clip660)" style="stroke:#000000; stroke-linecap:round; stroke-linejoin:round; stroke-width:4; stroke-opacity:1; fill:none" points="646.444,1390.7 646.444,1371.81 "/>
<polyline clip-path="url(#clip660)" style="stroke:#000000; stroke-linecap:round; stroke-linejoin:round; stroke-width:4; stroke-opacity:1; fill:none" points="859.733,1390.7 859.733,1371.81 "/>
<polyline clip-path="url(#clip660)" style="stroke:#000000; stroke-linecap:round; stroke-linejoin:round; stroke-width:4; stroke-opacity:1; fill:none" points="1073.02,1390.7 1073.02,1371.81 "/>
<polyline clip-path="url(#clip660)" style="stroke:#000000; stroke-linecap:round; stroke-linejoin:round; stroke-width:4; stroke-opacity:1; fill:none" points="1286.31,1390.7 1286.31,1371.81 "/>
<polyline clip-path="url(#clip660)" style="stroke:#000000; stroke-linecap:round; stroke-linejoin:round; stroke-width:4; stroke-opacity:1; fill:none" points="1499.6,1390.7 1499.6,1371.81 "/>
<polyline clip-path="url(#clip660)" style="stroke:#000000; stroke-linecap:round; stroke-linejoin:round; stroke-width:4; stroke-opacity:1; fill:none" points="1712.89,1390.7 1712.89,1371.81 "/>
<polyline clip-path="url(#clip660)" style="stroke:#000000; stroke-linecap:round; stroke-linejoin:round; stroke-width:4; stroke-opacity:1; fill:none" points="1926.18,1390.7 1926.18,1371.81 "/>
<polyline clip-path="url(#clip660)" style="stroke:#000000; stroke-linecap:round; stroke-linejoin:round; stroke-width:4; stroke-opacity:1; fill:none" points="2139.47,1390.7 2139.47,1371.81 "/>
<polyline clip-path="url(#clip660)" style="stroke:#000000; stroke-linecap:round; stroke-linejoin:round; stroke-width:4; stroke-opacity:1; fill:none" points="2352.76,1390.7 2352.76,1371.81 "/>
<path clip-path="url(#clip660)" d="M219.866 1421.62 Q216.255 1421.62 214.426 1425.19 Q212.621 1428.73 212.621 1435.86 Q212.621 1442.97 214.426 1446.53 Q216.255 1450.07 219.866 1450.07 Q223.501 1450.07 225.306 1446.53 Q227.135 1442.97 227.135 1435.86 Q227.135 1428.73 225.306 1425.19 Q223.501 1421.62 219.866 1421.62 M219.866 1417.92 Q225.676 1417.92 228.732 1422.53 Q231.811 1427.11 231.811 1435.86 Q231.811 1444.59 228.732 1449.19 Q225.676 1453.78 219.866 1453.78 Q214.056 1453.78 210.977 1449.19 Q207.922 1444.59 207.922 1435.86 Q207.922 1427.11 210.977 1422.53 Q214.056 1417.92 219.866 1417.92 Z" fill="#000000" fill-rule="nonzero" fill-opacity="1" /><path clip-path="url(#clip660)" d="M423.537 1449.17 L431.176 1449.17 L431.176 1422.8 L422.866 1424.47 L422.866 1420.21 L431.13 1418.54 L435.806 1418.54 L435.806 1449.17 L443.445 1449.17 L443.445 1453.1 L423.537 1453.1 L423.537 1449.17 Z" fill="#000000" fill-rule="nonzero" fill-opacity="1" /><path clip-path="url(#clip660)" d="M641.097 1449.17 L657.416 1449.17 L657.416 1453.1 L635.472 1453.1 L635.472 1449.17 Q638.134 1446.41 642.717 1441.78 Q647.324 1437.13 648.504 1435.79 Q650.75 1433.27 651.629 1431.53 Q652.532 1429.77 652.532 1428.08 Q652.532 1425.33 650.588 1423.59 Q648.666 1421.85 645.565 1421.85 Q643.366 1421.85 640.912 1422.62 Q638.481 1423.38 635.704 1424.93 L635.704 1420.21 Q638.528 1419.08 640.981 1418.5 Q643.435 1417.92 645.472 1417.92 Q650.842 1417.92 654.037 1420.6 Q657.231 1423.29 657.231 1427.78 Q657.231 1429.91 656.421 1431.83 Q655.634 1433.73 653.527 1436.32 Q652.949 1436.99 649.847 1440.21 Q646.745 1443.41 641.097 1449.17 Z" fill="#000000" fill-rule="nonzero" fill-opacity="1" /><path clip-path="url(#clip660)" d="M863.981 1434.47 Q867.337 1435.19 869.212 1437.46 Q871.11 1439.72 871.11 1443.06 Q871.11 1448.17 867.592 1450.97 Q864.073 1453.78 857.592 1453.78 Q855.416 1453.78 853.101 1453.34 Q850.81 1452.92 848.356 1452.06 L848.356 1447.55 Q850.3 1448.68 852.615 1449.26 Q854.93 1449.84 857.453 1449.84 Q861.851 1449.84 864.143 1448.1 Q866.458 1446.37 866.458 1443.06 Q866.458 1440 864.305 1438.29 Q862.175 1436.55 858.356 1436.55 L854.328 1436.55 L854.328 1432.71 L858.541 1432.71 Q861.99 1432.71 863.819 1431.35 Q865.647 1429.96 865.647 1427.36 Q865.647 1424.7 863.749 1423.29 Q861.874 1421.85 858.356 1421.85 Q856.435 1421.85 854.236 1422.27 Q852.036 1422.69 849.398 1423.57 L849.398 1419.4 Q852.06 1418.66 854.374 1418.29 Q856.712 1417.92 858.773 1417.92 Q864.097 1417.92 867.198 1420.35 Q870.3 1422.76 870.3 1426.88 Q870.3 1429.75 868.657 1431.74 Q867.013 1433.71 863.981 1434.47 Z" fill="#000000" fill-rule="nonzero" fill-opacity="1" /><path clip-path="url(#clip660)" d="M1076.03 1422.62 L1064.23 1441.07 L1076.03 1441.07 L1076.03 1422.62 M1074.8 1418.54 L1080.68 1418.54 L1080.68 1441.07 L1085.61 1441.07 L1085.61 1444.96 L1080.68 1444.96 L1080.68 1453.1 L1076.03 1453.1 L1076.03 1444.96 L1060.43 1444.96 L1060.43 1440.44 L1074.8 1418.54 Z" fill="#000000" fill-rule="nonzero" fill-opacity="1" /><path clip-path="url(#clip660)" d="M1276.59 1418.54 L1294.95 1418.54 L1294.95 1422.48 L1280.87 1422.48 L1280.87 1430.95 Q1281.89 1430.6 1282.91 1430.44 Q1283.93 1430.26 1284.95 1430.26 Q1290.73 1430.26 1294.11 1433.43 Q1297.49 1436.6 1297.49 1442.02 Q1297.49 1447.59 1294.02 1450.7 Q1290.55 1453.78 1284.23 1453.78 Q1282.05 1453.78 1279.78 1453.41 Q1277.54 1453.03 1275.13 1452.29 L1275.13 1447.59 Q1277.21 1448.73 1279.44 1449.28 Q1281.66 1449.84 1284.14 1449.84 Q1288.14 1449.84 1290.48 1447.73 Q1292.82 1445.63 1292.82 1442.02 Q1292.82 1438.41 1290.48 1436.3 Q1288.14 1434.19 1284.14 1434.19 Q1282.26 1434.19 1280.39 1434.61 Q1278.53 1435.03 1276.59 1435.91 L1276.59 1418.54 Z" fill="#000000" fill-rule="nonzero" fill-opacity="1" /><path clip-path="url(#clip660)" d="M1500.01 1433.96 Q1496.86 1433.96 1495.01 1436.11 Q1493.18 1438.27 1493.18 1442.02 Q1493.18 1445.74 1495.01 1447.92 Q1496.86 1450.07 1500.01 1450.07 Q1503.15 1450.07 1504.98 1447.92 Q1506.83 1445.74 1506.83 1442.02 Q1506.83 1438.27 1504.98 1436.11 Q1503.15 1433.96 1500.01 1433.96 M1509.29 1419.31 L1509.29 1423.57 Q1507.53 1422.73 1505.72 1422.29 Q1503.94 1421.85 1502.18 1421.85 Q1497.55 1421.85 1495.1 1424.98 Q1492.67 1428.1 1492.32 1434.42 Q1493.69 1432.41 1495.75 1431.35 Q1497.81 1430.26 1500.28 1430.26 Q1505.49 1430.26 1508.5 1433.43 Q1511.53 1436.58 1511.53 1442.02 Q1511.53 1447.34 1508.38 1450.56 Q1505.24 1453.78 1500.01 1453.78 Q1494.01 1453.78 1490.84 1449.19 Q1487.67 1444.59 1487.67 1435.86 Q1487.67 1427.66 1491.56 1422.8 Q1495.44 1417.92 1502 1417.92 Q1503.76 1417.92 1505.54 1418.27 Q1507.34 1418.61 1509.29 1419.31 Z" fill="#000000" fill-rule="nonzero" fill-opacity="1" /><path clip-path="url(#clip660)" d="M1701.78 1418.54 L1724 1418.54 L1724 1420.53 L1711.45 1453.1 L1706.57 1453.1 L1718.38 1422.48 L1701.78 1422.48 L1701.78 1418.54 Z" fill="#000000" fill-rule="nonzero" fill-opacity="1" /><path clip-path="url(#clip660)" d="M1926.18 1436.69 Q1922.84 1436.69 1920.92 1438.47 Q1919.03 1440.26 1919.03 1443.38 Q1919.03 1446.51 1920.92 1448.29 Q1922.84 1450.07 1926.18 1450.07 Q1929.51 1450.07 1931.43 1448.29 Q1933.35 1446.48 1933.35 1443.38 Q1933.35 1440.26 1931.43 1438.47 Q1929.53 1436.69 1926.18 1436.69 M1921.5 1434.7 Q1918.49 1433.96 1916.8 1431.9 Q1915.14 1429.84 1915.14 1426.88 Q1915.14 1422.73 1918.08 1420.33 Q1921.04 1417.92 1926.18 1417.92 Q1931.34 1417.92 1934.28 1420.33 Q1937.22 1422.73 1937.22 1426.88 Q1937.22 1429.84 1935.53 1431.9 Q1933.86 1433.96 1930.88 1434.7 Q1934.26 1435.49 1936.13 1437.78 Q1938.03 1440.07 1938.03 1443.38 Q1938.03 1448.41 1934.95 1451.09 Q1931.9 1453.78 1926.18 1453.78 Q1920.46 1453.78 1917.38 1451.09 Q1914.33 1448.41 1914.33 1443.38 Q1914.33 1440.07 1916.22 1437.78 Q1918.12 1435.49 1921.5 1434.7 M1919.79 1427.32 Q1919.79 1430 1921.46 1431.51 Q1923.15 1433.01 1926.18 1433.01 Q1929.19 1433.01 1930.88 1431.51 Q1932.59 1430 1932.59 1427.32 Q1932.59 1424.63 1930.88 1423.13 Q1929.19 1421.62 1926.18 1421.62 Q1923.15 1421.62 1921.46 1423.13 Q1919.79 1424.63 1919.79 1427.32 Z" fill="#000000" fill-rule="nonzero" fill-opacity="1" /><path clip-path="url(#clip660)" d="M2129.77 1452.39 L2129.77 1448.13 Q2131.53 1448.96 2133.33 1449.4 Q2135.14 1449.84 2136.87 1449.84 Q2141.5 1449.84 2143.93 1446.74 Q2146.39 1443.61 2146.74 1437.27 Q2145.39 1439.26 2143.33 1440.33 Q2141.27 1441.39 2138.77 1441.39 Q2133.59 1441.39 2130.55 1438.27 Q2127.55 1435.12 2127.55 1429.68 Q2127.55 1424.35 2130.69 1421.14 Q2133.84 1417.92 2139.07 1417.92 Q2145.07 1417.92 2148.22 1422.53 Q2151.39 1427.11 2151.39 1435.86 Q2151.39 1444.03 2147.5 1448.91 Q2143.63 1453.78 2137.08 1453.78 Q2135.32 1453.78 2133.52 1453.43 Q2131.71 1453.08 2129.77 1452.39 M2139.07 1437.73 Q2142.22 1437.73 2144.05 1435.58 Q2145.9 1433.43 2145.9 1429.68 Q2145.9 1425.95 2144.05 1423.8 Q2142.22 1421.62 2139.07 1421.62 Q2135.93 1421.62 2134.07 1423.8 Q2132.24 1425.95 2132.24 1429.68 Q2132.24 1433.43 2134.07 1435.58 Q2135.93 1437.73 2139.07 1437.73 Z" fill="#000000" fill-rule="nonzero" fill-opacity="1" /><path clip-path="url(#clip660)" d="M2327.44 1449.17 L2335.08 1449.17 L2335.08 1422.8 L2326.77 1424.47 L2326.77 1420.21 L2335.04 1418.54 L2339.71 1418.54 L2339.71 1449.17 L2347.35 1449.17 L2347.35 1453.1 L2327.44 1453.1 L2327.44 1449.17 Z" fill="#000000" fill-rule="nonzero" fill-opacity="1" /><path clip-path="url(#clip660)" d="M2366.8 1421.62 Q2363.18 1421.62 2361.36 1425.19 Q2359.55 1428.73 2359.55 1435.86 Q2359.55 1442.97 2361.36 1446.53 Q2363.18 1450.07 2366.8 1450.07 Q2370.43 1450.07 2372.23 1446.53 Q2374.06 1442.97 2374.06 1435.86 Q2374.06 1428.73 2372.23 1425.19 Q2370.43 1421.62 2366.8 1421.62 M2366.8 1417.92 Q2372.61 1417.92 2375.66 1422.53 Q2378.74 1427.11 2378.74 1435.86 Q2378.74 1444.59 2375.66 1449.19 Q2372.61 1453.78 2366.8 1453.78 Q2360.99 1453.78 2357.91 1449.19 Q2354.85 1444.59 2354.85 1435.86 Q2354.85 1427.11 2357.91 1422.53 Q2360.99 1417.92 2366.8 1417.92 Z" fill="#000000" fill-rule="nonzero" fill-opacity="1" /><path clip-path="url(#clip660)" d="M1272.03 1466.85 Q1272.03 1468.18 1270.94 1468.18 Q1269.01 1468.24 1267.69 1468.63 Q1266.37 1468.98 1265.59 1469.69 Q1264.85 1470.4 1264.43 1471.17 Q1264.05 1471.91 1263.79 1473.04 L1257.93 1496.45 Q1256.25 1503.05 1250.84 1507.85 Q1245.43 1512.62 1239.28 1512.62 Q1235.77 1512.62 1232.84 1511.17 Q1229.94 1509.72 1228.14 1506.79 Q1226.33 1503.86 1226.33 1499.96 Q1226.33 1498.09 1226.82 1496.13 L1230.81 1479.83 L1232.29 1474.04 Q1233.39 1469.75 1233.39 1469.37 Q1233.39 1468.75 1233 1468.59 Q1232.65 1468.4 1231.62 1468.3 L1229.1 1468.18 Q1228.33 1468.18 1228.01 1468.14 Q1227.72 1468.11 1227.49 1467.95 Q1227.27 1467.79 1227.27 1467.43 Q1227.27 1466.98 1227.36 1466.69 Q1227.49 1466.37 1227.72 1466.27 Q1227.94 1466.18 1228.11 1466.15 Q1228.27 1466.11 1228.52 1466.11 L1237.03 1466.31 L1245.46 1466.11 Q1246.4 1466.11 1246.4 1466.85 Q1246.4 1467.79 1245.98 1467.98 Q1245.56 1468.18 1244.14 1468.18 Q1241.73 1468.18 1240.63 1468.5 Q1239.57 1468.79 1239.25 1469.3 Q1238.96 1469.79 1238.6 1471.2 L1232.2 1496.87 Q1231.87 1498.16 1231.68 1499.45 Q1231.52 1500.7 1231.52 1501.35 L1231.49 1501.99 Q1231.49 1506.08 1233.74 1508.34 Q1236.03 1510.59 1239.54 1510.59 Q1244.69 1510.59 1249.49 1506.5 Q1254.32 1502.41 1255.96 1496 L1261.89 1472.46 Q1262.08 1471.88 1262.08 1471.07 Q1262.08 1469.79 1261.12 1469.01 Q1260.18 1468.21 1257.61 1468.18 Q1256.41 1468.18 1256.41 1467.43 Q1256.41 1466.82 1256.64 1466.53 Q1256.9 1466.21 1257.09 1466.18 Q1257.32 1466.11 1257.61 1466.11 Q1258.7 1466.11 1261.02 1466.21 Q1263.34 1466.31 1264.47 1466.31 Q1265.59 1466.31 1267.85 1466.21 Q1270.1 1466.11 1271.2 1466.11 Q1271.58 1466.11 1271.78 1466.31 Q1272 1466.47 1272.03 1466.66 L1272.03 1466.85 Z" fill="#000000" fill-rule="nonzero" fill-opacity="1" /><path clip-path="url(#clip660)" d="M1319.58 1514.77 Q1319.58 1517.52 1318.5 1519.91 Q1317.44 1522.28 1315.36 1523.77 Q1313.31 1525.25 1310.72 1525.25 Q1306.71 1525.25 1302.87 1522.05 Q1302.11 1521.4 1301.57 1520.79 Q1301.03 1520.18 1298.73 1517.39 Q1298.34 1518.04 1297.94 1518.65 Q1297.53 1519.23 1296.38 1520.56 Q1295.23 1521.89 1294.04 1522.82 Q1292.87 1523.74 1291.04 1524.51 Q1289.24 1525.25 1287.36 1525.25 Q1285.38 1525.25 1283.69 1524.35 Q1282.02 1523.43 1280.92 1521.96 Q1279.83 1520.47 1279.23 1518.63 Q1278.64 1516.75 1278.64 1514.82 Q1278.64 1512.07 1279.7 1509.7 Q1280.78 1507.31 1282.83 1505.82 Q1284.91 1504.33 1287.5 1504.33 Q1291.54 1504.33 1295.35 1507.51 Q1296.11 1508.16 1296.65 1508.77 Q1297.19 1509.38 1299.49 1512.18 Q1299.79 1511.68 1300.1 1511.23 Q1300.42 1510.76 1301.21 1509.72 Q1302 1508.68 1302.92 1507.85 Q1303.87 1507.02 1305.06 1506.16 Q1306.26 1505.3 1307.77 1504.83 Q1309.28 1504.33 1310.86 1504.33 Q1312.84 1504.33 1314.51 1505.26 Q1316.2 1506.16 1317.28 1507.65 Q1318.39 1509.11 1318.97 1510.98 Q1319.58 1512.83 1319.58 1514.77 M1318.57 1514.77 Q1318.57 1513.17 1318.09 1511.61 Q1317.62 1510.06 1316.72 1508.75 Q1315.84 1507.42 1314.39 1506.61 Q1312.95 1505.8 1311.19 1505.8 Q1309.35 1505.8 1307.63 1506.59 Q1305.94 1507.35 1304.61 1508.66 Q1303.3 1509.97 1302.4 1511.19 Q1301.5 1512.4 1300.71 1513.8 Q1301.12 1514.3 1302.85 1516.6 Q1304.61 1518.9 1305.35 1519.71 Q1308.4 1523.02 1311.46 1523.02 Q1314.39 1523.02 1316.47 1520.63 Q1318.57 1518.22 1318.57 1514.77 M1297.51 1515.78 Q1297.13 1515.31 1295.35 1513.01 Q1293.59 1510.69 1292.84 1509.88 Q1289.78 1506.54 1286.76 1506.54 Q1283.83 1506.54 1281.73 1508.95 Q1279.65 1511.37 1279.65 1514.82 Q1279.65 1516.42 1280.13 1517.97 Q1280.6 1519.53 1281.48 1520.83 Q1282.38 1522.14 1283.83 1522.95 Q1285.27 1523.77 1287.03 1523.77 Q1288.51 1523.77 1289.93 1523.22 Q1291.38 1522.68 1292.46 1521.87 Q1293.54 1521.06 1294.56 1519.93 Q1295.57 1518.81 1296.22 1517.84 Q1296.9 1516.87 1297.51 1515.78 Z" fill="#000000" fill-rule="nonzero" fill-opacity="1" /><path clip-path="url(#clip660)" d="M1346.48 1483.47 Q1346.48 1484.37 1346.06 1484.6 Q1345.65 1484.79 1344.49 1484.79 L1338.3 1484.79 L1333.41 1504.25 Q1333.02 1505.95 1333.02 1507.4 Q1333.02 1509.01 1333.5 1509.72 Q1334.02 1510.43 1335.08 1510.43 Q1337.18 1510.43 1339.43 1508.53 Q1341.72 1506.63 1343.65 1501.99 Q1343.91 1501.38 1344.04 1501.25 Q1344.2 1501.09 1344.61 1501.09 Q1345.42 1501.09 1345.42 1501.73 Q1345.42 1501.96 1344.97 1502.99 Q1344.55 1504.02 1343.62 1505.53 Q1342.71 1507.05 1341.52 1508.46 Q1340.36 1509.88 1338.59 1510.91 Q1336.82 1511.91 1334.92 1511.91 Q1332.25 1511.91 1330.54 1510.2 Q1328.87 1508.5 1328.87 1505.82 Q1328.87 1504.95 1329.54 1502.18 Q1330.22 1499.38 1333.89 1484.79 L1328.06 1484.79 Q1327.26 1484.79 1326.93 1484.76 Q1326.64 1484.73 1326.42 1484.57 Q1326.23 1484.37 1326.23 1483.99 Q1326.23 1483.38 1326.48 1483.12 Q1326.74 1482.83 1327.06 1482.8 Q1327.42 1482.73 1328.22 1482.73 L1334.41 1482.73 L1336.98 1472.27 Q1337.24 1471.23 1337.88 1470.65 Q1338.56 1470.04 1338.95 1469.98 Q1339.33 1469.88 1339.62 1469.88 Q1340.49 1469.88 1341.01 1470.37 Q1341.52 1470.82 1341.52 1471.65 Q1341.52 1472.1 1338.82 1482.73 L1344.61 1482.73 Q1345.36 1482.73 1345.65 1482.76 Q1345.97 1482.8 1346.23 1482.96 Q1346.48 1483.12 1346.48 1483.47 Z" fill="#000000" fill-rule="nonzero" fill-opacity="1" /><path clip-path="url(#clip660)" d="M1226.33 1542.85 L1353.33 1542.85 L1353.33 1539.33 L1226.33 1539.33  Z" fill="#000000" fill-rule="evenodd" fill-opacity="1"/>
<path clip-path="url(#clip660)" d="M1298.74 1578.17 Q1299 1578.46 1299 1578.75 Q1299 1579.04 1298.36 1579.88 Q1297.75 1580.72 1296.43 1581.84 Q1295.11 1582.97 1293.4 1584.03 Q1291.69 1585.1 1289.18 1585.8 Q1286.67 1586.54 1284.03 1586.54 Q1279.1 1586.54 1276.2 1583.29 Q1273.33 1580.04 1273.33 1575.37 Q1273.33 1570.83 1275.88 1566.48 Q1278.42 1562.1 1282.55 1559.4 Q1286.67 1556.66 1291.02 1556.66 Q1294.46 1556.66 1296.62 1558.27 Q1298.78 1559.88 1298.78 1562.33 Q1298.78 1564.23 1297.68 1565.39 Q1296.59 1566.54 1295.11 1566.54 Q1294.07 1566.54 1293.37 1565.97 Q1292.66 1565.35 1292.66 1564.23 Q1292.66 1562.78 1293.85 1561.65 Q1294.3 1561.2 1294.82 1561.01 Q1295.36 1560.78 1295.69 1560.78 Q1296.01 1560.75 1296.75 1560.75 Q1296.07 1559.49 1294.46 1558.82 Q1292.88 1558.11 1291.08 1558.11 Q1288.41 1558.11 1285.86 1559.97 Q1283.32 1561.81 1281.77 1564.71 Q1280.23 1567.54 1279.23 1571.57 Q1278.23 1575.56 1278.23 1577.88 Q1278.23 1581.07 1279.71 1583.07 Q1281.19 1585.06 1284.16 1585.06 Q1284.74 1585.06 1285.35 1585.03 Q1285.99 1585 1287.6 1584.64 Q1289.24 1584.29 1290.69 1583.68 Q1292.14 1583.07 1293.98 1581.75 Q1295.85 1580.39 1297.33 1578.56 Q1297.84 1577.88 1298.2 1577.88 Q1298.49 1577.88 1298.74 1578.17 Z" fill="#000000" fill-rule="nonzero" fill-opacity="1" /><polyline clip-path="url(#clip660)" style="stroke:#000000; stroke-linecap:round; stroke-linejoin:round; stroke-width:4; stroke-opacity:1; fill:none" points="219.866,1390.7 219.866,47.2441 "/>
<polyline clip-path="url(#clip660)" style="stroke:#000000; stroke-linecap:round; stroke-linejoin:round; stroke-width:4; stroke-opacity:1; fill:none" points="219.866,1390.7 238.764,1390.7 "/>
<polyline clip-path="url(#clip660)" style="stroke:#000000; stroke-linecap:round; stroke-linejoin:round; stroke-width:4; stroke-opacity:1; fill:none" points="219.866,1146.44 238.764,1146.44 "/>
<polyline clip-path="url(#clip660)" style="stroke:#000000; stroke-linecap:round; stroke-linejoin:round; stroke-width:4; stroke-opacity:1; fill:none" points="219.866,902.173 238.764,902.173 "/>
<polyline clip-path="url(#clip660)" style="stroke:#000000; stroke-linecap:round; stroke-linejoin:round; stroke-width:4; stroke-opacity:1; fill:none" points="219.866,657.908 238.764,657.908 "/>
<polyline clip-path="url(#clip660)" style="stroke:#000000; stroke-linecap:round; stroke-linejoin:round; stroke-width:4; stroke-opacity:1; fill:none" points="219.866,413.642 238.764,413.642 "/>
<polyline clip-path="url(#clip660)" style="stroke:#000000; stroke-linecap:round; stroke-linejoin:round; stroke-width:4; stroke-opacity:1; fill:none" points="219.866,169.377 238.764,169.377 "/>
<path clip-path="url(#clip660)" d="M126.691 1376.5 Q123.08 1376.5 121.251 1380.07 Q119.445 1383.61 119.445 1390.74 Q119.445 1397.85 121.251 1401.41 Q123.08 1404.95 126.691 1404.95 Q130.325 1404.95 132.13 1401.41 Q133.959 1397.85 133.959 1390.74 Q133.959 1383.61 132.13 1380.07 Q130.325 1376.5 126.691 1376.5 M126.691 1372.8 Q132.501 1372.8 135.556 1377.41 Q138.635 1381.99 138.635 1390.74 Q138.635 1399.47 135.556 1404.07 Q132.501 1408.66 126.691 1408.66 Q120.88 1408.66 117.802 1404.07 Q114.746 1399.47 114.746 1390.74 Q114.746 1381.99 117.802 1377.41 Q120.88 1372.8 126.691 1372.8 Z" fill="#000000" fill-rule="nonzero" fill-opacity="1" /><path clip-path="url(#clip660)" d="M146.853 1402.1 L151.737 1402.1 L151.737 1407.98 L146.853 1407.98 L146.853 1402.1 Z" fill="#000000" fill-rule="nonzero" fill-opacity="1" /><path clip-path="url(#clip660)" d="M171.922 1376.5 Q168.311 1376.5 166.482 1380.07 Q164.677 1383.61 164.677 1390.74 Q164.677 1397.85 166.482 1401.41 Q168.311 1404.95 171.922 1404.95 Q175.556 1404.95 177.362 1401.41 Q179.19 1397.85 179.19 1390.74 Q179.19 1383.61 177.362 1380.07 Q175.556 1376.5 171.922 1376.5 M171.922 1372.8 Q177.732 1372.8 180.788 1377.41 Q183.866 1381.99 183.866 1390.74 Q183.866 1399.47 180.788 1404.07 Q177.732 1408.66 171.922 1408.66 Q166.112 1408.66 163.033 1404.07 Q159.978 1399.47 159.978 1390.74 Q159.978 1381.99 163.033 1377.41 Q166.112 1372.8 171.922 1372.8 Z" fill="#000000" fill-rule="nonzero" fill-opacity="1" /><path clip-path="url(#clip660)" d="M127.917 1132.24 Q124.306 1132.24 122.478 1135.8 Q120.672 1139.34 120.672 1146.47 Q120.672 1153.58 122.478 1157.14 Q124.306 1160.69 127.917 1160.69 Q131.552 1160.69 133.357 1157.14 Q135.186 1153.58 135.186 1146.47 Q135.186 1139.34 133.357 1135.8 Q131.552 1132.24 127.917 1132.24 M127.917 1128.53 Q133.728 1128.53 136.783 1133.14 Q139.862 1137.72 139.862 1146.47 Q139.862 1155.2 136.783 1159.81 Q133.728 1164.39 127.917 1164.39 Q122.107 1164.39 119.029 1159.81 Q115.973 1155.2 115.973 1146.47 Q115.973 1137.72 119.029 1133.14 Q122.107 1128.53 127.917 1128.53 Z" fill="#000000" fill-rule="nonzero" fill-opacity="1" /><path clip-path="url(#clip660)" d="M148.079 1157.84 L152.964 1157.84 L152.964 1163.72 L148.079 1163.72 L148.079 1157.84 Z" fill="#000000" fill-rule="nonzero" fill-opacity="1" /><path clip-path="url(#clip660)" d="M163.959 1159.78 L171.598 1159.78 L171.598 1133.42 L163.288 1135.08 L163.288 1130.83 L171.552 1129.16 L176.227 1129.16 L176.227 1159.78 L183.866 1159.78 L183.866 1163.72 L163.959 1163.72 L163.959 1159.78 Z" fill="#000000" fill-rule="nonzero" fill-opacity="1" /><path clip-path="url(#clip660)" d="M128.288 887.972 Q124.677 887.972 122.848 891.537 Q121.043 895.078 121.043 902.208 Q121.043 909.314 122.848 912.879 Q124.677 916.421 128.288 916.421 Q131.922 916.421 133.728 912.879 Q135.556 909.314 135.556 902.208 Q135.556 895.078 133.728 891.537 Q131.922 887.972 128.288 887.972 M128.288 884.268 Q134.098 884.268 137.154 888.875 Q140.232 893.458 140.232 902.208 Q140.232 910.935 137.154 915.541 Q134.098 920.125 128.288 920.125 Q122.478 920.125 119.399 915.541 Q116.343 910.935 116.343 902.208 Q116.343 893.458 119.399 888.875 Q122.478 884.268 128.288 884.268 Z" fill="#000000" fill-rule="nonzero" fill-opacity="1" /><path clip-path="url(#clip660)" d="M148.45 913.574 L153.334 913.574 L153.334 919.453 L148.45 919.453 L148.45 913.574 Z" fill="#000000" fill-rule="nonzero" fill-opacity="1" /><path clip-path="url(#clip660)" d="M167.547 915.518 L183.866 915.518 L183.866 919.453 L161.922 919.453 L161.922 915.518 Q164.584 912.763 169.167 908.134 Q173.774 903.481 174.954 902.139 Q177.2 899.615 178.079 897.879 Q178.982 896.12 178.982 894.43 Q178.982 891.676 177.038 889.94 Q175.116 888.203 172.014 888.203 Q169.815 888.203 167.362 888.967 Q164.931 889.731 162.153 891.282 L162.153 886.56 Q164.977 885.426 167.431 884.847 Q169.885 884.268 171.922 884.268 Q177.292 884.268 180.487 886.953 Q183.681 889.639 183.681 894.129 Q183.681 896.259 182.871 898.18 Q182.084 900.078 179.977 902.671 Q179.399 903.342 176.297 906.56 Q173.195 909.754 167.547 915.518 Z" fill="#000000" fill-rule="nonzero" fill-opacity="1" /><path clip-path="url(#clip660)" d="M127.339 643.706 Q123.728 643.706 121.899 647.271 Q120.093 650.813 120.093 657.943 Q120.093 665.049 121.899 668.614 Q123.728 672.155 127.339 672.155 Q130.973 672.155 132.779 668.614 Q134.607 665.049 134.607 657.943 Q134.607 650.813 132.779 647.271 Q130.973 643.706 127.339 643.706 M127.339 640.003 Q133.149 640.003 136.204 644.609 Q139.283 649.193 139.283 657.943 Q139.283 666.669 136.204 671.276 Q133.149 675.859 127.339 675.859 Q121.529 675.859 118.45 671.276 Q115.394 666.669 115.394 657.943 Q115.394 649.193 118.45 644.609 Q121.529 640.003 127.339 640.003 Z" fill="#000000" fill-rule="nonzero" fill-opacity="1" /><path clip-path="url(#clip660)" d="M147.501 669.308 L152.385 669.308 L152.385 675.188 L147.501 675.188 L147.501 669.308 Z" fill="#000000" fill-rule="nonzero" fill-opacity="1" /><path clip-path="url(#clip660)" d="M176.737 656.554 Q180.093 657.271 181.968 659.54 Q183.866 661.808 183.866 665.142 Q183.866 670.257 180.348 673.058 Q176.829 675.859 170.348 675.859 Q168.172 675.859 165.857 675.419 Q163.565 675.003 161.112 674.146 L161.112 669.632 Q163.056 670.767 165.371 671.345 Q167.686 671.924 170.209 671.924 Q174.607 671.924 176.899 670.188 Q179.214 668.452 179.214 665.142 Q179.214 662.086 177.061 660.373 Q174.931 658.637 171.112 658.637 L167.084 658.637 L167.084 654.794 L171.297 654.794 Q174.746 654.794 176.575 653.429 Q178.403 652.04 178.403 649.447 Q178.403 646.785 176.505 645.373 Q174.63 643.938 171.112 643.938 Q169.19 643.938 166.991 644.355 Q164.792 644.771 162.153 645.651 L162.153 641.484 Q164.815 640.744 167.13 640.373 Q169.468 640.003 171.528 640.003 Q176.852 640.003 179.954 642.433 Q183.056 644.841 183.056 648.961 Q183.056 651.831 181.413 653.822 Q179.769 655.79 176.737 656.554 Z" fill="#000000" fill-rule="nonzero" fill-opacity="1" /><path clip-path="url(#clip660)" d="M126.205 399.441 Q122.593 399.441 120.765 403.006 Q118.959 406.547 118.959 413.677 Q118.959 420.783 120.765 424.348 Q122.593 427.89 126.205 427.89 Q129.839 427.89 131.644 424.348 Q133.473 420.783 133.473 413.677 Q133.473 406.547 131.644 403.006 Q129.839 399.441 126.205 399.441 M126.205 395.737 Q132.015 395.737 135.07 400.344 Q138.149 404.927 138.149 413.677 Q138.149 422.404 135.07 427.01 Q132.015 431.594 126.205 431.594 Q120.394 431.594 117.316 427.01 Q114.26 422.404 114.26 413.677 Q114.26 404.927 117.316 400.344 Q120.394 395.737 126.205 395.737 Z" fill="#000000" fill-rule="nonzero" fill-opacity="1" /><path clip-path="url(#clip660)" d="M146.366 425.043 L151.251 425.043 L151.251 430.922 L146.366 430.922 L146.366 425.043 Z" fill="#000000" fill-rule="nonzero" fill-opacity="1" /><path clip-path="url(#clip660)" d="M174.283 400.436 L162.477 418.885 L174.283 418.885 L174.283 400.436 M173.056 396.362 L178.936 396.362 L178.936 418.885 L183.866 418.885 L183.866 422.774 L178.936 422.774 L178.936 430.922 L174.283 430.922 L174.283 422.774 L158.681 422.774 L158.681 418.26 L173.056 396.362 Z" fill="#000000" fill-rule="nonzero" fill-opacity="1" /><path clip-path="url(#clip660)" d="M127.686 155.176 Q124.075 155.176 122.246 158.74 Q120.441 162.282 120.441 169.412 Q120.441 176.518 122.246 180.083 Q124.075 183.624 127.686 183.624 Q131.32 183.624 133.126 180.083 Q134.954 176.518 134.954 169.412 Q134.954 162.282 133.126 158.74 Q131.32 155.176 127.686 155.176 M127.686 151.472 Q133.496 151.472 136.552 156.078 Q139.63 160.662 139.63 169.412 Q139.63 178.138 136.552 182.745 Q133.496 187.328 127.686 187.328 Q121.876 187.328 118.797 182.745 Q115.742 178.138 115.742 169.412 Q115.742 160.662 118.797 156.078 Q121.876 151.472 127.686 151.472 Z" fill="#000000" fill-rule="nonzero" fill-opacity="1" /><path clip-path="url(#clip660)" d="M147.848 180.777 L152.732 180.777 L152.732 186.657 L147.848 186.657 L147.848 180.777 Z" fill="#000000" fill-rule="nonzero" fill-opacity="1" /><path clip-path="url(#clip660)" d="M162.964 152.097 L181.32 152.097 L181.32 156.032 L167.246 156.032 L167.246 164.504 Q168.264 164.157 169.283 163.995 Q170.302 163.81 171.32 163.81 Q177.107 163.81 180.487 166.981 Q183.866 170.152 183.866 175.569 Q183.866 181.148 180.394 184.249 Q176.922 187.328 170.602 187.328 Q168.427 187.328 166.158 186.958 Q163.913 186.587 161.505 185.847 L161.505 181.148 Q163.589 182.282 165.811 182.837 Q168.033 183.393 170.51 183.393 Q174.514 183.393 176.852 181.286 Q179.19 179.18 179.19 175.569 Q179.19 171.958 176.852 169.851 Q174.514 167.745 170.51 167.745 Q168.635 167.745 166.76 168.162 Q164.908 168.578 162.964 169.458 L162.964 152.097 Z" fill="#000000" fill-rule="nonzero" fill-opacity="1" /><path clip-path="url(#clip660)" d="M16.8605 717.938 L33.6719 722.092 Q34.7347 722.382 34.8635 722.575 Q34.9924 722.736 34.9924 723.252 Q34.9924 724.25 34.316 724.25 Q34.2516 724.25 33.4143 724.153 Q32.5447 724.057 30.9666 724.057 Q25.1374 724.057 21.6913 726.891 Q18.2453 729.693 18.2453 734.685 Q18.2453 739 20.4353 743.348 Q22.6253 747.664 26.2002 750.755 Q28.9055 753.074 32.3193 754.781 Q35.7331 756.456 38.8571 757.261 Q41.981 758.034 44.3321 758.388 Q46.6831 758.742 48.39 758.742 Q50.8699 758.742 52.9632 758.227 Q55.0566 757.68 56.5381 756.713 Q57.9874 755.747 59.1146 754.523 Q60.2096 753.267 60.8537 751.818 Q61.4978 750.337 61.8198 748.855 Q62.1097 747.374 62.1097 745.828 Q62.1097 739.612 57.2788 733.686 Q53.3175 728.984 46.8441 727.02 Q46.2 726.859 46.2 726.182 Q46.2 725.377 46.8441 725.377 Q46.9729 725.377 47.6171 725.538 Q48.229 725.699 49.485 726.182 Q50.7088 726.665 52.0937 727.406 Q53.4785 728.147 55.2176 729.532 Q56.9568 730.917 58.4704 732.623 Q60.9825 735.522 62.5606 739.193 Q64.1387 742.865 64.1387 746.891 Q64.1387 751.915 61.9165 755.973 Q59.6943 760.031 55.5397 762.414 Q51.3852 764.765 46.0712 764.765 Q40.4674 764.765 34.9602 762.188 Q29.453 759.612 25.3628 755.522 Q21.2727 751.432 18.7284 746.021 Q16.1841 740.611 16.1841 735.2 Q16.1841 733.139 16.7316 731.303 Q17.2791 729.467 17.9555 728.372 Q18.6318 727.245 19.6302 726.247 Q20.5963 725.248 21.0472 724.926 Q21.4981 724.572 22.0456 724.25 L16.9893 719.645 Q16.1841 718.839 16.1841 718.646 Q16.1841 718.26 16.4096 718.099 Q16.635 717.938 16.8605 717.938 Z" fill="#000000" fill-rule="nonzero" fill-opacity="1" /><path clip-path="url(#clip660)" d="M71.4621 683.463 Q71.5974 683.463 72.1159 683.643 L82.0804 687.295 Q82.6665 687.498 82.7792 687.701 Q82.8694 687.904 82.8694 688.738 L82.8694 710.11 Q82.8694 710.629 82.8469 710.831 Q82.8243 711.034 82.7116 711.192 Q82.5989 711.35 82.3509 711.35 Q81.9 711.35 81.6971 711.192 Q81.4942 711.012 81.4717 710.809 Q81.4491 710.606 81.4491 710.11 Q81.4491 708.983 81.3815 708.306 Q81.3139 707.63 81.2237 707.202 Q81.111 706.751 80.7954 706.525 Q80.4797 706.278 80.2092 706.165 Q79.9161 706.052 79.2624 705.894 L54.4638 699.717 Q53.7199 699.537 53.6072 699.537 Q53.1788 699.537 53.0661 699.807 Q52.9308 700.055 52.8632 700.777 L52.773 702.535 Q52.773 703.076 52.7505 703.302 Q52.7279 703.505 52.6152 703.662 Q52.5025 703.82 52.2545 703.82 Q51.8262 703.82 51.6233 703.662 Q51.3978 703.482 51.3753 703.347 Q51.3302 703.189 51.3302 702.941 L51.4655 696.809 L51.3302 689.978 Q51.3302 689.234 51.8938 689.234 Q52.525 689.234 52.6603 689.55 Q52.773 689.865 52.773 690.993 Q52.773 693.157 52.9985 694.149 Q53.2239 695.118 53.6072 695.389 Q53.9679 695.637 54.9373 695.885 L79.871 702.129 Q80.7052 702.355 80.9306 702.355 Q81.1786 702.355 81.2688 702.242 Q81.3364 702.107 81.3815 701.746 Q81.4491 701.34 81.4491 700.732 L81.4491 696.403 Q81.4491 695.096 81.2462 693.946 Q81.0433 692.796 80.7503 691.917 Q80.4572 691.015 79.9161 690.204 Q79.3751 689.392 78.9016 688.828 Q78.4057 688.242 77.6392 687.679 Q76.8501 687.092 76.3091 686.754 Q75.7455 686.394 74.8437 685.988 Q73.9194 685.582 73.4009 685.379 Q72.8598 685.154 71.9355 684.816 Q71.4621 684.613 71.3268 684.545 Q71.1916 684.477 71.0788 684.365 Q70.9661 684.229 70.9661 684.026 Q70.9661 683.756 71.1239 683.621 Q71.2817 683.463 71.4621 683.463 Z" fill="#000000" fill-rule="nonzero" fill-opacity="1" /><polyline clip-path="url(#clip662)" style="stroke:#009af9; stroke-linecap:round; stroke-linejoin:round; stroke-width:4; stroke-opacity:1; fill:none" points="233.197,-4266.83 246.527,631.091 259.858,681.625 273.189,697.849 286.519,702.958 299.85,703.562 313.18,702.004 326.511,699.324 339.841,696.046 353.172,692.455 366.502,688.716 379.833,684.929 393.164,681.157 406.494,677.445 419.825,673.823 433.155,670.314 446.486,666.929 459.816,663.679 473.147,660.564 486.477,657.585 499.808,654.738 513.139,652.019 526.469,649.424 539.8,646.947 553.13,644.581 566.461,642.322 579.791,640.165 593.122,638.105 606.453,636.136 619.783,634.254 633.114,632.454 646.444,630.733 659.775,629.087 673.105,627.511 686.436,626.003 699.766,624.559 713.097,623.174 726.428,621.846 739.758,620.572 753.089,619.354 766.419,618.186 779.75,617.066 793.08,615.991 806.411,614.96 819.741,613.969 833.072,613.018 846.403,612.105 859.733,611.227 873.064,610.383 886.394,609.572 899.725,608.792 913.055,608.042 926.386,607.32 939.717,606.626 953.047,605.957 966.378,605.313 979.708,604.693 993.039,604.095 1006.37,603.519 1019.7,602.964 1033.03,602.429 1046.36,601.913 1059.69,601.415 1073.02,600.935 1086.35,600.471 1099.68,600.024 1113.01,599.592 1126.34,599.175 1139.67,598.772 1153.01,598.383 1166.34,598.007 1179.67,597.644 1193,597.293 1206.33,596.953 1219.66,596.625 1232.99,596.307 1246.32,595.999 1259.65,595.702 1272.98,595.414 1286.31,595.135 1299.64,594.865 1312.97,594.604 1326.3,594.35 1339.63,594.105 1352.96,593.867 1366.29,593.636 1379.63,593.413 1392.96,593.196 1406.29,592.986 1419.62,592.782 1432.95,592.584 1446.28,592.392 1459.61,592.206 1472.94,592.025 1486.27,591.849 1499.6,591.679 1512.93,591.513 1526.26,591.352 1539.59,591.196 1552.92,591.045 1566.25,590.898 1579.58,590.755 1592.91,590.616 1606.24,590.481 1619.58,590.349 1632.91,590.222 1646.24,590.098 1659.57,589.977 1672.9,589.86 1686.23,589.746 1699.56,589.634 1712.89,589.526 1726.22,589.421 1739.55,589.319 1752.88,589.219 1766.21,589.122 1779.54,589.028 1792.87,588.935 1806.2,588.846 1819.53,588.758 1832.86,588.673 1846.19,588.59 1859.53,588.51 1872.86,588.431 1886.19,588.354 1899.52,588.279 1912.85,588.206 1926.18,588.134 1939.51,588.065 1952.84,587.997 1966.17,587.931 1979.5,587.866 1992.83,587.803 2006.16,587.741 2019.49,587.681 2032.82,587.623 2046.15,587.566 2059.48,587.509 2072.81,587.454 2086.14,587.401 2099.48,587.349 2112.81,587.298 2126.14,587.248 2139.47,587.199 2152.8,587.152 2166.13,587.106 2179.46,587.06 2192.79,587.016 2206.12,586.972 2219.45,586.93 2232.78,586.888 2246.11,586.848 2259.44,586.808 2272.77,586.769 2286.1,586.731 2299.43,586.694 2312.76,586.658 2326.09,586.623 2339.43,586.588 2352.76,586.554 "/>
<polyline clip-path="url(#clip662)" style="stroke:#e26f46; stroke-linecap:round; stroke-linejoin:round; stroke-width:4; stroke-opacity:1; fill:none" points="233.197,-4644.44 246.527,544.038 259.858,596.131 273.189,610.69 286.519,613.475 299.85,611.579 313.18,607.455 326.511,602.198 339.841,596.365 353.172,590.255 366.502,584.042 379.833,577.831 393.164,571.687 406.494,565.656 419.825,559.767 433.155,554.044 446.486,548.5 459.816,543.143 473.147,537.974 486.477,532.994 499.808,528.197 513.139,523.579 526.469,519.134 539.8,514.855 553.13,510.734 566.461,506.766 579.791,502.943 593.122,499.259 606.453,495.709 619.783,492.285 633.114,488.981 646.444,485.787 659.775,482.7 673.105,479.726 686.436,476.859 699.766,474.092 713.097,471.419 726.428,468.836 739.758,466.34 753.089,463.927 766.419,461.594 779.75,459.337 793.08,457.154 806.411,455.042 819.741,452.998 833.072,451.019 846.403,449.102 859.733,447.246 873.064,445.448 886.394,443.706 899.725,442.017 913.055,440.38 926.386,438.793 939.717,437.253 953.047,435.759 966.378,434.311 979.708,432.905 993.039,431.54 1006.37,430.216 1019.7,428.93 1033.03,427.681 1046.36,426.468 1059.69,425.289 1073.02,424.144 1086.35,423.031 1099.68,421.949 1113.01,420.897 1126.34,419.874 1139.67,418.879 1153.01,417.911 1166.34,416.97 1179.67,416.053 1193,415.161 1206.33,414.293 1219.66,413.448 1232.99,412.625 1246.32,411.823 1259.65,411.042 1272.98,410.281 1286.31,409.54 1299.64,408.818 1312.97,408.114 1326.3,407.429 1339.63,406.761 1352.96,406.109 1366.29,405.475 1379.63,404.856 1392.96,404.253 1406.29,403.664 1419.62,403.09 1432.95,402.53 1446.28,401.984 1459.61,401.452 1472.94,400.932 1486.27,400.424 1499.6,399.929 1512.93,399.445 1526.26,398.973 1539.59,398.511 1552.92,398.061 1566.25,397.621 1579.58,397.192 1592.91,396.772 1606.24,396.362 1619.58,395.961 1632.91,395.569 1646.24,395.186 1659.57,394.812 1672.9,394.446 1686.23,394.088 1699.56,393.738 1712.89,393.396 1726.22,393.061 1739.55,392.734 1752.88,392.413 1766.21,392.1 1779.54,391.793 1792.87,391.492 1806.2,391.198 1819.53,390.91 1832.86,390.629 1846.19,390.353 1859.53,390.083 1872.86,389.818 1886.19,389.559 1899.52,389.305 1912.85,389.056 1926.18,388.813 1939.51,388.574 1952.84,388.341 1966.17,388.111 1979.5,387.887 1992.83,387.667 2006.16,387.451 2019.49,387.24 2032.82,387.033 2046.15,386.83 2059.48,386.63 2072.81,386.435 2086.14,386.243 2099.48,386.055 2112.81,385.871 2126.14,385.69 2139.47,385.513 2152.8,385.339 2166.13,385.168 2179.46,385.001 2192.79,384.836 2206.12,384.675 2219.45,384.516 2232.78,384.361 2246.11,384.208 2259.44,384.058 2272.77,383.911 2286.1,383.767 2299.43,383.625 2312.76,383.486 2326.09,383.349 2339.43,383.215 2352.76,383.083 "/>
<polyline clip-path="url(#clip662)" style="stroke:#3da44d; stroke-linecap:round; stroke-linejoin:round; stroke-width:4; stroke-opacity:1; fill:none" points="233.197,-4759.54 246.527,515.698 259.858,568.112 273.189,581.871 286.519,583.675 299.85,580.767 313.18,575.625 326.511,569.36 339.841,562.53 353.172,555.444 366.502,548.275 379.833,541.127 393.164,534.067 406.494,527.138 419.825,520.371 433.155,513.784 446.486,507.393 459.816,501.204 473.147,495.22 486.477,489.439 499.808,483.857 513.139,478.469 526.469,473.268 539.8,468.247 553.13,463.4 566.461,458.72 579.791,454.198 593.122,449.829 606.453,445.603 619.783,441.508 633.114,437.539 646.444,433.707 659.775,430.007 673.105,426.428 686.436,422.963 699.766,419.608 713.097,416.357 726.428,413.208 739.758,410.156 753.089,407.197 766.419,404.329 779.75,401.547 793.08,398.848 806.411,396.23 819.741,393.689 833.072,391.222 846.403,388.827 859.733,386.5 873.064,384.24 886.394,382.044 899.725,379.908 913.055,377.832 926.386,375.814 939.717,373.853 953.047,371.945 966.378,370.088 979.708,368.282 993.039,366.524 1006.37,364.813 1019.7,363.146 1033.03,361.524 1046.36,359.943 1059.69,358.403 1073.02,356.903 1086.35,355.44 1099.68,354.015 1113.01,352.626 1126.34,351.271 1139.67,349.949 1153.01,348.66 1166.34,347.403 1179.67,346.176 1193,344.979 1206.33,343.811 1219.66,342.67 1232.99,341.557 1246.32,340.47 1259.65,339.409 1272.98,338.373 1286.31,337.362 1299.64,336.374 1312.97,335.409 1326.3,334.465 1339.63,333.544 1352.96,332.644 1366.29,331.764 1379.63,330.904 1392.96,330.064 1406.29,329.242 1419.62,328.438 1432.95,327.653 1446.28,326.884 1459.61,326.132 1472.94,325.396 1486.27,324.677 1499.6,323.972 1512.93,323.283 1526.26,322.608 1539.59,321.948 1552.92,321.302 1566.25,320.669 1579.58,320.05 1592.91,319.443 1606.24,318.849 1619.58,318.267 1632.91,317.697 1646.24,317.138 1659.57,316.591 1672.9,316.054 1686.23,315.529 1699.56,315.013 1712.89,314.508 1726.22,314.013 1739.55,313.529 1752.88,313.053 1766.21,312.581 1779.54,312.121 1792.87,311.672 1806.2,311.232 1819.53,310.8 1832.86,310.376 1846.19,309.96 1859.53,309.552 1872.86,309.152 1886.19,308.759 1899.52,308.373 1912.85,307.995 1926.18,307.623 1939.51,307.259 1952.84,306.901 1966.17,306.549 1979.5,306.204 1992.83,305.865 2006.16,305.532 2019.49,305.205 2032.82,304.884 2046.15,304.569 2059.48,304.259 2072.81,303.955 2086.14,303.655 2099.48,303.361 2112.81,303.071 2126.14,302.785 2139.47,302.507 2152.8,302.233 2166.13,301.963 2179.46,301.698 2192.79,301.438 2206.12,301.182 2219.45,300.93 2232.78,300.683 2246.11,300.439 2259.44,300.2 2272.77,299.964 2286.1,299.733 2299.43,299.505 2312.76,299.282 2326.09,299.061 2339.43,298.845 2352.76,298.632 "/>
<polyline clip-path="url(#clip662)" style="stroke:#c271d2; stroke-linecap:round; stroke-linejoin:round; stroke-width:4; stroke-opacity:1; fill:none" points="233.197,-4837.59 246.527,495.259 259.858,547.79 273.189,560.816 286.519,561.766 299.85,557.984 313.18,551.968 326.511,544.837 339.841,537.158 353.172,529.24 366.502,521.261 379.833,513.323 393.164,505.493 406.494,497.811 419.825,490.305 433.155,482.995 446.486,475.894 459.816,469.006 473.147,462.335 486.477,455.879 499.808,449.633 513.139,443.592 526.469,437.751 539.8,432.1 553.13,426.635 566.461,421.346 579.791,416.225 593.122,411.26 606.453,406.436 619.783,401.759 633.114,397.243 646.444,392.872 659.775,388.636 673.105,384.527 686.436,380.541 699.766,376.673 713.097,372.919 726.428,369.275 739.758,365.736 753.089,362.298 766.419,358.959 779.75,355.713 793.08,352.559 806.411,349.492 819.741,346.509 833.072,343.608 846.403,340.786 859.733,338.063 873.064,335.36 886.394,332.753 899.725,330.215 913.055,327.744 926.386,325.336 939.717,322.99 953.047,320.702 966.378,318.473 979.708,316.298 993.039,314.177 1006.37,312.108 1019.7,310.089 1033.03,308.119 1046.36,306.196 1059.69,304.319 1073.02,302.486 1086.35,300.696 1099.68,298.947 1113.01,297.239 1126.34,295.57 1139.67,293.94 1153.01,292.346 1166.34,290.788 1179.67,289.266 1193,287.777 1206.33,286.322 1219.66,284.898 1232.99,283.506 1246.32,282.144 1259.65,280.812 1272.98,279.509 1286.31,278.233 1299.64,276.984 1312.97,275.762 1326.3,274.565 1339.63,273.392 1352.96,272.243 1366.29,271.115 1379.63,270.011 1392.96,268.931 1406.29,267.875 1419.62,266.841 1432.95,265.828 1446.28,264.835 1459.61,263.861 1472.94,262.907 1486.27,261.97 1499.6,261.052 1512.93,260.151 1526.26,259.267 1539.59,258.4 1552.92,257.549 1566.25,256.715 1579.58,255.896 1592.91,255.093 1606.24,254.304 1619.58,253.53 1632.91,252.77 1646.24,252.025 1659.57,251.292 1672.9,250.573 1686.23,249.867 1699.56,249.174 1712.89,248.493 1726.22,247.824 1739.55,247.167 1752.88,246.521 1766.21,245.887 1779.54,245.264 1792.87,244.652 1806.2,244.05 1819.53,243.459 1832.86,242.877 1846.19,242.305 1859.53,241.743 1872.86,241.191 1886.19,240.647 1899.52,240.113 1912.85,239.588 1926.18,239.072 1939.51,238.564 1952.84,238.064 1966.17,237.573 1979.5,237.09 1992.83,236.615 2006.16,236.147 2019.49,235.687 2032.82,235.235 2046.15,234.789 2059.48,234.352 2072.81,233.921 2086.14,233.496 2099.48,233.079 2112.81,232.668 2126.14,232.264 2139.47,231.866 2152.8,231.474 2166.13,231.088 2179.46,230.708 2192.79,230.333 2206.12,229.965 2219.45,229.602 2232.78,229.244 2246.11,228.892 2259.44,228.545 2272.77,228.203 2286.1,227.867 2299.43,227.535 2312.76,227.208 2326.09,226.885 2339.43,226.568 2352.76,226.255 "/>
<polyline clip-path="url(#clip662)" style="stroke:#ac8d18; stroke-linecap:round; stroke-linejoin:round; stroke-width:4; stroke-opacity:1; fill:none" points="233.197,-4894.78 246.527,478.922 259.858,531.354 273.189,543.473 286.519,543.471 299.85,538.733 313.18,531.756 326.511,523.664 339.841,515.032 353.172,506.175 366.502,497.272 379.833,488.43 393.164,479.712 406.494,471.157 419.825,462.791 433.155,454.631 446.486,446.686 459.816,438.962 473.147,431.462 486.477,424.182 499.808,417.12 513.139,410.271 526.469,403.629 539.8,397.187 553.13,390.937 566.461,384.869 579.791,378.962 593.122,373.195 606.453,367.594 619.783,362.185 633.114,356.944 646.444,351.852 659.775,346.902 673.105,342.088 686.436,337.405 699.766,332.85 713.097,328.416 726.428,324.1 739.758,319.898 753.089,315.805 766.419,311.818 779.75,307.933 793.08,304.147 806.411,300.456 819.741,296.862 833.072,293.329 846.403,289.898 859.733,286.552 873.064,283.286 886.394,280.096 899.725,276.98 913.055,273.936 926.386,270.962 939.717,268.056 953.047,265.215 966.378,262.437 979.708,259.721 993.039,257.065 1006.37,254.466 1019.7,251.923 1033.03,249.435 1046.36,247 1059.69,244.615 1073.02,242.28 1086.35,239.994 1099.68,237.756 1113.01,235.563 1126.34,233.415 1139.67,231.31 1153.01,229.246 1166.34,227.224 1179.67,225.24 1193,223.295 1206.33,221.388 1219.66,219.517 1232.99,217.681 1246.32,215.881 1259.65,214.114 1272.98,212.38 1286.31,210.678 1299.64,209.007 1312.97,207.367 1326.3,205.757 1339.63,204.175 1352.96,202.622 1366.29,201.096 1379.63,199.597 1392.96,198.125 1406.29,196.68 1419.62,195.26 1432.95,193.865 1446.28,192.494 1459.61,191.146 1472.94,189.82 1486.27,188.517 1499.6,187.235 1512.93,185.973 1526.26,184.732 1539.59,183.511 1552.92,182.31 1566.25,181.128 1579.58,179.964 1592.91,178.819 1606.24,177.692 1619.58,176.582 1632.91,175.49 1646.24,174.414 1659.57,173.355 1672.9,172.313 1686.23,171.287 1699.56,170.276 1712.89,169.28 1726.22,168.3 1739.55,167.334 1752.88,166.383 1766.21,165.446 1779.54,164.523 1792.87,163.613 1806.2,162.717 1819.53,161.833 1832.86,160.962 1846.19,160.104 1859.53,159.258 1872.86,158.421 1886.19,157.599 1899.52,156.787 1912.85,155.986 1926.18,155.195 1939.51,154.414 1952.84,153.643 1966.17,152.883 1979.5,152.134 1992.83,151.396 2006.16,150.667 2019.49,149.948 2032.82,149.238 2046.15,148.537 2059.48,147.846 2072.81,147.163 2086.14,146.489 2099.48,145.824 2112.81,145.168 2126.14,144.52 2139.47,143.88 2152.8,143.248 2166.13,142.624 2179.46,142.007 2192.79,141.399 2206.12,140.799 2219.45,140.206 2232.78,139.62 2246.11,139.042 2259.44,138.47 2272.77,137.905 2286.1,137.346 2299.43,136.795 2312.76,136.249 2326.09,135.71 2339.43,135.177 2352.76,134.653 "/>
<path clip-path="url(#clip660)" d="M1770.78 1345.92 L2281.66 1345.92 L2281.66 1034.88 L1770.78 1034.88  Z" fill="#ffffff" fill-rule="evenodd" fill-opacity="1"/>
<polyline clip-path="url(#clip660)" style="stroke:#000000; stroke-linecap:round; stroke-linejoin:round; stroke-width:4; stroke-opacity:1; fill:none" points="1770.78,1345.92 2281.66,1345.92 2281.66,1034.88 1770.78,1034.88 1770.78,1345.92 "/>
<polyline clip-path="url(#clip660)" style="stroke:#009af9; stroke-linecap:round; stroke-linejoin:round; stroke-width:4; stroke-opacity:1; fill:none" points="1794.48,1086.72 1936.67,1086.72 "/>
<path clip-path="url(#clip660)" d="M1976.2 1074.05 L1969.86 1091.25 L1982.57 1091.25 L1976.2 1074.05 M1973.56 1069.44 L1978.87 1069.44 L1992.04 1104 L1987.18 1104 L1984.03 1095.14 L1968.45 1095.14 L1965.3 1104 L1960.37 1104 L1973.56 1069.44 Z" fill="#000000" fill-rule="nonzero" fill-opacity="1" /><path clip-path="url(#clip660)" d="M2013.47 1087.8 Q2014.98 1088.31 2016.39 1089.97 Q2017.82 1091.64 2019.26 1094.56 L2024 1104 L2018.98 1104 L2014.56 1095.14 Q2012.85 1091.66 2011.23 1090.53 Q2009.63 1089.4 2006.85 1089.4 L2001.76 1089.4 L2001.76 1104 L1997.08 1104 L1997.08 1069.44 L2007.64 1069.44 Q2013.56 1069.44 2016.48 1071.92 Q2019.4 1074.4 2019.4 1079.4 Q2019.4 1082.66 2017.87 1084.81 Q2016.36 1086.97 2013.47 1087.8 M2001.76 1073.28 L2001.76 1085.55 L2007.64 1085.55 Q2011.02 1085.55 2012.73 1084 Q2014.47 1082.43 2014.47 1079.4 Q2014.47 1076.36 2012.73 1074.84 Q2011.02 1073.28 2007.64 1073.28 L2001.76 1073.28 Z" fill="#000000" fill-rule="nonzero" fill-opacity="1" /><path clip-path="url(#clip660)" d="M2045.46 1082.47 L2075.14 1082.47 L2075.14 1086.36 L2045.46 1086.36 L2045.46 1082.47 M2045.46 1091.92 L2075.14 1091.92 L2075.14 1095.85 L2045.46 1095.85 L2045.46 1091.92 Z" fill="#000000" fill-rule="nonzero" fill-opacity="1" /><path clip-path="url(#clip660)" d="M2113.15 1073.52 L2101.34 1091.97 L2113.15 1091.97 L2113.15 1073.52 M2111.92 1069.44 L2117.8 1069.44 L2117.8 1091.97 L2122.73 1091.97 L2122.73 1095.85 L2117.8 1095.85 L2117.8 1104 L2113.15 1104 L2113.15 1095.85 L2097.55 1095.85 L2097.55 1091.34 L2111.92 1069.44 Z" fill="#000000" fill-rule="nonzero" fill-opacity="1" /><path clip-path="url(#clip660)" d="M2130.46 1098.12 L2135.35 1098.12 L2135.35 1104 L2130.46 1104 L2130.46 1098.12 Z" fill="#000000" fill-rule="nonzero" fill-opacity="1" /><path clip-path="url(#clip660)" d="M2155.53 1072.52 Q2151.92 1072.52 2150.09 1076.09 Q2148.29 1079.63 2148.29 1086.76 Q2148.29 1093.86 2150.09 1097.43 Q2151.92 1100.97 2155.53 1100.97 Q2159.17 1100.97 2160.97 1097.43 Q2162.8 1093.86 2162.8 1086.76 Q2162.8 1079.63 2160.97 1076.09 Q2159.17 1072.52 2155.53 1072.52 M2155.53 1068.82 Q2161.34 1068.82 2164.4 1073.42 Q2167.48 1078.01 2167.48 1086.76 Q2167.48 1095.48 2164.4 1100.09 Q2161.34 1104.67 2155.53 1104.67 Q2149.72 1104.67 2146.64 1100.09 Q2143.59 1095.48 2143.59 1086.76 Q2143.59 1078.01 2146.64 1073.42 Q2149.72 1068.82 2155.53 1068.82 Z" fill="#000000" fill-rule="nonzero" fill-opacity="1" /><polyline clip-path="url(#clip660)" style="stroke:#e26f46; stroke-linecap:round; stroke-linejoin:round; stroke-width:4; stroke-opacity:1; fill:none" points="1794.48,1138.56 1936.67,1138.56 "/>
<path clip-path="url(#clip660)" d="M1976.2 1125.89 L1969.86 1143.09 L1982.57 1143.09 L1976.2 1125.89 M1973.56 1121.28 L1978.87 1121.28 L1992.04 1155.84 L1987.18 1155.84 L1984.03 1146.98 L1968.45 1146.98 L1965.3 1155.84 L1960.37 1155.84 L1973.56 1121.28 Z" fill="#000000" fill-rule="nonzero" fill-opacity="1" /><path clip-path="url(#clip660)" d="M2013.47 1139.64 Q2014.98 1140.15 2016.39 1141.81 Q2017.82 1143.48 2019.26 1146.4 L2024 1155.84 L2018.98 1155.84 L2014.56 1146.98 Q2012.85 1143.5 2011.23 1142.37 Q2009.63 1141.24 2006.85 1141.24 L2001.76 1141.24 L2001.76 1155.84 L1997.08 1155.84 L1997.08 1121.28 L2007.64 1121.28 Q2013.56 1121.28 2016.48 1123.76 Q2019.4 1126.24 2019.4 1131.24 Q2019.4 1134.5 2017.87 1136.65 Q2016.36 1138.81 2013.47 1139.64 M2001.76 1125.12 L2001.76 1137.39 L2007.64 1137.39 Q2011.02 1137.39 2012.73 1135.84 Q2014.47 1134.27 2014.47 1131.24 Q2014.47 1128.2 2012.73 1126.68 Q2011.02 1125.12 2007.64 1125.12 L2001.76 1125.12 Z" fill="#000000" fill-rule="nonzero" fill-opacity="1" /><path clip-path="url(#clip660)" d="M2045.46 1134.31 L2075.14 1134.31 L2075.14 1138.2 L2045.46 1138.2 L2045.46 1134.31 M2045.46 1143.76 L2075.14 1143.76 L2075.14 1147.69 L2045.46 1147.69 L2045.46 1143.76 Z" fill="#000000" fill-rule="nonzero" fill-opacity="1" /><path clip-path="url(#clip660)" d="M2110.3 1139.43 Q2106.97 1139.43 2105.04 1141.21 Q2103.15 1143 2103.15 1146.12 Q2103.15 1149.25 2105.04 1151.03 Q2106.97 1152.81 2110.3 1152.81 Q2113.63 1152.81 2115.55 1151.03 Q2117.48 1149.22 2117.48 1146.12 Q2117.48 1143 2115.55 1141.21 Q2113.66 1139.43 2110.3 1139.43 M2105.62 1137.44 Q2102.61 1136.7 2100.92 1134.64 Q2099.26 1132.58 2099.26 1129.62 Q2099.26 1125.47 2102.2 1123.06 Q2105.16 1120.66 2110.3 1120.66 Q2115.46 1120.66 2118.4 1123.06 Q2121.34 1125.47 2121.34 1129.62 Q2121.34 1132.58 2119.65 1134.64 Q2117.98 1136.7 2115 1137.44 Q2118.38 1138.23 2120.25 1140.52 Q2122.15 1142.81 2122.15 1146.12 Q2122.15 1151.14 2119.07 1153.83 Q2116.02 1156.51 2110.3 1156.51 Q2104.58 1156.51 2101.5 1153.83 Q2098.45 1151.14 2098.45 1146.12 Q2098.45 1142.81 2100.35 1140.52 Q2102.24 1138.23 2105.62 1137.44 M2103.91 1130.06 Q2103.91 1132.74 2105.58 1134.25 Q2107.27 1135.75 2110.3 1135.75 Q2113.31 1135.75 2115 1134.25 Q2116.71 1132.74 2116.71 1130.06 Q2116.71 1127.37 2115 1125.87 Q2113.31 1124.36 2110.3 1124.36 Q2107.27 1124.36 2105.58 1125.87 Q2103.91 1127.37 2103.91 1130.06 Z" fill="#000000" fill-rule="nonzero" fill-opacity="1" /><path clip-path="url(#clip660)" d="M2130.46 1149.96 L2135.35 1149.96 L2135.35 1155.84 L2130.46 1155.84 L2130.46 1149.96 Z" fill="#000000" fill-rule="nonzero" fill-opacity="1" /><path clip-path="url(#clip660)" d="M2155.53 1124.36 Q2151.92 1124.36 2150.09 1127.93 Q2148.29 1131.47 2148.29 1138.6 Q2148.29 1145.7 2150.09 1149.27 Q2151.92 1152.81 2155.53 1152.81 Q2159.17 1152.81 2160.97 1149.27 Q2162.8 1145.7 2162.8 1138.6 Q2162.8 1131.47 2160.97 1127.93 Q2159.17 1124.36 2155.53 1124.36 M2155.53 1120.66 Q2161.34 1120.66 2164.4 1125.26 Q2167.48 1129.85 2167.48 1138.6 Q2167.48 1147.32 2164.4 1151.93 Q2161.34 1156.51 2155.53 1156.51 Q2149.72 1156.51 2146.64 1151.93 Q2143.59 1147.32 2143.59 1138.6 Q2143.59 1129.85 2146.64 1125.26 Q2149.72 1120.66 2155.53 1120.66 Z" fill="#000000" fill-rule="nonzero" fill-opacity="1" /><polyline clip-path="url(#clip660)" style="stroke:#3da44d; stroke-linecap:round; stroke-linejoin:round; stroke-width:4; stroke-opacity:1; fill:none" points="1794.48,1190.4 1936.67,1190.4 "/>
<path clip-path="url(#clip660)" d="M1976.2 1177.73 L1969.86 1194.93 L1982.57 1194.93 L1976.2 1177.73 M1973.56 1173.12 L1978.87 1173.12 L1992.04 1207.68 L1987.18 1207.68 L1984.03 1198.82 L1968.45 1198.82 L1965.3 1207.68 L1960.37 1207.68 L1973.56 1173.12 Z" fill="#000000" fill-rule="nonzero" fill-opacity="1" /><path clip-path="url(#clip660)" d="M2013.47 1191.48 Q2014.98 1191.99 2016.39 1193.65 Q2017.82 1195.32 2019.26 1198.24 L2024 1207.68 L2018.98 1207.68 L2014.56 1198.82 Q2012.85 1195.34 2011.23 1194.21 Q2009.63 1193.08 2006.85 1193.08 L2001.76 1193.08 L2001.76 1207.68 L1997.08 1207.68 L1997.08 1173.12 L2007.64 1173.12 Q2013.56 1173.12 2016.48 1175.6 Q2019.4 1178.08 2019.4 1183.08 Q2019.4 1186.34 2017.87 1188.49 Q2016.36 1190.65 2013.47 1191.48 M2001.76 1176.96 L2001.76 1189.23 L2007.64 1189.23 Q2011.02 1189.23 2012.73 1187.68 Q2014.47 1186.11 2014.47 1183.08 Q2014.47 1180.04 2012.73 1178.52 Q2011.02 1176.96 2007.64 1176.96 L2001.76 1176.96 Z" fill="#000000" fill-rule="nonzero" fill-opacity="1" /><path clip-path="url(#clip660)" d="M2045.46 1186.15 L2075.14 1186.15 L2075.14 1190.04 L2045.46 1190.04 L2045.46 1186.15 M2045.46 1195.6 L2075.14 1195.6 L2075.14 1199.53 L2045.46 1199.53 L2045.46 1195.6 Z" fill="#000000" fill-rule="nonzero" fill-opacity="1" /><path clip-path="url(#clip660)" d="M2101.11 1203.75 L2108.75 1203.75 L2108.75 1177.38 L2100.44 1179.05 L2100.44 1174.79 L2108.7 1173.12 L2113.38 1173.12 L2113.38 1203.75 L2121.02 1203.75 L2121.02 1207.68 L2101.11 1207.68 L2101.11 1203.75 Z" fill="#000000" fill-rule="nonzero" fill-opacity="1" /><path clip-path="url(#clip660)" d="M2134.49 1203.75 L2150.81 1203.75 L2150.81 1207.68 L2128.86 1207.68 L2128.86 1203.75 Q2131.53 1200.99 2136.11 1196.36 Q2140.72 1191.71 2141.9 1190.37 Q2144.14 1187.84 2145.02 1186.11 Q2145.92 1184.35 2145.92 1182.66 Q2145.92 1179.9 2143.98 1178.17 Q2142.06 1176.43 2138.96 1176.43 Q2136.76 1176.43 2134.3 1177.2 Q2131.87 1177.96 2129.1 1179.51 L2129.1 1174.79 Q2131.92 1173.65 2134.37 1173.08 Q2136.83 1172.5 2138.86 1172.5 Q2144.23 1172.5 2147.43 1175.18 Q2150.62 1177.87 2150.62 1182.36 Q2150.62 1184.49 2149.81 1186.41 Q2149.03 1188.31 2146.92 1190.9 Q2146.34 1191.57 2143.24 1194.79 Q2140.14 1197.98 2134.49 1203.75 Z" fill="#000000" fill-rule="nonzero" fill-opacity="1" /><path clip-path="url(#clip660)" d="M2160.62 1201.8 L2165.51 1201.8 L2165.51 1207.68 L2160.62 1207.68 L2160.62 1201.8 Z" fill="#000000" fill-rule="nonzero" fill-opacity="1" /><path clip-path="url(#clip660)" d="M2185.69 1176.2 Q2182.08 1176.2 2180.25 1179.77 Q2178.45 1183.31 2178.45 1190.44 Q2178.45 1197.54 2180.25 1201.11 Q2182.08 1204.65 2185.69 1204.65 Q2189.33 1204.65 2191.13 1201.11 Q2192.96 1197.54 2192.96 1190.44 Q2192.96 1183.31 2191.13 1179.77 Q2189.33 1176.2 2185.69 1176.2 M2185.69 1172.5 Q2191.5 1172.5 2194.56 1177.1 Q2197.64 1181.69 2197.64 1190.44 Q2197.64 1199.16 2194.56 1203.77 Q2191.5 1208.35 2185.69 1208.35 Q2179.88 1208.35 2176.8 1203.77 Q2173.75 1199.16 2173.75 1190.44 Q2173.75 1181.69 2176.8 1177.1 Q2179.88 1172.5 2185.69 1172.5 Z" fill="#000000" fill-rule="nonzero" fill-opacity="1" /><polyline clip-path="url(#clip660)" style="stroke:#c271d2; stroke-linecap:round; stroke-linejoin:round; stroke-width:4; stroke-opacity:1; fill:none" points="1794.48,1242.24 1936.67,1242.24 "/>
<path clip-path="url(#clip660)" d="M1976.2 1229.57 L1969.86 1246.77 L1982.57 1246.77 L1976.2 1229.57 M1973.56 1224.96 L1978.87 1224.96 L1992.04 1259.52 L1987.18 1259.52 L1984.03 1250.66 L1968.45 1250.66 L1965.3 1259.52 L1960.37 1259.52 L1973.56 1224.96 Z" fill="#000000" fill-rule="nonzero" fill-opacity="1" /><path clip-path="url(#clip660)" d="M2013.47 1243.32 Q2014.98 1243.83 2016.39 1245.49 Q2017.82 1247.16 2019.26 1250.08 L2024 1259.52 L2018.98 1259.52 L2014.56 1250.66 Q2012.85 1247.18 2011.23 1246.05 Q2009.63 1244.92 2006.85 1244.92 L2001.76 1244.92 L2001.76 1259.52 L1997.08 1259.52 L1997.08 1224.96 L2007.64 1224.96 Q2013.56 1224.96 2016.48 1227.44 Q2019.4 1229.92 2019.4 1234.92 Q2019.4 1238.18 2017.87 1240.33 Q2016.36 1242.49 2013.47 1243.32 M2001.76 1228.8 L2001.76 1241.07 L2007.64 1241.07 Q2011.02 1241.07 2012.73 1239.52 Q2014.47 1237.95 2014.47 1234.92 Q2014.47 1231.88 2012.73 1230.36 Q2011.02 1228.8 2007.64 1228.8 L2001.76 1228.8 Z" fill="#000000" fill-rule="nonzero" fill-opacity="1" /><path clip-path="url(#clip660)" d="M2045.46 1237.99 L2075.14 1237.99 L2075.14 1241.88 L2045.46 1241.88 L2045.46 1237.99 M2045.46 1247.44 L2075.14 1247.44 L2075.14 1251.37 L2045.46 1251.37 L2045.46 1247.44 Z" fill="#000000" fill-rule="nonzero" fill-opacity="1" /><path clip-path="url(#clip660)" d="M2104.33 1255.59 L2120.65 1255.59 L2120.65 1259.52 L2098.7 1259.52 L2098.7 1255.59 Q2101.36 1252.83 2105.95 1248.2 Q2110.55 1243.55 2111.73 1242.21 Q2113.98 1239.68 2114.86 1237.95 Q2115.76 1236.19 2115.76 1234.5 Q2115.76 1231.74 2113.82 1230.01 Q2111.9 1228.27 2108.79 1228.27 Q2106.6 1228.27 2104.14 1229.04 Q2101.71 1229.8 2098.93 1231.35 L2098.93 1226.63 Q2101.76 1225.49 2104.21 1224.92 Q2106.67 1224.34 2108.7 1224.34 Q2114.07 1224.34 2117.27 1227.02 Q2120.46 1229.71 2120.46 1234.2 Q2120.46 1236.33 2119.65 1238.25 Q2118.86 1240.15 2116.76 1242.74 Q2116.18 1243.41 2113.08 1246.63 Q2109.98 1249.82 2104.33 1255.59 Z" fill="#000000" fill-rule="nonzero" fill-opacity="1" /><path clip-path="url(#clip660)" d="M2140.46 1228.04 Q2136.85 1228.04 2135.02 1231.61 Q2133.22 1235.15 2133.22 1242.28 Q2133.22 1249.38 2135.02 1252.95 Q2136.85 1256.49 2140.46 1256.49 Q2144.1 1256.49 2145.9 1252.95 Q2147.73 1249.38 2147.73 1242.28 Q2147.73 1235.15 2145.9 1231.61 Q2144.1 1228.04 2140.46 1228.04 M2140.46 1224.34 Q2146.27 1224.34 2149.33 1228.94 Q2152.41 1233.53 2152.41 1242.28 Q2152.41 1251 2149.33 1255.61 Q2146.27 1260.19 2140.46 1260.19 Q2134.65 1260.19 2131.57 1255.61 Q2128.52 1251 2128.52 1242.28 Q2128.52 1233.53 2131.57 1228.94 Q2134.65 1224.34 2140.46 1224.34 Z" fill="#000000" fill-rule="nonzero" fill-opacity="1" /><path clip-path="url(#clip660)" d="M2160.62 1253.64 L2165.51 1253.64 L2165.51 1259.52 L2160.62 1259.52 L2160.62 1253.64 Z" fill="#000000" fill-rule="nonzero" fill-opacity="1" /><path clip-path="url(#clip660)" d="M2185.69 1228.04 Q2182.08 1228.04 2180.25 1231.61 Q2178.45 1235.15 2178.45 1242.28 Q2178.45 1249.38 2180.25 1252.95 Q2182.08 1256.49 2185.69 1256.49 Q2189.33 1256.49 2191.13 1252.95 Q2192.96 1249.38 2192.96 1242.28 Q2192.96 1235.15 2191.13 1231.61 Q2189.33 1228.04 2185.69 1228.04 M2185.69 1224.34 Q2191.5 1224.34 2194.56 1228.94 Q2197.64 1233.53 2197.64 1242.28 Q2197.64 1251 2194.56 1255.61 Q2191.5 1260.19 2185.69 1260.19 Q2179.88 1260.19 2176.8 1255.61 Q2173.75 1251 2173.75 1242.28 Q2173.75 1233.53 2176.8 1228.94 Q2179.88 1224.34 2185.69 1224.34 Z" fill="#000000" fill-rule="nonzero" fill-opacity="1" /><polyline clip-path="url(#clip660)" style="stroke:#ac8d18; stroke-linecap:round; stroke-linejoin:round; stroke-width:4; stroke-opacity:1; fill:none" points="1794.48,1294.08 1936.67,1294.08 "/>
<path clip-path="url(#clip660)" d="M1976.2 1281.41 L1969.86 1298.61 L1982.57 1298.61 L1976.2 1281.41 M1973.56 1276.8 L1978.87 1276.8 L1992.04 1311.36 L1987.18 1311.36 L1984.03 1302.5 L1968.45 1302.5 L1965.3 1311.36 L1960.37 1311.36 L1973.56 1276.8 Z" fill="#000000" fill-rule="nonzero" fill-opacity="1" /><path clip-path="url(#clip660)" d="M2013.47 1295.16 Q2014.98 1295.67 2016.39 1297.33 Q2017.82 1299 2019.26 1301.92 L2024 1311.36 L2018.98 1311.36 L2014.56 1302.5 Q2012.85 1299.02 2011.23 1297.89 Q2009.63 1296.76 2006.85 1296.76 L2001.76 1296.76 L2001.76 1311.36 L1997.08 1311.36 L1997.08 1276.8 L2007.64 1276.8 Q2013.56 1276.8 2016.48 1279.28 Q2019.4 1281.76 2019.4 1286.76 Q2019.4 1290.02 2017.87 1292.17 Q2016.36 1294.33 2013.47 1295.16 M2001.76 1280.64 L2001.76 1292.91 L2007.64 1292.91 Q2011.02 1292.91 2012.73 1291.36 Q2014.47 1289.79 2014.47 1286.76 Q2014.47 1283.72 2012.73 1282.2 Q2011.02 1280.64 2007.64 1280.64 L2001.76 1280.64 Z" fill="#000000" fill-rule="nonzero" fill-opacity="1" /><path clip-path="url(#clip660)" d="M2045.46 1289.83 L2075.14 1289.83 L2075.14 1293.72 L2045.46 1293.72 L2045.46 1289.83 M2045.46 1299.28 L2075.14 1299.28 L2075.14 1303.21 L2045.46 1303.21 L2045.46 1299.28 Z" fill="#000000" fill-rule="nonzero" fill-opacity="1" /><path clip-path="url(#clip660)" d="M2101.11 1307.43 L2108.75 1307.43 L2108.75 1281.06 L2100.44 1282.73 L2100.44 1278.47 L2108.7 1276.8 L2113.38 1276.8 L2113.38 1307.43 L2121.02 1307.43 L2121.02 1311.36 L2101.11 1311.36 L2101.11 1307.43 Z" fill="#000000" fill-rule="nonzero" fill-opacity="1" /><path clip-path="url(#clip660)" d="M2140.46 1279.88 Q2136.85 1279.88 2135.02 1283.45 Q2133.22 1286.99 2133.22 1294.12 Q2133.22 1301.22 2135.02 1304.79 Q2136.85 1308.33 2140.46 1308.33 Q2144.1 1308.33 2145.9 1304.79 Q2147.73 1301.22 2147.73 1294.12 Q2147.73 1286.99 2145.9 1283.45 Q2144.1 1279.88 2140.46 1279.88 M2140.46 1276.18 Q2146.27 1276.18 2149.33 1280.78 Q2152.41 1285.37 2152.41 1294.12 Q2152.41 1302.84 2149.33 1307.45 Q2146.27 1312.03 2140.46 1312.03 Q2134.65 1312.03 2131.57 1307.45 Q2128.52 1302.84 2128.52 1294.12 Q2128.52 1285.37 2131.57 1280.78 Q2134.65 1276.18 2140.46 1276.18 Z" fill="#000000" fill-rule="nonzero" fill-opacity="1" /><path clip-path="url(#clip660)" d="M2170.62 1279.88 Q2167.01 1279.88 2165.18 1283.45 Q2163.38 1286.99 2163.38 1294.12 Q2163.38 1301.22 2165.18 1304.79 Q2167.01 1308.33 2170.62 1308.33 Q2174.26 1308.33 2176.06 1304.79 Q2177.89 1301.22 2177.89 1294.12 Q2177.89 1286.99 2176.06 1283.45 Q2174.26 1279.88 2170.62 1279.88 M2170.62 1276.18 Q2176.43 1276.18 2179.49 1280.78 Q2182.57 1285.37 2182.57 1294.12 Q2182.57 1302.84 2179.49 1307.45 Q2176.43 1312.03 2170.62 1312.03 Q2164.81 1312.03 2161.73 1307.45 Q2158.68 1302.84 2158.68 1294.12 Q2158.68 1285.37 2161.73 1280.78 Q2164.81 1276.18 2170.62 1276.18 Z" fill="#000000" fill-rule="nonzero" fill-opacity="1" /><path clip-path="url(#clip660)" d="M2200.79 1279.88 Q2197.17 1279.88 2195.35 1283.45 Q2193.54 1286.99 2193.54 1294.12 Q2193.54 1301.22 2195.35 1304.79 Q2197.17 1308.33 2200.79 1308.33 Q2204.42 1308.33 2206.22 1304.79 Q2208.05 1301.22 2208.05 1294.12 Q2208.05 1286.99 2206.22 1283.45 Q2204.42 1279.88 2200.79 1279.88 M2200.79 1276.18 Q2206.6 1276.18 2209.65 1280.78 Q2212.73 1285.37 2212.73 1294.12 Q2212.73 1302.84 2209.65 1307.45 Q2206.6 1312.03 2200.79 1312.03 Q2194.98 1312.03 2191.9 1307.45 Q2188.84 1302.84 2188.84 1294.12 Q2188.84 1285.37 2191.9 1280.78 Q2194.98 1276.18 2200.79 1276.18 Z" fill="#000000" fill-rule="nonzero" fill-opacity="1" /><path clip-path="url(#clip660)" d="M2220.95 1305.48 L2225.83 1305.48 L2225.83 1311.36 L2220.95 1311.36 L2220.95 1305.48 Z" fill="#000000" fill-rule="nonzero" fill-opacity="1" /><path clip-path="url(#clip660)" d="M2246.02 1279.88 Q2242.41 1279.88 2240.58 1283.45 Q2238.77 1286.99 2238.77 1294.12 Q2238.77 1301.22 2240.58 1304.79 Q2242.41 1308.33 2246.02 1308.33 Q2249.65 1308.33 2251.46 1304.79 Q2253.28 1301.22 2253.28 1294.12 Q2253.28 1286.99 2251.46 1283.45 Q2249.65 1279.88 2246.02 1279.88 M2246.02 1276.18 Q2251.83 1276.18 2254.88 1280.78 Q2257.96 1285.37 2257.96 1294.12 Q2257.96 1302.84 2254.88 1307.45 Q2251.83 1312.03 2246.02 1312.03 Q2240.21 1312.03 2237.13 1307.45 Q2234.07 1302.84 2234.07 1294.12 Q2234.07 1285.37 2237.13 1280.78 Q2240.21 1276.18 2246.02 1276.18 Z" fill="#000000" fill-rule="nonzero" fill-opacity="1" /></svg>
